SplineFontDB: 1.0
FontName: THFahkwang-Italic
FullName: THFahkwang-Italic
FamilyName: TH Fah kwang
Weight: Book
Copyright: Copyright (c) 2006 by Department of Intellectual Property (DIP), Ministry of Commerce and Software Industry Promotion Agency (Public Organization) (SIPA). All rights reserved.
Version: 1.1
ItalicAngle: -10
UnderlinePosition: -35
UnderlineWidth: 30
Ascent: 800
Descent: 200
Order2: 1
XUID: [1021 375 425136265 6802079]
FSType: 0
OS2Version: 3
OS2_WeightWidthSlopeOnly: 0
OS2_UseTypoMetrics: 1
CreationTime: 1158667020
ModificationTime: 1174462574
PfmFamily: 17
TTFWeight: 400
TTFWidth: 5
LineGap: 60
VLineGap: 0
Panose: 2 0 5 6 0 0 0 2 0 4
OS2TypoAscent: 0
OS2TypoAOffset: 1
OS2TypoDescent: 0
OS2TypoDOffset: 1
OS2TypoLinegap: 0
OS2WinAscent: -164
OS2WinAOffset: 1
OS2WinDescent: -214
OS2WinDOffset: 1
HheadAscent: 5
HheadAOffset: 1
HheadDescent: 196
HheadDOffset: 1
OS2SubXSize: 700
OS2SubYSize: 650
OS2SubXOff: 0
OS2SubYOff: 140
OS2SupXSize: 700
OS2SupYSize: 650
OS2SupXOff: 0
OS2SupYOff: 477
OS2StrikeYSize: 30
OS2StrikeYPos: 250
OS2FamilyClass: 773
OS2Vendor: 'ipth'
ScriptLang: 2
 1 latn 1 dflt 
 0 
ChainSub: coverage 0 0 'liga' 0 0 0 1
 1 0 1
  Coverage: 64 uni0E48.alt2 uni0E49.alt2 uni0E4A.alt2 uni0E4B.alt2 uni0E4C.alt2
  FCoverage: 7 uni0E33
 1
  SeqLookup: 0 'L026'
EndFPST
ChainSub: coverage 0 0 'liga' 0 0 0 1
 1 1 0
  Coverage: 7 uni0E47
  BCoverage: 12 uni0E2C.alt1
 1
  SeqLookup: 0 'L025'
EndFPST
ChainSub: coverage 0 0 'liga' 0 0 0 1
 1 0 1
  Coverage: 7 uni0E2C
  FCoverage: 39 uni0E34 uni0E35 uni0E36 uni0E37 uni0E47
 1
  SeqLookup: 0 'L025'
EndFPST
ChainSub: coverage 0 0 'liga' 0 0 0 1
 1 0 1
  Coverage: 15 uni0E0E uni0E0F
  FCoverage: 38 uni0E38.alt1 uni0E39.alt1 uni0E3A.alt1
 1
  SeqLookup: 0 'L025'
EndFPST
ChainSub: coverage 0 0 'liga' 0 0 0 1
 1 1 0
  Coverage: 5 a b c
  BCoverage: 23 uni0E1B uni0E1D uni0E1F
 1
  SeqLookup: 0 'L025'
EndFPST
ChainSub: coverage 0 0 'liga' 0 0 0 1
 1 0 1
  Coverage: 5 a b c

StartChar: .notdef
Encoding: 65536 -1 0
Width: 357
Flags: W
Fore
0 0 m 1,0,-1
 90 511 l 1,1,-1
 447 511 l 1,2,-1
 357 0 l 1,3,-1
 0 0 l 1,0,-1
394 482 m 1,4,-1
 129 482 l 1,5,-1
 227 281 l 1,6,-1
 394 482 l 1,4,-1
204 254 m 1,7,-1
 109 455 l 1,8,-1
 38 55 l 1,9,-1
 204 254 l 1,7,-1
51 29 m 1,10,-1
 315 29 l 1,11,-1
 218 228 l 1,12,-1
 51 29 l 1,10,-1
239 254 m 1,13,-1
 337 53 l 1,14,-1
 408 457 l 1,15,-1
 239 254 l 1,13,-1
EndSplineSet
EndChar
StartChar: numbersign
Encoding: 35 35 4
Width: 478
Flags: W
Fore
379 276 m 1,0,-1
 347 172 l 1,1,-1
 420 172 l 1,2,-1
 415 145 l 1,3,-1
 338 145 l 1,4,-1
 293 0 l 1,5,-1
 262 0 l 1,6,-1
 307 145 l 1,7,-1
 206 145 l 1,8,-1
 161 0 l 1,9,-1
 130 0 l 1,10,-1
 175 145 l 1,11,-1
 93 145 l 1,12,-1
 98 172 l 1,13,-1
 184 172 l 1,14,-1
 216 276 l 1,15,-1
 136 276 l 1,16,-1
 141 303 l 1,17,-1
 225 303 l 1,18,-1
 270 448 l 1,19,-1
 301 448 l 1,20,-1
 256 303 l 1,21,-1
 358 303 l 1,22,-1
 403 448 l 1,23,-1
 433 448 l 1,24,-1
 388 303 l 1,25,-1
 462 303 l 1,26,-1
 457 276 l 1,27,-1
 379 276 l 1,0,-1
247 276 m 1,28,-1
 215 172 l 1,29,-1
 316 172 l 1,30,-1
 349 276 l 1,31,-1
 247 276 l 1,28,-1
EndSplineSet
EndChar
StartChar: dollar
Encoding: 36 36 5
Width: 478
Flags: W
Fore
454 142 m 0,0,1
 448 107 448 107 428 83.5 c 128,-1,2
 408 60 408 60 380.5 45 c 128,-1,3
 353 30 353 30 321.5 23 c 128,-1,4
 290 16 290 16 261 14 c 1,5,-1
 249 -54 l 1,6,-1
 228 -54 l 1,7,-1
 240 14 l 1,8,9
 212 14 212 14 181.5 21 c 128,-1,10
 151 28 151 28 125.5 43 c 128,-1,11
 100 58 100 58 84.5 81.5 c 128,-1,12
 69 105 69 105 72 137 c 1,13,-1
 130 137 l 1,14,15
 127 113 127 113 135 93.5 c 128,-1,16
 143 74 143 74 158.5 60.5 c 128,-1,17
 174 47 174 47 194.5 40 c 128,-1,18
 215 33 215 33 238 33 c 0,19,20
 260 33 260 33 286.5 37.5 c 128,-1,21
 313 42 313 42 336 52.5 c 128,-1,22
 359 63 359 63 376.5 81 c 128,-1,23
 394 99 394 99 399 127 c 0,24,25
 404 157 404 157 384.5 173.5 c 128,-1,26
 365 190 365 190 333 201 c 128,-1,27
 301 212 301 212 262.5 220.5 c 128,-1,28
 224 229 224 229 192 241 c 128,-1,29
 160 253 160 253 141 273 c 128,-1,30
 122 293 122 293 128 327 c 0,31,32
 134 358 134 358 154.5 379.5 c 128,-1,33
 175 401 175 401 202 414 c 128,-1,34
 229 427 229 427 259.5 432.5 c 128,-1,35
 290 438 290 438 315 438 c 1,36,-1
 326 503 l 1,37,-1
 347 503 l 1,38,-1
 336 438 l 1,39,40
 360 437 360 437 384 431 c 128,-1,41
 408 425 408 425 427.5 413 c 128,-1,42
 447 401 447 401 461 383 c 128,-1,43
 475 365 475 365 480 340 c 1,44,-1
 428 340 l 1,45,46
 419 380 419 380 389 401 c 128,-1,47
 359 422 359 422 317 422 c 0,48,49
 298 422 298 422 276 418 c 128,-1,50
 254 414 254 414 235 404.5 c 128,-1,51
 216 395 216 395 201.5 379 c 128,-1,52
 187 363 187 363 183 340 c 0,53,54
 179 315 179 315 199 301 c 128,-1,55
 219 287 219 287 251 277 c 128,-1,56
 283 267 283 267 321.5 258 c 128,-1,57
 360 249 360 249 391.5 235 c 128,-1,58
 423 221 423 221 441.5 199.5 c 128,-1,59
 460 178 460 178 454 142 c 0,0,1
EndSplineSet
EndChar
StartChar: percent
Encoding: 37 37 6
Width: 492
Flags: W
Fore
495 126 m 256,0,1
 491 104 491 104 480 81.5 c 128,-1,2
 469 59 469 59 452.5 40.5 c 128,-1,3
 436 22 436 22 414.5 10.5 c 128,-1,4
 393 -1 393 -1 369 -1 c 256,5,6
 345 -1 345 -1 327.5 10.5 c 128,-1,7
 310 22 310 22 300 40.5 c 128,-1,8
 290 59 290 59 287 81.5 c 128,-1,9
 284 104 284 104 288 126 c 256,10,11
 292 148 292 148 303 170.5 c 128,-1,12
 314 193 314 193 330.5 211 c 128,-1,13
 347 229 347 229 368.5 240.5 c 128,-1,14
 390 252 390 252 414 252 c 256,15,16
 438 252 438 252 455.5 240.5 c 128,-1,17
 473 229 473 229 483 211 c 128,-1,18
 493 193 493 193 496 170.5 c 128,-1,19
 499 148 499 148 495 126 c 256,0,1
119 -11 m 1,20,-1
 93 -11 l 1,21,-1
 453 460 l 1,22,-1
 479 460 l 1,23,-1
 119 -11 l 1,20,-1
284 323 m 256,24,25
 280 301 280 301 269.5 278.5 c 128,-1,26
 259 256 259 256 242.5 237.5 c 128,-1,27
 226 219 226 219 204.5 207.5 c 128,-1,28
 183 196 183 196 159 196 c 256,29,30
 135 196 135 196 117.5 207.5 c 128,-1,31
 100 219 100 219 90 237.5 c 128,-1,32
 80 256 80 256 76.5 278.5 c 128,-1,33
 73 301 73 301 77 323 c 0,34,35
 81 344 81 344 92 366.5 c 128,-1,36
 103 389 103 389 119.5 407.5 c 128,-1,37
 136 426 136 426 157.5 437.5 c 128,-1,38
 179 449 179 449 203 449 c 256,39,40
 227 449 227 449 244.5 437.5 c 128,-1,41
 262 426 262 426 272 408 c 128,-1,42
 282 390 282 390 285 367.5 c 128,-1,43
 288 345 288 345 284 323 c 256,24,25
457 126 m 0,44,45
 459 139 459 139 459 159 c 128,-1,46
 459 179 459 179 454.5 197 c 128,-1,47
 450 215 450 215 440.5 228 c 128,-1,48
 431 241 431 241 413 241 c 256,49,50
 395 241 395 241 380 228 c 128,-1,51
 365 215 365 215 354 197 c 128,-1,52
 343 179 343 179 336 159.5 c 128,-1,53
 329 140 329 140 327 126 c 0,54,55
 324 112 324 112 324 92.5 c 128,-1,56
 324 73 324 73 328.5 55 c 128,-1,57
 333 37 333 37 343 24 c 128,-1,58
 353 11 353 11 371 11 c 256,59,60
 389 11 389 11 403.5 24 c 128,-1,61
 418 37 418 37 429 55 c 128,-1,62
 440 73 440 73 447 92.5 c 128,-1,63
 454 112 454 112 457 126 c 0,44,45
245 323 m 0,64,65
 248 336 248 336 248 356 c 128,-1,66
 248 376 248 376 243.5 394 c 128,-1,67
 239 412 239 412 229.5 425 c 128,-1,68
 220 438 220 438 202 438 c 256,69,70
 184 438 184 438 169.5 425 c 128,-1,71
 155 412 155 412 144.5 394 c 128,-1,72
 134 376 134 376 127 356 c 128,-1,73
 120 336 120 336 117 323 c 0,74,75
 115 309 115 309 115 289 c 128,-1,76
 115 269 115 269 119.5 251 c 128,-1,77
 124 233 124 233 133.5 220 c 128,-1,78
 143 207 143 207 161 207 c 256,79,80
 179 207 179 207 193.5 220 c 128,-1,81
 208 233 208 233 218.5 251 c 128,-1,82
 229 269 229 269 236 289 c 128,-1,83
 243 309 243 309 245 323 c 0,64,65
EndSplineSet
EndChar
StartChar: ampersand
Encoding: 38 38 7
Width: 518
Flags: W
Fore
420 0 m 1,0,1
 405 8 405 8 392.5 18 c 128,-1,2
 380 28 380 28 368 39 c 1,3,4
 331 13 331 13 290 -0.5 c 128,-1,5
 249 -14 249 -14 207 -14 c 0,6,7
 180 -14 180 -14 151 -8 c 128,-1,8
 122 -2 122 -2 100 11.5 c 128,-1,9
 78 25 78 25 66 48 c 128,-1,10
 54 71 54 71 60 104 c 0,11,12
 64 131 64 131 78 150.5 c 128,-1,13
 92 170 92 170 111 185 c 128,-1,14
 130 200 130 200 153 211.5 c 128,-1,15
 176 223 176 223 199 234 c 1,16,17
 185 254 185 254 174.5 278.5 c 128,-1,18
 164 303 164 303 169 331 c 0,19,20
 173 356 173 356 186 377.5 c 128,-1,21
 199 399 199 399 217.5 414.5 c 128,-1,22
 236 430 236 430 259 439 c 128,-1,23
 282 448 282 448 307 448 c 0,24,25
 325 448 325 448 342 443 c 128,-1,26
 359 438 359 438 371.5 428 c 128,-1,27
 384 418 384 418 390.5 403 c 128,-1,28
 397 388 397 388 393 368 c 0,29,30
 389 343 389 343 375.5 324 c 128,-1,31
 362 305 362 305 343 291 c 128,-1,32
 324 277 324 277 302 266 c 128,-1,33
 280 255 280 255 259 246 c 1,34,35
 288 204 288 204 321.5 165.5 c 128,-1,36
 355 127 355 127 393 93 c 1,37,38
 407 113 407 113 416 135.5 c 128,-1,39
 425 158 425 158 429 181 c 0,40,41
 433 206 433 206 432 229 c 1,42,-1
 496 229 l 1,43,44
 476 144 476 144 411 76 c 1,45,46
 434 55 434 55 460 36 c 128,-1,47
 486 17 486 17 513 0 c 1,48,-1
 420 0 l 1,0,1
348 362 m 0,49,50
 354 394 354 394 337 415 c 128,-1,51
 320 436 320 436 288 436 c 0,52,53
 275 436 275 436 262.5 430.5 c 128,-1,54
 250 425 250 425 240.5 415.5 c 128,-1,55
 231 406 231 406 224 394 c 128,-1,56
 217 382 217 382 215 369 c 0,57,58
 208 334 208 334 221 308.5 c 128,-1,59
 234 283 234 283 251 258 c 1,60,61
 287 274 287 274 314 297.5 c 128,-1,62
 341 321 341 321 348 362 c 0,49,50
356 52 m 1,63,64
 314 90 314 90 278 133 c 128,-1,65
 242 176 242 176 207 221 c 1,66,67
 176 205 176 205 151.5 182.5 c 128,-1,68
 127 160 127 160 121 125 c 0,69,70
 116 101 116 101 123.5 78.5 c 128,-1,71
 131 56 131 56 146 38.5 c 128,-1,72
 161 21 161 21 182.5 10.5 c 128,-1,73
 204 0 204 0 228 0 c 0,74,75
 262 0 262 0 295 13 c 128,-1,76
 328 26 328 26 356 52 c 1,63,64
EndSplineSet
EndChar
StartChar: quotesingle
Encoding: 39 39 8
Width: 156
Flags: W
Fore
182 449 m 0,0,1
 173 401 173 401 156.5 350.5 c 128,-1,2
 140 300 140 300 127 252 c 1,3,-1
 117 252 l 1,4,5
 120 300 120 300 122 351 c 128,-1,6
 124 402 124 402 132 450 c 0,7,8
 134 462 134 462 141 471.5 c 128,-1,9
 148 481 148 481 162 481 c 256,10,11
 176 481 176 481 180 470.5 c 128,-1,12
 184 460 184 460 182 449 c 0,0,1
EndSplineSet
EndChar
StartChar: parenleft
Encoding: 40 40 9
Width: 200
Flags: W
Fore
119 -146 m 1,0,1
 99 -110 99 -110 85 -73.5 c 128,-1,2
 71 -37 71 -37 63.5 1.5 c 128,-1,3
 56 40 56 40 55.5 81 c 128,-1,4
 55 122 55 122 63 168 c 0,5,6
 79 259 79 259 121.5 334.5 c 128,-1,7
 164 410 164 410 229 482 c 1,8,-1
 241 482 l 1,9,10
 210 440 210 440 189 403.5 c 128,-1,11
 168 367 168 367 153 331 c 128,-1,12
 138 295 138 295 128.5 255.5 c 128,-1,13
 119 216 119 216 110 168 c 0,14,15
 102 120 102 120 98 80.5 c 128,-1,16
 94 41 94 41 96 5 c 128,-1,17
 98 -31 98 -31 106 -67.5 c 128,-1,18
 114 -104 114 -104 131 -146 c 1,19,-1
 119 -146 l 1,0,1
EndSplineSet
EndChar
StartChar: parenright
Encoding: 41 41 10
Width: 200
Flags: W
Fore
186 168 m 0,0,1
 170 76 170 76 127.5 1.5 c 128,-1,2
 85 -73 85 -73 19 -146 c 1,3,-1
 8 -146 l 1,4,5
 39 -104 39 -104 60.5 -67.5 c 128,-1,6
 82 -31 82 -31 96.5 5 c 128,-1,7
 111 41 111 41 121 80.5 c 128,-1,8
 131 120 131 120 139 168 c 0,9,10
 148 216 148 216 152 255.5 c 128,-1,11
 156 295 156 295 154 331 c 128,-1,12
 152 367 152 367 143 403.5 c 128,-1,13
 134 440 134 440 118 482 c 1,14,-1
 129 482 l 1,15,16
 169 410 169 410 185.5 334 c 128,-1,17
 202 258 202 258 186 168 c 0,0,1
EndSplineSet
EndChar
StartChar: asterisk
Encoding: 42 42 11
Width: 334
Flags: W
Fore
236 334 m 1,0,-1
 309 250 l 1,1,-1
 259 217 l 1,2,-1
 224 326 l 1,3,-1
 151 217 l 1,4,-1
 113 250 l 1,5,-1
 214 334 l 1,6,-1
 102 351 l 1,7,-1
 128 402 l 1,8,-1
 220 349 l 1,9,-1
 220 467 l 1,10,-1
 275 467 l 1,11,-1
 234 348 l 1,12,-1
 347 402 l 1,13,-1
 354 351 l 1,14,-1
 236 334 l 1,0,-1
EndSplineSet
EndChar
StartChar: plus
Encoding: 43 43 12
Width: 442
Flags: W
Fore
269 171 m 1,0,-1
 239 0 l 1,1,-1
 203 0 l 1,2,-1
 233 171 l 1,3,-1
 65 171 l 1,4,-1
 71 208 l 1,5,-1
 239 208 l 1,6,-1
 269 379 l 1,7,-1
 305 379 l 1,8,-1
 275 208 l 1,9,-1
 443 208 l 1,10,-1
 437 171 l 1,11,-1
 269 171 l 1,0,-1
EndSplineSet
EndChar
StartChar: comma
Encoding: 44 44 13
Width: 240
Flags: W
Fore
157 12 m 0,0,1
 152 -17 152 -17 132 -45.5 c 128,-1,2
 112 -74 112 -74 85 -88 c 1,3,-1
 82 -84 l 1,4,5
 99 -71 99 -71 113.5 -51 c 128,-1,6
 128 -31 128 -31 130 -11 c 2,7,-1
 131 -2 l 1,8,9
 127 -3 127 -3 123.5 -4 c 128,-1,10
 120 -5 120 -5 116 -5 c 0,11,12
 102 -5 102 -5 94 4.5 c 128,-1,13
 86 14 86 14 88 28 c 0,14,15
 91 42 91 42 102.5 52 c 128,-1,16
 114 62 114 62 128 62 c 0,17,18
 150 62 150 62 155 45.5 c 128,-1,19
 160 29 160 29 157 12 c 0,0,1
EndSplineSet
EndChar
StartChar: hyphen
Encoding: 45 45 14
Width: 268
Flags: W
Fore
284 178 m 1,0,-1
 46 178 l 1,1,-1
 53 217 l 1,2,-1
 291 217 l 1,3,-1
 284 178 l 1,0,-1
EndSplineSet
EndChar
StartChar: period
Encoding: 46 46 15
Width: 240
Flags: W
Fore
159 27 m 0,0,1
 157 13 157 13 145 2 c 128,-1,2
 133 -9 133 -9 118 -9 c 0,3,4
 104 -9 104 -9 96 2 c 128,-1,5
 88 13 88 13 90 27 c 0,6,7
 93 41 93 41 104.5 51 c 128,-1,8
 116 61 116 61 130 61 c 256,9,10
 144 61 144 61 153 51 c 128,-1,11
 162 41 162 41 159 27 c 0,0,1
EndSplineSet
EndChar
StartChar: slash
Encoding: 47 47 16
Width: 207
Flags: W
Fore
23 -15 m 1,0,-1
 -10 -15 l 1,1,-1
 266 481 l 1,2,-1
 299 481 l 1,3,-1
 23 -15 l 1,0,-1
EndSplineSet
EndChar
StartChar: zero
Encoding: 48 48 17
Width: 442
Flags: W
Fore
461 228 m 0,0,1
 453 184 453 184 432 142 c 128,-1,2
 411 100 411 100 379.5 67 c 128,-1,3
 348 34 348 34 307.5 13.5 c 128,-1,4
 267 -7 267 -7 219 -7 c 256,5,6
 171 -7 171 -7 137.5 13.5 c 128,-1,7
 104 34 104 34 84.5 67 c 128,-1,8
 65 100 65 100 59 142 c 128,-1,9
 53 184 53 184 61 228 c 0,10,11
 68 271 68 271 89 313 c 128,-1,12
 110 355 110 355 141.5 388 c 128,-1,13
 173 421 173 421 213.5 441.5 c 128,-1,14
 254 462 254 462 302 462 c 256,15,16
 350 462 350 462 383.5 441.5 c 128,-1,17
 417 421 417 421 436.5 388 c 128,-1,18
 456 355 456 355 462 313 c 128,-1,19
 468 271 468 271 461 228 c 0,0,1
406 228 m 0,20,21
 412 263 412 263 412.5 300.5 c 128,-1,22
 413 338 413 338 402 368.5 c 128,-1,23
 391 399 391 399 366.5 418.5 c 128,-1,24
 342 438 342 438 298 438 c 256,25,26
 254 438 254 438 222.5 418.5 c 128,-1,27
 191 399 191 399 169 368.5 c 128,-1,28
 147 338 147 338 134.5 300.5 c 128,-1,29
 122 263 122 263 116 228 c 0,30,31
 110 192 110 192 109.5 155 c 128,-1,32
 109 118 109 118 119.5 87 c 128,-1,33
 130 56 130 56 154.5 36.5 c 128,-1,34
 179 17 179 17 223 17 c 256,35,36
 267 17 267 17 298.5 36.5 c 128,-1,37
 330 56 330 56 352 87 c 128,-1,38
 374 118 374 118 387 155 c 128,-1,39
 400 192 400 192 406 228 c 0,20,21
EndSplineSet
EndChar
StartChar: one
Encoding: 49 49 18
Width: 442
Flags: W
Fore
201 0 m 1,0,-1
 265 365 l 1,1,-1
 153 365 l 1,2,-1
 157 387 l 1,3,4
 183 387 183 387 204 389 c 128,-1,5
 225 391 225 391 242.5 398.5 c 128,-1,6
 260 406 260 406 276 420.5 c 128,-1,7
 292 435 292 435 307 461 c 1,8,-1
 335 461 l 1,9,-1
 254 0 l 1,10,-1
 201 0 l 1,0,-1
EndSplineSet
EndChar
StartChar: two
Encoding: 50 50 19
Width: 442
Flags: W
Fore
29 0 m 1,0,1
 43 44 43 44 74 74 c 128,-1,2
 105 104 105 104 144 126 c 128,-1,3
 183 148 183 148 225 166.5 c 128,-1,4
 267 185 267 185 303.5 205.5 c 128,-1,5
 340 226 340 226 366 252.5 c 128,-1,6
 392 279 392 279 399 318 c 0,7,8
 404 347 404 347 397 369 c 128,-1,9
 390 391 390 391 374 406 c 128,-1,10
 358 421 358 421 335.5 429 c 128,-1,11
 313 437 313 437 286 437 c 256,12,13
 259 437 259 437 232.5 428.5 c 128,-1,14
 206 420 206 420 184 404.5 c 128,-1,15
 162 389 162 389 146.5 366 c 128,-1,16
 131 343 131 343 126 315 c 1,17,-1
 73 315 l 1,18,19
 85 351 85 351 107 378 c 128,-1,20
 129 405 129 405 158.5 422.5 c 128,-1,21
 188 440 188 440 221.5 449 c 128,-1,22
 255 458 255 458 289 458 c 0,23,24
 322 458 322 458 353.5 450.5 c 128,-1,25
 385 443 385 443 409 426 c 128,-1,26
 433 409 433 409 445.5 382 c 128,-1,27
 458 355 458 355 451 317 c 0,28,29
 444 275 444 275 417.5 246 c 128,-1,30
 391 217 391 217 354.5 196.5 c 128,-1,31
 318 176 318 176 276.5 160.5 c 128,-1,32
 235 145 235 145 198 129.5 c 128,-1,33
 161 114 161 114 133.5 95 c 128,-1,34
 106 76 106 76 97 48 c 1,35,-1
 414 48 l 1,36,-1
 406 0 l 1,37,-1
 29 0 l 1,0,1
EndSplineSet
EndChar
StartChar: three
Encoding: 51 51 20
Width: 442
Flags: W
Fore
442 131 m 0,0,1
 435 92 435 92 410 65.5 c 128,-1,2
 385 39 385 39 351.5 23 c 128,-1,3
 318 7 318 7 281 0 c 128,-1,4
 244 -7 244 -7 212 -7 c 0,5,6
 178 -7 178 -7 147.5 1.5 c 128,-1,7
 117 10 117 10 94 27.5 c 128,-1,8
 71 45 71 45 58 71.5 c 128,-1,9
 45 98 45 98 46 134 c 1,10,-1
 99 134 l 1,11,12
 94 105 94 105 101.5 83 c 128,-1,13
 109 61 109 61 125.5 46 c 128,-1,14
 142 31 142 31 165.5 23 c 128,-1,15
 189 15 189 15 216 15 c 0,16,17
 242 15 242 15 270 22 c 128,-1,18
 298 29 298 29 323 43.5 c 128,-1,19
 348 58 348 58 366 80 c 128,-1,20
 384 102 384 102 389 132 c 0,21,22
 394 160 394 160 384 179 c 128,-1,23
 374 198 374 198 355 209.5 c 128,-1,24
 336 221 336 221 312 225.5 c 128,-1,25
 288 230 288 230 264 230 c 0,26,27
 250 230 250 230 235.5 228.5 c 128,-1,28
 221 227 221 227 206 225 c 1,29,-1
 211 254 l 1,30,31
 232 251 232 251 252 251 c 0,32,33
 274 251 274 251 298 256 c 128,-1,34
 322 261 322 261 343.5 272.5 c 128,-1,35
 365 284 365 284 381 302 c 128,-1,36
 397 320 397 320 402 346 c 0,37,38
 406 371 406 371 398 388.5 c 128,-1,39
 390 406 390 406 374 417 c 128,-1,40
 358 428 358 428 337 432.5 c 128,-1,41
 316 437 316 437 294 437 c 0,42,43
 244 437 244 437 209 410 c 128,-1,44
 174 383 174 383 162 332 c 1,45,-1
 109 332 l 1,46,47
 117 364 117 364 136.5 388 c 128,-1,48
 156 412 156 412 182 427.5 c 128,-1,49
 208 443 208 443 238 450.5 c 128,-1,50
 268 458 268 458 297 458 c 0,51,52
 324 458 324 458 354 453 c 128,-1,53
 384 448 384 448 408.5 435.5 c 128,-1,54
 433 423 433 423 447 401.5 c 128,-1,55
 461 380 461 380 455 346 c 0,56,57
 451 323 451 323 438 305.5 c 128,-1,58
 425 288 425 288 407 275.5 c 128,-1,59
 389 263 389 263 368 255 c 128,-1,60
 347 247 347 247 326 243 c 1,61,62
 350 241 350 241 373 233.5 c 128,-1,63
 396 226 396 226 413 212.5 c 128,-1,64
 430 199 430 199 438.5 179 c 128,-1,65
 447 159 447 159 442 131 c 0,0,1
EndSplineSet
EndChar
StartChar: four
Encoding: 52 52 21
Width: 442
Flags: W
Fore
415 111 m 1,0,-1
 325 111 l 1,1,-1
 306 0 l 1,2,-1
 254 0 l 1,3,-1
 273 111 l 1,4,-1
 32 111 l 1,5,-1
 24 125 l 1,6,-1
 381 461 l 1,7,-1
 387 461 l 1,8,-1
 331 144 l 1,9,-1
 434 144 l 1,10,-1
 415 111 l 1,0,-1
319 373 m 1,11,-1
 77 144 l 1,12,-1
 279 144 l 1,13,-1
 319 373 l 1,11,-1
EndSplineSet
EndChar
StartChar: five
Encoding: 53 53 22
Width: 442
Flags: W
Fore
443 134 m 0,0,1
 436 96 436 96 412 69 c 128,-1,2
 388 42 388 42 355 25 c 128,-1,3
 322 8 322 8 285.5 0.5 c 128,-1,4
 249 -7 249 -7 217 -7 c 0,5,6
 184 -7 184 -7 153 1.5 c 128,-1,7
 122 10 122 10 98.5 27.5 c 128,-1,8
 75 45 75 45 61.5 71.5 c 128,-1,9
 48 98 48 98 50 134 c 1,10,-1
 103 134 l 1,11,12
 98 105 98 105 105.5 82.5 c 128,-1,13
 113 60 113 60 129.5 45 c 128,-1,14
 146 30 146 30 169.5 22 c 128,-1,15
 193 14 193 14 220 14 c 0,16,17
 246 14 246 14 273.5 22.5 c 128,-1,18
 301 31 301 31 324.5 46.5 c 128,-1,19
 348 62 348 62 365 84.5 c 128,-1,20
 382 107 382 107 387 136 c 0,21,22
 393 168 393 168 384 191.5 c 128,-1,23
 375 215 375 215 355.5 230 c 128,-1,24
 336 245 336 245 309.5 252.5 c 128,-1,25
 283 260 283 260 255 260 c 0,26,27
 220 260 220 260 186.5 252 c 128,-1,28
 153 244 153 244 120 224 c 1,29,-1
 101 229 l 1,30,-1
 163 453 l 1,31,-1
 471 453 l 1,32,-1
 448 405 l 1,33,-1
 176 405 l 1,34,-1
 133 253 l 1,35,36
 162 271 162 271 200 278 c 128,-1,37
 238 285 238 285 269 285 c 0,38,39
 305 285 305 285 339.5 277 c 128,-1,40
 374 269 374 269 399.5 251.5 c 128,-1,41
 425 234 425 234 437.5 205 c 128,-1,42
 450 176 450 176 443 134 c 0,0,1
EndSplineSet
EndChar
StartChar: six
Encoding: 54 54 23
Width: 442
Flags: W
Fore
446 160 m 0,0,1
 439 119 439 119 417.5 88 c 128,-1,2
 396 57 396 57 365.5 36 c 128,-1,3
 335 15 335 15 298 4 c 128,-1,4
 261 -7 261 -7 224 -7 c 0,5,6
 177 -7 177 -7 142.5 11 c 128,-1,7
 108 29 108 29 87 59 c 128,-1,8
 66 89 66 89 58.5 129 c 128,-1,9
 51 169 51 169 59 213 c 0,10,11
 68 262 68 262 89 306.5 c 128,-1,12
 110 351 110 351 142 385 c 128,-1,13
 174 419 174 419 217.5 438.5 c 128,-1,14
 261 458 261 458 314 458 c 0,15,16
 339 458 339 458 368.5 452 c 128,-1,17
 398 446 398 446 422 433 c 128,-1,18
 446 420 446 420 460 398.5 c 128,-1,19
 474 377 474 377 469 346 c 1,20,-1
 416 346 l 1,21,22
 420 368 420 368 411 384.5 c 128,-1,23
 402 401 402 401 385.5 412 c 128,-1,24
 369 423 369 423 348.5 428 c 128,-1,25
 328 433 328 433 309 433 c 0,26,27
 271 433 271 433 239 416.5 c 128,-1,28
 207 400 207 400 183 373 c 128,-1,29
 159 346 159 346 143 312 c 128,-1,30
 127 278 127 278 121 244 c 2,31,32
 119 238 119 238 119 232 c 128,-1,33
 119 226 119 226 118 220 c 1,34,35
 131 244 131 244 151 261.5 c 128,-1,36
 171 279 171 279 194 291 c 128,-1,37
 217 303 217 303 242.5 309 c 128,-1,38
 268 315 268 315 292 315 c 0,39,40
 327 315 327 315 358 305 c 128,-1,41
 389 295 389 295 411 275.5 c 128,-1,42
 433 256 433 256 443 227 c 128,-1,43
 453 198 453 198 446 160 c 0,0,1
387 153 m 0,44,45
 392 181 392 181 386 205.5 c 128,-1,46
 380 230 380 230 365 248 c 128,-1,47
 350 266 350 266 327.5 276.5 c 128,-1,48
 305 287 305 287 277 287 c 256,49,50
 249 287 249 287 223 276.5 c 128,-1,51
 197 266 197 266 175 248 c 128,-1,52
 153 230 153 230 138 205.5 c 128,-1,53
 123 181 123 181 118 153 c 256,54,55
 113 125 113 125 119.5 100.5 c 128,-1,56
 126 76 126 76 141.5 57.5 c 128,-1,57
 157 39 157 39 179.5 28.5 c 128,-1,58
 202 18 202 18 230 18 c 0,59,60
 259 18 259 18 285.5 28 c 128,-1,61
 312 38 312 38 333 56 c 128,-1,62
 354 74 354 74 368 99 c 128,-1,63
 382 124 382 124 387 153 c 0,44,45
EndSplineSet
EndChar
StartChar: seven
Encoding: 55 55 24
Width: 442
Flags: W
Fore
499 453 m 1,0,1
 494 425 494 425 472 398 c 128,-1,2
 450 371 450 371 418.5 341 c 128,-1,3
 387 311 387 311 350.5 277.5 c 128,-1,4
 314 244 314 244 281 203 c 128,-1,5
 248 162 248 162 221.5 112 c 128,-1,6
 195 62 195 62 185 0 c 1,7,-1
 127 0 l 1,8,9
 137 56 137 56 162.5 102 c 128,-1,10
 188 148 188 148 220.5 186.5 c 128,-1,11
 253 225 253 225 289.5 256 c 128,-1,12
 326 287 326 287 356.5 313 c 128,-1,13
 387 339 387 339 408.5 361.5 c 128,-1,14
 430 384 430 384 434 405 c 1,15,-1
 102 405 l 1,16,-1
 125 453 l 1,17,-1
 499 453 l 1,18,-1
 499 453 l 1,0,1
EndSplineSet
EndChar
StartChar: eight
Encoding: 56 56 25
Width: 442
Flags: W
Fore
449 134 m 0,0,1
 442 95 442 95 417 68 c 128,-1,2
 392 41 392 41 358.5 24.5 c 128,-1,3
 325 8 325 8 287 0.5 c 128,-1,4
 249 -7 249 -7 217 -7 c 0,5,6
 186 -7 186 -7 151.5 -1 c 128,-1,7
 117 5 117 5 89.5 20 c 128,-1,8
 62 35 62 35 46.5 60.5 c 128,-1,9
 31 86 31 86 38 125 c 0,10,11
 42 151 42 151 57.5 172 c 128,-1,12
 73 193 73 193 94.5 208 c 128,-1,13
 116 223 116 223 141 232.5 c 128,-1,14
 166 242 166 242 190 246 c 1,15,16
 173 252 173 252 157 261.5 c 128,-1,17
 141 271 141 271 129 284 c 128,-1,18
 117 297 117 297 111.5 314 c 128,-1,19
 106 331 106 331 110 353 c 0,20,21
 116 384 116 384 138 405.5 c 128,-1,22
 160 427 160 427 189.5 439.5 c 128,-1,23
 219 452 219 452 250.5 457.5 c 128,-1,24
 282 463 282 463 307 463 c 0,25,26
 329 463 329 463 357.5 458.5 c 128,-1,27
 386 454 386 454 410.5 442.5 c 128,-1,28
 435 431 435 431 450 412 c 128,-1,29
 465 393 465 393 460 364 c 0,30,31
 456 342 456 342 440 324.5 c 128,-1,32
 424 307 424 307 403 293.5 c 128,-1,33
 382 280 382 280 359 272 c 128,-1,34
 336 264 336 264 317 261 c 1,35,36
 340 255 340 255 365.5 245.5 c 128,-1,37
 391 236 391 236 411 221.5 c 128,-1,38
 431 207 431 207 442.5 185.5 c 128,-1,39
 454 164 454 164 449 134 c 0,0,1
407 361 m 0,40,41
 411 383 411 383 402 398.5 c 128,-1,42
 393 414 393 414 376.5 423.5 c 128,-1,43
 360 433 360 433 340 437 c 128,-1,44
 320 441 320 441 302 441 c 0,45,46
 285 441 285 441 262.5 437.5 c 128,-1,47
 240 434 240 434 219 425 c 128,-1,48
 198 416 198 416 182 401.5 c 128,-1,49
 166 387 166 387 162 365 c 0,50,51
 158 342 158 342 171.5 326.5 c 128,-1,52
 185 311 185 311 206 301 c 128,-1,53
 227 291 227 291 250.5 285 c 128,-1,54
 274 279 274 279 290 275 c 1,55,56
 306 279 306 279 325 286 c 128,-1,57
 344 293 344 293 361 303 c 128,-1,58
 378 313 378 313 391 327 c 128,-1,59
 404 341 404 341 407 361 c 0,40,41
395 130 m 0,60,61
 399 149 399 149 379.5 168 c 128,-1,62
 360 187 360 187 332.5 201 c 128,-1,63
 305 215 305 215 275.5 224 c 128,-1,64
 246 233 246 233 230 233 c 0,65,66
 211 233 211 233 189.5 225 c 128,-1,67
 168 217 168 217 148.5 203.5 c 128,-1,68
 129 190 129 190 115 172 c 128,-1,69
 101 154 101 154 98 134 c 0,70,71
 93 106 93 106 102.5 84.5 c 128,-1,72
 112 63 112 63 130 48 c 128,-1,73
 148 33 148 33 172.5 25.5 c 128,-1,74
 197 18 197 18 222 18 c 0,75,76
 246 18 246 18 274 24.5 c 128,-1,77
 302 31 302 31 327.5 45 c 128,-1,78
 353 59 353 59 371.5 80 c 128,-1,79
 390 101 390 101 395 130 c 0,60,61
EndSplineSet
EndChar
StartChar: nine
Encoding: 57 57 26
Width: 442
Flags: W
Fore
461 238 m 0,0,1
 452 188 452 188 431 144 c 128,-1,2
 410 100 410 100 378 66 c 128,-1,3
 346 32 346 32 302.5 12.5 c 128,-1,4
 259 -7 259 -7 206 -7 c 0,5,6
 181 -7 181 -7 152 -1 c 128,-1,7
 123 5 123 5 99 18.5 c 128,-1,8
 75 32 75 32 61 53.5 c 128,-1,9
 47 75 47 75 52 106 c 1,10,-1
 105 106 l 1,11,12
 101 83 101 83 110 66.5 c 128,-1,13
 119 50 119 50 135.5 39 c 128,-1,14
 152 28 152 28 172.5 23 c 128,-1,15
 193 18 193 18 212 18 c 0,16,17
 250 18 250 18 282 34.5 c 128,-1,18
 314 51 314 51 338 78 c 128,-1,19
 362 105 362 105 378 139 c 128,-1,20
 394 173 394 173 400 208 c 2,21,22
 402 214 402 214 402 219.5 c 128,-1,23
 402 225 402 225 402 231 c 1,24,25
 388 207 388 207 368.5 189.5 c 128,-1,26
 349 172 349 172 326 160 c 128,-1,27
 303 148 303 148 277.5 142 c 128,-1,28
 252 136 252 136 228 136 c 0,29,30
 193 136 193 136 162 146 c 128,-1,31
 131 156 131 156 109.5 175.5 c 128,-1,32
 88 195 88 195 78 224 c 128,-1,33
 68 253 68 253 75 291 c 0,34,35
 82 332 82 332 103.5 363 c 128,-1,36
 125 394 125 394 155 415 c 128,-1,37
 185 436 185 436 221.5 447 c 128,-1,38
 258 458 258 458 296 458 c 0,39,40
 343 458 343 458 377.5 440.5 c 128,-1,41
 412 423 412 423 433 393 c 128,-1,42
 454 363 454 363 461.5 323 c 128,-1,43
 469 283 469 283 461 238 c 0,0,1
402 299 m 0,44,45
 407 326 407 326 400.5 350.5 c 128,-1,46
 394 375 394 375 379 393.5 c 128,-1,47
 364 412 364 412 341.5 422.5 c 128,-1,48
 319 433 319 433 291 433 c 0,49,50
 262 433 262 433 235.5 423 c 128,-1,51
 209 413 209 413 188 395 c 128,-1,52
 167 377 167 377 152.5 352.5 c 128,-1,53
 138 328 138 328 133 299 c 0,54,55
 128 271 128 271 134 246.5 c 128,-1,56
 140 222 140 222 155 203.5 c 128,-1,57
 170 185 170 185 192.5 174.5 c 128,-1,58
 215 164 215 164 243 164 c 256,59,60
 271 164 271 164 297.5 174.5 c 128,-1,61
 324 185 324 185 345.5 203.5 c 128,-1,62
 367 222 367 222 382 246.5 c 128,-1,63
 397 271 397 271 402 299 c 0,44,45
EndSplineSet
EndChar
StartChar: colon
Encoding: 58 58 27
Width: 240
Flags: W
Fore
207 299 m 0,0,1
 205 285 205 285 192.5 274.5 c 128,-1,2
 180 264 180 264 166 264 c 256,3,4
 152 264 152 264 144 274.5 c 128,-1,5
 136 285 136 285 138 299 c 0,6,7
 141 313 141 313 152.5 323.5 c 128,-1,8
 164 334 164 334 178 334 c 256,9,10
 192 334 192 334 201 323.5 c 128,-1,11
 210 313 210 313 207 299 c 0,0,1
159 27 m 0,12,13
 157 13 157 13 145 2 c 128,-1,14
 133 -9 133 -9 118 -9 c 0,15,16
 104 -9 104 -9 96 2 c 128,-1,17
 88 13 88 13 90 27 c 0,18,19
 93 41 93 41 104.5 51 c 128,-1,20
 116 61 116 61 130 61 c 256,21,22
 144 61 144 61 153 51 c 128,-1,23
 162 41 162 41 159 27 c 0,12,13
EndSplineSet
EndChar
StartChar: semicolon
Encoding: 59 59 28
Width: 240
Flags: W
Fore
207 299 m 0,0,1
 205 285 205 285 192.5 274.5 c 128,-1,2
 180 264 180 264 166 264 c 256,3,4
 152 264 152 264 144 274.5 c 128,-1,5
 136 285 136 285 138 299 c 0,6,7
 141 313 141 313 152.5 323.5 c 128,-1,8
 164 334 164 334 178 334 c 256,9,10
 192 334 192 334 201 323.5 c 128,-1,11
 210 313 210 313 207 299 c 0,0,1
157 12 m 0,12,13
 152 -17 152 -17 132 -45.5 c 128,-1,14
 112 -74 112 -74 85 -88 c 1,15,-1
 82 -84 l 1,16,17
 99 -71 99 -71 113.5 -51 c 128,-1,18
 128 -31 128 -31 130 -11 c 2,19,-1
 131 -2 l 1,20,21
 127 -3 127 -3 123.5 -4 c 128,-1,22
 120 -5 120 -5 116 -5 c 0,23,24
 102 -5 102 -5 94 4.5 c 128,-1,25
 86 14 86 14 88 28 c 0,26,27
 91 42 91 42 102.5 52 c 128,-1,28
 114 62 114 62 128 62 c 0,29,30
 150 62 150 62 155 45.5 c 128,-1,31
 160 29 160 29 157 12 c 0,12,13
EndSplineSet
EndChar
StartChar: less
Encoding: 60 60 29
Width: 442
Flags: W
Fore
69 171 m 1,0,-1
 75 209 l 1,1,-1
 469 379 l 1,2,-1
 462 339 l 1,3,-1
 114 190 l 1,4,-1
 410 41 l 1,5,-1
 403 1 l 1,6,-1
 69 171 l 1,0,-1
EndSplineSet
EndChar
StartChar: equal
Encoding: 61 61 30
Width: 442
Flags: W
Fore
78 248 m 1,0,-1
 85 285 l 1,1,-1
 457 285 l 1,2,-1
 450 248 l 1,3,-1
 78 248 l 1,0,-1
52 100 m 1,4,-1
 59 137 l 1,5,-1
 431 137 l 1,6,-1
 424 100 l 1,7,-1
 52 100 l 1,4,-1
EndSplineSet
EndChar
StartChar: greater
Encoding: 62 62 31
Width: 442
Flags: W
Fore
39 1 m 1,0,-1
 46 41 l 1,1,-1
 394 190 l 1,2,-1
 98 339 l 1,3,-1
 105 379 l 1,4,-1
 439 209 l 1,5,-1
 433 171 l 1,6,-1
 39 1 l 1,0,-1
EndSplineSet
EndChar
StartChar: question
Encoding: 63 63 32
Width: 369
Flags: W
Fore
394 350 m 0,0,1
 389 323 389 323 373.5 303.5 c 128,-1,2
 358 284 358 284 337 267.5 c 128,-1,3
 316 251 316 251 292.5 235 c 128,-1,4
 269 219 269 219 247.5 198.5 c 128,-1,5
 226 178 226 178 209.5 150.5 c 128,-1,6
 193 123 193 123 187 84 c 1,7,-1
 175 84 l 1,8,9
 176 95 176 95 177 105 c 128,-1,10
 178 115 178 115 180 125 c 0,11,12
 189 176 189 176 211 206 c 128,-1,13
 233 236 233 236 257 258 c 128,-1,14
 281 280 281 280 301.5 300.5 c 128,-1,15
 322 321 322 321 328 352 c 0,16,17
 332 375 332 375 331 395 c 128,-1,18
 330 415 330 415 322.5 429.5 c 128,-1,19
 315 444 315 444 299 452.5 c 128,-1,20
 283 461 283 461 258 461 c 0,21,22
 229 461 229 461 208.5 450 c 128,-1,23
 188 439 188 439 173.5 421 c 128,-1,24
 159 403 159 403 150.5 379.5 c 128,-1,25
 142 356 142 356 138 332 c 1,26,-1
 85 332 l 1,27,28
 91 366 91 366 107 394 c 128,-1,29
 123 422 123 422 146 441 c 128,-1,30
 169 460 169 460 199 470.5 c 128,-1,31
 229 481 229 481 263 481 c 0,32,33
 293 481 293 481 319 473 c 128,-1,34
 345 465 345 465 364 448.5 c 128,-1,35
 383 432 383 432 391.5 407.5 c 128,-1,36
 400 383 400 383 394 350 c 0,0,1
205 25 m 256,37,38
 203 11 203 11 191 1 c 128,-1,39
 179 -9 179 -9 165 -9 c 256,40,41
 151 -9 151 -9 143.5 1 c 128,-1,42
 136 11 136 11 138 25 c 256,43,44
 140 39 140 39 151.5 49 c 128,-1,45
 163 59 163 59 177 59 c 256,46,47
 191 59 191 59 199 49 c 128,-1,48
 207 39 207 39 205 25 c 256,37,38
EndSplineSet
EndChar
StartChar: at
Encoding: 64 64 33
Width: 586
Flags: W
Fore
590 270 m 0,0,1
 585 243 585 243 570 212.5 c 128,-1,2
 555 182 555 182 533 157 c 128,-1,3
 511 132 511 132 483.5 115.5 c 128,-1,4
 456 99 456 99 425 99 c 0,5,6
 374 99 374 99 372 151 c 1,7,8
 348 127 348 127 326 113.5 c 128,-1,9
 304 100 304 100 272 100 c 0,10,11
 254 100 254 100 243 108 c 128,-1,12
 232 116 232 116 227 128.5 c 128,-1,13
 222 141 222 141 221 156.5 c 128,-1,14
 220 172 220 172 223 187 c 0,15,16
 228 215 228 215 242.5 245 c 128,-1,17
 257 275 257 275 279 300.5 c 128,-1,18
 301 326 301 326 328.5 342.5 c 128,-1,19
 356 359 356 359 388 359 c 0,20,21
 406 359 406 359 420 349.5 c 128,-1,22
 434 340 434 340 441 324 c 1,23,-1
 466 351 l 1,24,-1
 502 351 l 1,25,26
 494 333 494 333 481.5 306.5 c 128,-1,27
 469 280 469 280 456 252.5 c 128,-1,28
 443 225 443 225 433 199 c 128,-1,29
 423 173 423 173 420 156 c 0,30,31
 419 152 419 152 419 148 c 128,-1,32
 419 140 l 1,33,-1
 424 127 l 1,34,-1
 437 122 l 1,35,36
 462 122 462 122 483.5 137 c 128,-1,37
 505 152 505 152 522 174.5 c 128,-1,38
 539 197 539 197 550 222 c 128,-1,39
 561 247 561 247 565 268 c 0,40,41
 572 311 572 311 561.5 347 c 128,-1,42
 551 383 551 383 526 409 c 128,-1,43
 501 435 501 435 465.5 449.5 c 128,-1,44
 430 464 430 464 388 464 c 0,45,46
 338 464 338 464 296 444 c 128,-1,47
 254 424 254 424 221.5 390.5 c 128,-1,48
 189 357 189 357 167.5 314 c 128,-1,49
 146 271 146 271 138 225 c 0,50,51
 130 178 130 178 139 139 c 128,-1,52
 148 100 148 100 171.5 71.5 c 128,-1,53
 195 43 195 43 231.5 27.5 c 128,-1,54
 268 12 268 12 315 12 c 0,55,56
 352 12 352 12 389.5 19 c 128,-1,57
 427 26 427 26 462 44 c 1,58,-1
 470 27 l 1,59,60
 432 7 432 7 392.5 -3.5 c 128,-1,61
 353 -14 353 -14 313 -14 c 0,62,63
 261 -14 261 -14 215 2 c 128,-1,64
 169 18 169 18 136 48.5 c 128,-1,65
 103 79 103 79 87.5 123 c 128,-1,66
 72 167 72 167 82 223 c 0,67,68
 92 278 92 278 121 325.5 c 128,-1,69
 150 373 150 373 191.5 407.5 c 128,-1,70
 233 442 233 442 284.5 461.5 c 128,-1,71
 336 481 336 481 391 481 c 0,72,73
 438 481 438 481 478 466.5 c 128,-1,74
 518 452 518 452 546 425 c 128,-1,75
 574 398 574 398 586.5 358.5 c 128,-1,76
 599 319 599 319 590 270 c 0,0,1
422 279 m 0,77,78
 423 287 423 287 422.5 296.5 c 128,-1,79
 422 306 422 306 418.5 314 c 128,-1,80
 415 322 415 322 409 327.5 c 128,-1,81
 403 333 403 333 394 333 c 0,82,83
 367 333 367 333 345.5 319 c 128,-1,84
 324 305 324 305 309 283.5 c 128,-1,85
 294 262 294 262 285 236.5 c 128,-1,86
 276 211 276 211 272 189 c 0,87,88
 268 166 268 166 274 147.5 c 128,-1,89
 280 129 280 129 306 129 c 0,90,91
 327 129 327 129 346.5 146 c 128,-1,92
 366 163 366 163 382 187 c 128,-1,93
 398 211 398 211 408.5 236.5 c 128,-1,94
 419 262 419 262 422 279 c 0,77,78
EndSplineSet
EndChar
StartChar: A
Encoding: 65 65 34
Width: 524
Flags: W
Fore
461 0 m 1,0,-1
 377 239 l 1,1,-1
 201 239 l 1,2,-1
 32 0 l 1,3,-1
 0 0 l 1,4,-1
 348 482 l 1,5,-1
 359 482 l 1,6,-1
 524 0 l 1,7,-1
 461 0 l 1,0,-1
323 409 m 1,8,-1
 219 263 l 1,9,-1
 370 263 l 1,10,-1
 323 409 l 1,8,-1
EndSplineSet
EndChar
StartChar: B
Encoding: 66 66 35
Width: 535
Flags: W
Fore
532 128 m 0,0,1
 524 85 524 85 495 60 c 128,-1,2
 466 35 466 35 427 21.5 c 128,-1,3
 388 8 388 8 346.5 4 c 128,-1,4
 305 0 305 0 273 0 c 2,5,-1
 50 0 l 1,6,-1
 132 467 l 1,7,-1
 365 467 l 2,8,9
 391 467 391 467 422 463 c 128,-1,10
 453 459 453 459 478.5 447.5 c 128,-1,11
 504 436 504 436 519 415 c 128,-1,12
 534 394 534 394 528 360 c 0,13,14
 523 333 523 333 504 313 c 128,-1,15
 485 293 485 293 459.5 280 c 128,-1,16
 434 267 434 267 406 260 c 128,-1,17
 378 253 378 253 356 252 c 1,18,19
 384 250 384 250 417.5 244 c 128,-1,20
 451 238 451 238 479 224.5 c 128,-1,21
 507 211 507 211 523 188 c 128,-1,22
 539 165 539 165 532 128 c 0,0,1
469 355 m 0,23,24
 475 386 475 386 461.5 403.5 c 128,-1,25
 448 421 448 421 425.5 429.5 c 128,-1,26
 403 438 403 438 375.5 440 c 128,-1,27
 348 442 348 442 325 442 c 2,28,-1
 181 442 l 1,29,-1
 150 263 l 1,30,-1
 297 263 l 2,31,32
 319 263 319 263 346.5 266.5 c 128,-1,33
 374 270 374 270 399.5 280.5 c 128,-1,34
 425 291 425 291 444.5 308.5 c 128,-1,35
 464 326 464 326 469 355 c 0,23,24
468 124 m 0,36,37
 475 163 475 163 459.5 185.5 c 128,-1,38
 444 208 444 208 416.5 220 c 128,-1,39
 389 232 389 232 355.5 235 c 128,-1,40
 322 238 322 238 292 238 c 2,41,-1
 145 238 l 1,42,-1
 108 24 l 1,43,-1
 308 24 l 2,44,45
 331 24 331 24 357 29 c 128,-1,46
 383 34 383 34 406 46 c 128,-1,47
 429 58 429 58 446 77 c 128,-1,48
 463 96 463 96 468 124 c 0,36,37
EndSplineSet
EndChar
StartChar: C
Encoding: 67 67 36
Width: 562
Flags: W
Fore
560 134 m 1,0,1
 518 59 518 59 448 22 c 128,-1,2
 378 -15 378 -15 299 -15 c 0,3,4
 247 -15 247 -15 200 2 c 128,-1,5
 153 19 153 19 120 51 c 128,-1,6
 87 83 87 83 71 128 c 128,-1,7
 55 173 55 173 65 229 c 0,8,9
 75 288 75 288 106 335 c 128,-1,10
 137 382 137 382 181 414.5 c 128,-1,11
 225 447 225 447 278 464.5 c 128,-1,12
 331 482 331 482 387 482 c 0,13,14
 465 482 465 482 522 444.5 c 128,-1,15
 579 407 579 407 595 332 c 1,16,-1
 526 332 l 1,17,18
 519 390 519 390 481.5 424.5 c 128,-1,19
 444 459 444 459 382 459 c 0,20,21
 334 459 334 459 292 442 c 128,-1,22
 250 425 250 425 216.5 395 c 128,-1,23
 183 365 183 365 160.5 324.5 c 128,-1,24
 138 284 138 284 130 237 c 0,25,26
 122 191 122 191 130 149 c 128,-1,27
 138 107 138 107 160.5 75.5 c 128,-1,28
 183 44 183 44 219 25.5 c 128,-1,29
 255 7 255 7 303 7 c 0,30,31
 365 7 365 7 414.5 41.5 c 128,-1,32
 464 76 464 76 491 134 c 1,33,-1
 560 134 l 1,34,-1
 560 134 l 1,0,1
EndSplineSet
EndChar
StartChar: D
Encoding: 68 68 37
Width: 557
Flags: W
Fore
575 248 m 0,0,1
 562 174 562 174 529 126.5 c 128,-1,2
 496 79 496 79 448.5 50.5 c 128,-1,3
 401 22 401 22 342.5 11 c 128,-1,4
 284 0 284 0 220 0 c 2,5,-1
 50 0 l 1,6,-1
 132 467 l 1,7,-1
 298 467 l 2,8,9
 353 467 353 467 407.5 458 c 128,-1,10
 462 449 462 449 503 424.5 c 128,-1,11
 544 400 544 400 565.5 357.5 c 128,-1,12
 587 315 587 315 575 248 c 0,0,1
509 248 m 0,13,14
 519 304 519 304 507.5 341 c 128,-1,15
 496 378 496 378 468 400.5 c 128,-1,16
 440 423 440 423 398 432.5 c 128,-1,17
 356 442 356 442 307 442 c 2,18,-1
 181 442 l 1,19,-1
 108 24 l 1,20,-1
 234 24 l 2,21,22
 293 24 293 24 339 36 c 128,-1,23
 385 48 385 48 419.5 74.5 c 128,-1,24
 454 101 454 101 476 143.5 c 128,-1,25
 498 186 498 186 509 248 c 0,13,14
EndSplineSet
EndChar
StartChar: E
Encoding: 69 69 38
Width: 451
Flags: W
Fore
50 0 m 1,0,-1
 132 467 l 1,1,-1
 523 467 l 1,2,-1
 518 442 l 1,3,-1
 181 442 l 1,4,-1
 150 263 l 1,5,-1
 415 263 l 1,6,-1
 411 239 l 1,7,-1
 146 239 l 1,8,-1
 108 24 l 1,9,-1
 445 24 l 1,10,-1
 441 0 l 1,11,-1
 50 0 l 1,0,-1
EndSplineSet
EndChar
StartChar: F
Encoding: 70 70 39
Width: 451
Flags: W
Fore
181 442 m 1,0,-1
 150 263 l 1,1,-1
 415 263 l 1,2,-1
 411 239 l 1,3,-1
 146 239 l 1,4,-1
 104 0 l 1,5,-1
 50 0 l 1,6,-1
 132 467 l 1,7,-1
 523 467 l 1,8,-1
 518 442 l 1,9,-1
 181 442 l 1,0,-1
EndSplineSet
EndChar
StartChar: G
Encoding: 71 71 40
Width: 562
Flags: W
Fore
526 332 m 1,0,1
 522 394 522 394 480 426.5 c 128,-1,2
 438 459 438 459 377 459 c 0,3,4
 330 459 330 459 289 441.5 c 128,-1,5
 248 424 248 424 216 394 c 128,-1,6
 184 364 184 364 162.5 324 c 128,-1,7
 141 284 141 284 133 239 c 256,8,9
 125 194 125 194 131 152.5 c 128,-1,10
 137 111 137 111 157.5 79 c 128,-1,11
 178 47 178 47 212.5 27.5 c 128,-1,12
 247 8 247 8 295 8 c 0,13,14
 317 8 317 8 342.5 12.5 c 128,-1,15
 368 17 368 17 393 25.5 c 128,-1,16
 418 34 418 34 441 47 c 128,-1,17
 464 60 464 60 483 77 c 1,18,-1
 507 214 l 1,19,-1
 340 214 l 1,20,-1
 345 239 l 1,21,-1
 565 239 l 1,22,-1
 534 66 l 1,23,24
 483 21 483 21 417.5 3 c 128,-1,25
 352 -15 352 -15 291 -15 c 0,26,27
 240 -15 240 -15 195 3 c 128,-1,28
 150 21 150 21 118 53.5 c 128,-1,29
 86 86 86 86 71 130.5 c 128,-1,30
 56 175 56 175 65 229 c 0,31,32
 75 286 75 286 105 332.5 c 128,-1,33
 135 379 135 379 178 412.5 c 128,-1,34
 221 446 221 446 273.5 464 c 128,-1,35
 326 482 326 482 381 482 c 0,36,37
 464 482 464 482 521 447 c 128,-1,38
 578 412 578 412 595 332 c 1,39,-1
 526 332 l 1,0,1
EndSplineSet
EndChar
StartChar: H
Encoding: 72 72 41
Width: 547
Flags: W
Fore
444 0 m 1,0,-1
 486 239 l 1,1,-1
 146 239 l 1,2,-1
 104 0 l 1,3,-1
 50 0 l 1,4,-1
 132 467 l 1,5,-1
 186 467 l 1,6,-1
 150 263 l 1,7,-1
 490 263 l 1,8,-1
 526 467 l 1,9,-1
 579 467 l 1,10,-1
 497 0 l 1,11,-1
 444 0 l 1,0,-1
EndSplineSet
EndChar
StartChar: I
Encoding: 73 73 42
Width: 154
Flags: W
Fore
50 0 m 1,0,-1
 132 467 l 1,1,-1
 186 467 l 1,2,-1
 104 0 l 1,3,-1
 50 0 l 1,0,-1
EndSplineSet
EndChar
StartChar: J
Encoding: 74 74 43
Width: 347
Flags: W
Fore
322 142 m 1,0,1
 316 109 316 109 301 79.5 c 128,-1,2
 286 50 286 50 263 28 c 128,-1,3
 240 6 240 6 210 -7 c 128,-1,4
 180 -20 180 -20 145 -20 c 0,5,6
 120 -20 120 -20 95 -13.5 c 128,-1,7
 70 -7 70 -7 50.5 6 c 128,-1,8
 31 19 31 19 19.5 39.5 c 128,-1,9
 8 60 8 60 11 89 c 1,10,-1
 69 89 l 1,11,12
 64 49 64 49 85 25.5 c 128,-1,13
 106 2 106 2 146 2 c 0,14,15
 173 2 173 2 193 13.5 c 128,-1,16
 213 25 213 25 227.5 43 c 128,-1,17
 242 61 242 61 251 84 c 128,-1,18
 260 107 260 107 264 130 c 2,19,-1
 324 467 l 1,20,-1
 379 467 l 1,21,-1
 322 142 l 1,22,-1
 322 142 l 1,0,1
EndSplineSet
EndChar
StartChar: K
Encoding: 75 75 44
Width: 490
Flags: W
Fore
415 0 m 1,0,-1
 268 294 l 1,1,-1
 139 202 l 1,2,-1
 104 0 l 1,3,-1
 50 0 l 1,4,-1
 132 467 l 1,5,-1
 186 467 l 1,6,-1
 146 239 l 1,7,-1
 463 467 l 1,8,-1
 510 467 l 1,9,-1
 314 327 l 1,10,-1
 480 0 l 1,11,-1
 415 0 l 1,0,-1
EndSplineSet
EndChar
StartChar: L
Encoding: 76 76 45
Width: 399
Flags: W
Fore
50 0 m 1,0,-1
 132 467 l 1,1,-1
 186 467 l 1,2,-1
 108 24 l 1,3,-1
 398 24 l 1,4,-1
 394 0 l 1,5,-1
 50 0 l 1,0,-1
EndSplineSet
EndChar
StartChar: M
Encoding: 77 77 46
Width: 616
Flags: W
Fore
512 0 m 1,0,-1
 587 427 l 1,1,-1
 293 -9 l 1,2,-1
 285 -9 l 1,3,-1
 153 414 l 1,4,-1
 81 0 l 1,5,-1
 50 0 l 1,6,-1
 132 467 l 1,7,-1
 201 467 l 1,8,-1
 321 76 l 1,9,-1
 585 467 l 1,10,-1
 648 467 l 1,11,-1
 566 0 l 1,12,-1
 512 0 l 1,0,-1
EndSplineSet
EndChar
StartChar: N
Encoding: 78 78 47
Width: 534
Flags: W
Fore
474 -14 m 1,0,-1
 154 419 l 1,1,-1
 81 0 l 1,2,-1
 50 0 l 1,3,-1
 132 467 l 1,4,-1
 192 467 l 1,5,-1
 469 91 l 1,6,-1
 535 467 l 1,7,-1
 566 467 l 1,8,-1
 481 -14 l 1,9,-1
 474 -14 l 1,0,-1
EndSplineSet
EndChar
StartChar: O
Encoding: 79 79 48
Width: 595
Flags: W
Fore
611 233 m 0,0,1
 601 177 601 177 570 131 c 128,-1,2
 539 85 539 85 495.5 52 c 128,-1,3
 452 19 452 19 399.5 1 c 128,-1,4
 347 -17 347 -17 294 -17 c 256,5,6
 241 -17 241 -17 195 1 c 128,-1,7
 149 19 149 19 117 52 c 128,-1,8
 85 85 85 85 70 131 c 128,-1,9
 55 177 55 177 65 232 c 256,10,11
 75 287 75 287 106 333 c 128,-1,12
 137 379 137 379 181 412 c 128,-1,13
 225 445 225 445 277.5 463.5 c 128,-1,14
 330 482 330 482 382 482 c 256,15,16
 434 482 434 482 480 464 c 128,-1,17
 526 446 526 446 558.5 413 c 128,-1,18
 591 380 591 380 606 334 c 128,-1,19
 621 288 621 288 611 233 c 0,0,1
544 233 m 0,20,21
 552 279 552 279 545.5 321 c 128,-1,22
 539 363 539 363 518.5 394.5 c 128,-1,23
 498 426 498 426 463 444.5 c 128,-1,24
 428 463 428 463 379 463 c 0,25,26
 329 463 329 463 287.5 444.5 c 128,-1,27
 246 426 246 426 214 394.5 c 128,-1,28
 182 363 182 363 160.5 321 c 128,-1,29
 139 279 139 279 131 232 c 256,30,31
 123 185 123 185 129.5 143.5 c 128,-1,32
 136 102 136 102 156.5 70.5 c 128,-1,33
 177 39 177 39 212 20.5 c 128,-1,34
 247 2 247 2 297 2 c 0,35,36
 346 2 346 2 388 20.5 c 128,-1,37
 430 39 430 39 462 71 c 128,-1,38
 494 103 494 103 515 144.5 c 128,-1,39
 536 186 536 186 544 233 c 0,20,21
EndSplineSet
EndChar
StartChar: P
Encoding: 80 80 49
Width: 495
Flags: W
Fore
530 344 m 0,0,1
 523 305 523 305 498.5 280.5 c 128,-1,2
 474 256 474 256 439 241.5 c 128,-1,3
 404 227 404 227 362 220.5 c 128,-1,4
 320 214 320 214 279 212.5 c 128,-1,5
 238 211 238 211 201.5 212 c 128,-1,6
 165 213 165 213 141 213 c 1,7,-1
 104 0 l 1,8,-1
 50 0 l 1,9,-1
 132 467 l 1,10,-1
 283 467 l 2,11,12
 305 467 305 467 333 466.5 c 128,-1,13
 361 466 361 466 390 462.5 c 128,-1,14
 419 459 419 459 447 451.5 c 128,-1,15
 475 444 475 444 495 430 c 128,-1,16
 515 416 515 416 525 395 c 128,-1,17
 535 374 535 374 530 344 c 0,0,1
468 345 m 0,18,19
 474 379 474 379 454 398.5 c 128,-1,20
 434 418 434 418 403 427.5 c 128,-1,21
 372 437 372 437 337.5 439.5 c 128,-1,22
 303 442 303 442 279 442 c 2,23,-1
 181 442 l 1,24,-1
 146 239 l 1,25,-1
 242 239 l 2,26,27
 270 239 270 239 306.5 241 c 128,-1,28
 343 243 343 243 376.5 253 c 128,-1,29
 410 263 410 263 435.5 284.5 c 128,-1,30
 461 306 461 306 468 345 c 0,18,19
EndSplineSet
EndChar
StartChar: Q
Encoding: 81 81 50
Width: 595
Flags: W
Fore
611 233 m 0,0,1
 602 185 602 185 576.5 143.5 c 128,-1,2
 551 102 551 102 514 70 c 128,-1,3
 477 38 477 38 432 16 c 128,-1,4
 387 -6 387 -6 340 -14 c 1,5,6
 339 -47 339 -47 352 -70 c 128,-1,7
 365 -93 365 -93 386.5 -107 c 128,-1,8
 408 -121 408 -121 435.5 -125.5 c 128,-1,9
 463 -130 463 -130 492 -125 c 1,10,-1
 482 -147 l 1,11,12
 443 -159 443 -159 404.5 -153.5 c 128,-1,13
 366 -148 366 -148 335.5 -129 c 128,-1,14
 305 -110 305 -110 285.5 -81 c 128,-1,15
 266 -52 266 -52 265 -16 c 1,16,17
 218 -11 218 -11 177.5 10 c 128,-1,18
 137 31 137 31 109 63.5 c 128,-1,19
 81 96 81 96 68.5 139 c 128,-1,20
 56 182 56 182 65 232 c 0,21,22
 75 287 75 287 106 333 c 128,-1,23
 137 379 137 379 181 412 c 128,-1,24
 225 445 225 445 277 463.5 c 128,-1,25
 329 482 329 482 382 482 c 0,26,27
 434 482 434 482 480 464 c 128,-1,28
 526 446 526 446 558.5 413 c 128,-1,29
 591 380 591 380 606 334 c 128,-1,30
 621 288 621 288 611 233 c 0,0,1
544 233 m 0,31,32
 552 279 552 279 545.5 321 c 128,-1,33
 539 363 539 363 518.5 394.5 c 128,-1,34
 498 426 498 426 463 444.5 c 128,-1,35
 428 463 428 463 379 463 c 0,36,37
 329 463 329 463 287.5 444.5 c 128,-1,38
 246 426 246 426 214 394.5 c 128,-1,39
 182 363 182 363 160.5 321 c 128,-1,40
 139 279 139 279 131 232 c 256,41,42
 123 185 123 185 129.5 143.5 c 128,-1,43
 136 102 136 102 156.5 70.5 c 128,-1,44
 177 39 177 39 212 20.5 c 128,-1,45
 247 2 247 2 297 2 c 0,46,47
 346 2 346 2 388 20.5 c 128,-1,48
 430 39 430 39 462 71 c 128,-1,49
 494 103 494 103 515 144.5 c 128,-1,50
 536 186 536 186 544 233 c 0,31,32
EndSplineSet
EndChar
StartChar: R
Encoding: 82 82 51
Width: 533
Flags: W
Fore
442 0 m 1,0,1
 431 15 431 15 425.5 37 c 128,-1,2
 420 59 420 59 416.5 82.5 c 128,-1,3
 413 106 413 106 408.5 129.5 c 128,-1,4
 404 153 404 153 395.5 171.5 c 128,-1,5
 387 190 387 190 372 201.5 c 128,-1,6
 357 213 357 213 331 213 c 2,7,-1
 141 213 l 1,8,-1
 104 0 l 1,9,-1
 50 0 l 1,10,-1
 132 467 l 1,11,-1
 289 467 l 2,12,13
 311 467 311 467 339 466.5 c 128,-1,14
 367 466 367 466 396.5 463 c 128,-1,15
 426 460 426 460 453 452.5 c 128,-1,16
 480 445 480 445 500 431.5 c 128,-1,17
 520 418 520 418 529.5 396.5 c 128,-1,18
 539 375 539 375 534 344 c 0,19,20
 529 317 529 317 512.5 296.5 c 128,-1,21
 496 276 496 276 473 262 c 128,-1,22
 450 248 450 248 424 239 c 128,-1,23
 398 230 398 230 375 226 c 1,24,25
 409 225 409 225 427.5 212.5 c 128,-1,26
 446 200 446 200 456 181 c 128,-1,27
 466 162 466 162 470 138 c 128,-1,28
 474 114 474 114 478 89 c 128,-1,29
 482 64 482 64 489.5 41 c 128,-1,30
 497 18 497 18 513 0 c 1,31,-1
 442 0 l 1,0,1
466 345 m 0,32,33
 472 381 472 381 455 400.5 c 128,-1,34
 438 420 438 420 409.5 429.5 c 128,-1,35
 381 439 381 439 347.5 440.5 c 128,-1,36
 314 442 314 442 288 442 c 2,37,-1
 181 442 l 1,38,-1
 146 239 l 1,39,-1
 265 239 l 2,40,41
 294 239 294 239 326.5 241 c 128,-1,42
 359 243 359 243 388 253.5 c 128,-1,43
 417 264 417 264 438 285 c 128,-1,44
 459 306 459 306 466 345 c 0,32,33
EndSplineSet
EndChar
StartChar: S
Encoding: 83 83 52
Width: 484
Flags: W
Fore
482 133 m 0,0,1
 474 88 474 88 448.5 59.5 c 128,-1,2
 423 31 423 31 388 14 c 128,-1,3
 353 -3 353 -3 313 -9.5 c 128,-1,4
 273 -16 273 -16 237 -16 c 0,5,6
 202 -16 202 -16 166.5 -7.5 c 128,-1,7
 131 1 131 1 103.5 19.5 c 128,-1,8
 76 38 76 38 60 66.5 c 128,-1,9
 44 95 44 95 48 135 c 1,10,-1
 114 135 l 1,11,12
 111 105 111 105 119.5 81.5 c 128,-1,13
 128 58 128 58 145.5 41.5 c 128,-1,14
 163 25 163 25 187.5 16 c 128,-1,15
 212 7 212 7 241 7 c 0,16,17
 266 7 266 7 295.5 12.5 c 128,-1,18
 325 18 325 18 350.5 30.5 c 128,-1,19
 376 43 376 43 395 64 c 128,-1,20
 414 85 414 85 420 116 c 0,21,22
 427 152 427 152 403.5 172 c 128,-1,23
 380 192 380 192 342 204 c 128,-1,24
 304 216 304 216 259 224.5 c 128,-1,25
 214 233 214 233 176 247 c 128,-1,26
 138 261 138 261 115.5 284.5 c 128,-1,27
 93 308 93 308 100 350 c 0,28,29
 107 388 107 388 131.5 413 c 128,-1,30
 156 438 156 438 189 453 c 128,-1,31
 222 468 222 468 258.5 474 c 128,-1,32
 295 480 295 480 325 480 c 0,33,34
 354 480 354 480 387 474.5 c 128,-1,35
 420 469 420 469 447.5 456 c 128,-1,36
 475 443 475 443 493.5 420 c 128,-1,37
 512 397 512 397 512 363 c 1,38,-1
 454 363 l 1,39,40
 454 390 454 390 442 408.5 c 128,-1,41
 430 427 430 427 411 438 c 128,-1,42
 392 449 392 449 368 453.5 c 128,-1,43
 344 458 344 458 320 458 c 0,44,45
 298 458 298 458 272.5 454 c 128,-1,46
 247 450 247 450 224.5 439.5 c 128,-1,47
 202 429 202 429 185 411 c 128,-1,48
 168 393 168 393 163 365 c 0,49,50
 158 339 158 339 170.5 321.5 c 128,-1,51
 183 304 183 304 206.5 292.5 c 128,-1,52
 230 281 230 281 261 273.5 c 128,-1,53
 292 266 292 266 324.5 259 c 128,-1,54
 357 252 357 252 387.5 243 c 128,-1,55
 418 234 418 234 441 220 c 128,-1,56
 464 206 464 206 476 185 c 128,-1,57
 488 164 488 164 482 133 c 0,0,1
EndSplineSet
EndChar
StartChar: T
Encoding: 84 84 53
Width: 459
Flags: W
Fore
334 442 m 1,0,-1
 257 0 l 1,1,-1
 201 0 l 1,2,-1
 278 442 l 1,3,-1
 87 442 l 1,4,-1
 92 467 l 1,5,-1
 531 467 l 1,6,-1
 526 442 l 1,7,-1
 334 442 l 1,0,-1
EndSplineSet
EndChar
StartChar: U
Encoding: 85 85 54
Width: 573
Flags: W
Fore
556 190 m 1,0,1
 547 136 547 136 521.5 97.5 c 128,-1,2
 496 59 496 59 459.5 33.5 c 128,-1,3
 423 8 423 8 377.5 -4 c 128,-1,4
 332 -16 332 -16 283 -16 c 256,5,6
 234 -16 234 -16 193 -4 c 128,-1,7
 152 8 152 8 124.5 33.5 c 128,-1,8
 97 59 97 59 85.5 98 c 128,-1,9
 74 137 74 137 83 190 c 2,10,-1
 132 467 l 1,11,-1
 186 467 l 1,12,-1
 135 179 l 2,13,14
 128 139 128 139 136.5 107 c 128,-1,15
 145 75 145 75 165.5 52.5 c 128,-1,16
 186 30 186 30 217 18 c 128,-1,17
 248 6 248 6 287 6 c 256,18,19
 326 6 326 6 361.5 18 c 128,-1,20
 397 30 397 30 425.5 52.5 c 128,-1,21
 454 75 454 75 474 107 c 128,-1,22
 494 139 494 139 501 179 c 2,23,-1
 552 467 l 1,24,-1
 605 467 l 1,25,-1
 556 190 l 1,26,-1
 556 190 l 1,0,1
EndSplineSet
EndChar
StartChar: V
Encoding: 86 86 55
Width: 514
Flags: W
Fore
252 -13 m 1,0,-1
 242 -13 l 1,1,-1
 87 467 l 1,2,-1
 148 467 l 1,3,-1
 278 65 l 1,4,-1
 559 467 l 1,5,-1
 591 467 l 1,6,-1
 252 -13 l 1,0,-1
EndSplineSet
EndChar
StartChar: W
Encoding: 87 87 56
Width: 684
Flags: W
Fore
492 -13 m 1,0,-1
 483 -13 l 1,1,-1
 395 368 l 1,2,-1
 195 -13 l 1,3,-1
 185 -13 l 1,4,-1
 87 467 l 1,5,-1
 146 467 l 1,6,-1
 223 94 l 1,7,-1
 422 467 l 1,8,-1
 435 467 l 1,9,-1
 434 467 l 1,10,-1
 521 87 l 1,11,-1
 733 467 l 1,12,-1
 761 467 l 1,13,-1
 492 -13 l 1,0,-1
EndSplineSet
EndChar
StartChar: X
Encoding: 88 88 57
Width: 436
Flags: W
Fore
370 -1 m 1,0,-1
 250 211 l 1,1,-1
 33 -1 l 1,2,-1
 4 -1 l 1,3,-1
 240 229 l 1,4,-1
 109 467 l 1,5,-1
 170 467 l 1,6,-1
 280 269 l 1,7,-1
 483 467 l 1,8,-1
 512 467 l 1,9,-1
 291 251 l 1,10,-1
 430 -1 l 1,11,-1
 370 -1 l 1,0,-1
EndSplineSet
EndChar
StartChar: Y
Encoding: 89 89 58
Width: 481
Flags: W
Fore
299 210 m 1,0,-1
 262 0 l 1,1,-1
 206 0 l 1,2,-1
 241 200 l 1,3,-1
 87 467 l 1,4,-1
 146 467 l 1,5,-1
 287 228 l 1,6,-1
 526 467 l 1,7,-1
 558 467 l 1,8,-1
 299 210 l 1,0,-1
EndSplineSet
EndChar
StartChar: Z
Encoding: 90 90 59
Width: 429
Flags: W
Fore
95 24 m 1,0,-1
 414 24 l 1,1,-1
 402 0 l 1,2,-1
 10 0 l 1,3,-1
 417 442 l 1,4,-1
 110 442 l 1,5,-1
 123 467 l 1,6,-1
 501 467 l 1,7,-1
 95 24 l 1,0,-1
EndSplineSet
EndChar
StartChar: bracketleft
Encoding: 91 91 60
Width: 199
Flags: W
Fore
124 -132 m 1,0,1
 93 -132 93 -132 75 -121 c 128,-1,2
 57 -110 57 -110 48.5 -91 c 128,-1,3
 40 -72 40 -72 39.5 -47.5 c 128,-1,4
 39 -23 39 -23 44 3 c 2,5,-1
 105 347 l 2,6,7
 109 373 109 373 118 397.5 c 128,-1,8
 127 422 127 422 142 440.5 c 128,-1,9
 157 459 157 459 179 470 c 128,-1,10
 201 481 201 481 232 481 c 1,11,-1
 230 470 l 1,12,13
 207 467 207 467 193 458 c 128,-1,14
 179 449 179 449 171 435.5 c 128,-1,15
 163 422 163 422 159 404.5 c 128,-1,16
 155 387 155 387 152 368 c 2,17,-1
 84 -19 l 2,18,19
 81 -38 81 -38 78.5 -55.5 c 128,-1,20
 76 -73 76 -73 79.5 -86.5 c 128,-1,21
 83 -100 83 -100 93.5 -109 c 128,-1,22
 104 -118 104 -118 126 -121 c 1,23,-1
 124 -132 l 1,24,-1
 124 -132 l 1,0,1
EndSplineSet
EndChar
StartChar: backslash
Encoding: 92 92 61
Width: 213
Flags: W
Fore
181 -15 m 1,0,-1
 76 481 l 1,1,-1
 116 481 l 1,2,-1
 221 -15 l 1,3,-1
 181 -15 l 1,0,-1
EndSplineSet
EndChar
StartChar: bracketright
Encoding: 93 93 62
Width: 199
Flags: W
Fore
154 3 m 1,0,1
 149 -23 149 -23 140.5 -47.5 c 128,-1,2
 132 -72 132 -72 117 -91 c 128,-1,3
 102 -110 102 -110 80 -121 c 128,-1,4
 58 -132 58 -132 27 -132 c 1,5,-1
 29 -121 l 1,6,7
 52 -118 52 -118 66 -108.5 c 128,-1,8
 80 -99 80 -99 88.5 -85.5 c 128,-1,9
 97 -72 97 -72 101 -54.5 c 128,-1,10
 105 -37 105 -37 108 -19 c 2,11,-1
 176 368 l 2,12,13
 179 387 179 387 181 404 c 128,-1,14
 183 421 183 421 179.5 434.5 c 128,-1,15
 176 448 176 448 165.5 457.5 c 128,-1,16
 155 467 155 467 133 470 c 1,17,-1
 135 481 l 1,18,19
 166 481 166 481 184 470 c 128,-1,20
 202 459 202 459 210.5 440 c 128,-1,21
 219 421 219 421 219 397 c 128,-1,22
 219 373 219 373 215 347 c 2,23,-1
 154 3 l 1,24,-1
 154 3 l 1,0,1
EndSplineSet
EndChar
StartChar: asciicircum
Encoding: 94 94 63
Width: 448
Flags: W
Fore
364 183 m 1,0,-1
 295 398 l 1,1,-1
 149 183 l 1,2,-1
 103 183 l 1,3,-1
 282 448 l 1,4,-1
 324 448 l 1,5,-1
 410 183 l 1,6,-1
 364 183 l 1,0,-1
EndSplineSet
EndChar
StartChar: underscore
Encoding: 95 95 64
Width: 375
Flags: W
Fore
-11 -91 m 1,0,-1
 -4 -55 l 1,1,-1
 360 -55 l 1,2,-1
 353 -91 l 1,3,-1
 -11 -91 l 1,0,-1
EndSplineSet
EndChar
StartChar: grave
Encoding: 96 96 65
Width: 199
Flags: W
Fore
202 424 m 1,0,1
 174 445 174 445 144 465.5 c 128,-1,2
 114 486 114 486 91 513 c 1,3,-1
 88 528 l 1,4,-1
 96 543 l 1,5,6
 105 550 105 550 112 550 c 0,7,8
 125 550 125 550 142 533 c 128,-1,9
 159 516 159 516 175.5 494 c 128,-1,10
 192 472 192 472 205.5 451.5 c 128,-1,11
 219 431 219 431 224 424 c 1,12,-1
 202 424 l 1,0,1
EndSplineSet
EndChar
StartChar: a
Encoding: 97 97 66
Width: 402
Flags: W
Fore
326 0 m 1,0,1
 323 16 323 16 322.5 29.5 c 128,-1,2
 322 43 322 43 324 58 c 1,3,4
 290 19 290 19 251 4.5 c 128,-1,5
 212 -10 212 -10 164 -10 c 0,6,7
 139 -10 139 -10 114 -4 c 128,-1,8
 89 2 89 2 70.5 15 c 128,-1,9
 52 28 52 28 42 49 c 128,-1,10
 32 70 32 70 37 99 c 0,11,12
 42 130 42 130 61.5 150.5 c 128,-1,13
 81 171 81 171 108.5 184 c 128,-1,14
 136 197 136 197 169 204 c 128,-1,15
 202 211 202 211 234.5 213.5 c 128,-1,16
 267 216 267 216 297 216 c 128,-1,17
 327 216 327 216 348 216 c 1,18,-1
 350 230 l 2,19,20
 359 282 359 282 333 308 c 128,-1,21
 307 334 307 334 256 334 c 0,22,23
 239 334 239 334 219.5 328.5 c 128,-1,24
 200 323 200 323 183 312.5 c 128,-1,25
 166 302 166 302 153 286.5 c 128,-1,26
 140 271 140 271 137 252 c 1,27,-1
 82 252 l 1,28,29
 94 282 94 282 113 302.5 c 128,-1,30
 132 323 132 323 155.5 335.5 c 128,-1,31
 179 348 179 348 206 353.5 c 128,-1,32
 233 359 233 359 261 359 c 0,33,34
 308 359 308 359 336 349 c 128,-1,35
 364 339 364 339 378.5 321.5 c 128,-1,36
 393 304 393 304 395.5 280 c 128,-1,37
 398 256 398 256 395 229 c 0,38,39
 391 201 391 201 384 171.5 c 128,-1,40
 377 142 377 142 371.5 112.5 c 128,-1,41
 366 83 366 83 365 54.5 c 128,-1,42
 364 26 364 26 372 0 c 1,43,-1
 326 0 l 1,0,1
275 191 m 2,44,45
 251 191 251 191 222 187.5 c 128,-1,46
 193 184 193 184 166.5 174 c 128,-1,47
 140 164 140 164 120 146 c 128,-1,48
 100 128 100 128 95 98 c 0,49,50
 91 77 91 77 97.5 61.5 c 128,-1,51
 104 46 104 46 117.5 35 c 128,-1,52
 131 24 131 24 149 18.5 c 128,-1,53
 167 13 167 13 186 13 c 0,54,55
 217 13 217 13 242.5 25 c 128,-1,56
 268 37 268 37 287.5 57 c 128,-1,57
 307 77 307 77 320 103.5 c 128,-1,58
 333 130 333 130 338 159 c 2,59,-1
 343 191 l 1,60,-1
 275 191 l 2,44,45
EndSplineSet
Substitution: 0 65534 'L025' uni0E38
Substitution: 0 65534 'L025' uni0E38
EndChar
StartChar: b
Encoding: 98 98 67
Width: 436
Flags: W
Fore
446 175 m 0,0,1
 440 137 440 137 420.5 103.5 c 128,-1,2
 401 70 401 70 372.5 44.5 c 128,-1,3
 344 19 344 19 308.5 4 c 128,-1,4
 273 -11 273 -11 234 -11 c 0,5,6
 189 -11 189 -11 154 7 c 128,-1,7
 119 25 119 25 102 63 c 1,8,-1
 91 0 l 1,9,-1
 45 0 l 1,10,-1
 130 484 l 1,11,-1
 176 484 l 1,12,-1
 139 277 l 1,13,14
 167 320 167 320 209 340 c 128,-1,15
 251 360 251 360 299 360 c 0,16,17
 340 360 340 360 370.5 346 c 128,-1,18
 401 332 401 332 420.5 307 c 128,-1,19
 440 282 440 282 446.5 248.5 c 128,-1,20
 453 215 453 215 446 175 c 0,0,1
391 173 m 256,21,22
 396 203 396 203 392.5 232 c 128,-1,23
 389 261 389 261 375.5 284.5 c 128,-1,24
 362 308 362 308 339 322 c 128,-1,25
 316 336 316 336 283 336 c 0,26,27
 252 336 252 336 224.5 321 c 128,-1,28
 197 306 197 306 175.5 282.5 c 128,-1,29
 154 259 154 259 140 230 c 128,-1,30
 126 201 126 201 121 173 c 0,31,32
 116 144 116 144 120 116 c 128,-1,33
 124 88 124 88 137.5 65 c 128,-1,34
 151 42 151 42 173 28 c 128,-1,35
 195 14 195 14 226 14 c 0,36,37
 259 14 259 14 286.5 27.5 c 128,-1,38
 314 41 314 41 335.5 63.5 c 128,-1,39
 357 86 357 86 371.5 114.5 c 128,-1,40
 386 143 386 143 391 173 c 256,21,22
EndSplineSet
Substitution: 0 65534 'L025' uni0E39
Substitution: 0 65534 'L025' uni0E39
EndChar
StartChar: c
Encoding: 99 99 68
Width: 411
Flags: W
Fore
377 252 m 1,0,1
 369 292 369 292 342 313 c 128,-1,2
 315 334 315 334 273 334 c 0,3,4
 241 334 241 334 213.5 320.5 c 128,-1,5
 186 307 186 307 164.5 285 c 128,-1,6
 143 263 143 263 128.5 235 c 128,-1,7
 114 207 114 207 109 178 c 0,8,9
 103 147 103 147 106.5 118 c 128,-1,10
 110 89 110 89 123.5 66 c 128,-1,11
 137 43 137 43 160 29 c 128,-1,12
 183 15 183 15 217 15 c 0,13,14
 259 15 259 15 294 35.5 c 128,-1,15
 329 56 329 56 350 96 c 1,16,-1
 407 96 l 1,17,18
 394 67 394 67 372.5 46.5 c 128,-1,19
 351 26 351 26 325.5 13.5 c 128,-1,20
 300 1 300 1 271.5 -5 c 128,-1,21
 243 -11 243 -11 217 -11 c 0,22,23
 177 -11 177 -11 143.5 2.5 c 128,-1,24
 110 16 110 16 86.5 40.5 c 128,-1,25
 63 65 63 65 53 99 c 128,-1,26
 43 133 43 133 50 174 c 256,27,28
 57 215 57 215 79.5 249 c 128,-1,29
 102 283 102 283 133.5 307.5 c 128,-1,30
 165 332 165 332 203.5 345.5 c 128,-1,31
 242 359 242 359 282 359 c 0,32,33
 308 359 308 359 334.5 353 c 128,-1,34
 361 347 361 347 382.5 334.5 c 128,-1,35
 404 322 404 322 418 301.5 c 128,-1,36
 432 281 432 281 435 252 c 1,37,-1
 377 252 l 1,0,1
EndSplineSet
Substitution: 0 65534 'L025' uni0E3A
Substitution: 0 65534 'L025' uni0E3A
EndChar
StartChar: d
Encoding: 100 100 69
Width: 436
Flags: W
Fore
345 0 m 1,0,-1
 356 63 l 1,1,2
 326 25 326 25 284.5 7 c 128,-1,3
 243 -11 243 -11 198 -11 c 0,4,5
 159 -11 159 -11 129 4 c 128,-1,6
 99 19 99 19 79 44.5 c 128,-1,7
 59 70 59 70 51.5 103.5 c 128,-1,8
 44 137 44 137 50 175 c 0,9,10
 57 215 57 215 76 248.5 c 128,-1,11
 95 282 95 282 123 307 c 128,-1,12
 151 332 151 332 186.5 346 c 128,-1,13
 222 360 222 360 263 360 c 0,14,15
 311 360 311 360 345.5 340 c 128,-1,16
 380 320 380 320 393 277 c 1,17,-1
 430 484 l 1,18,-1
 476 484 l 1,19,-1
 391 0 l 1,20,-1
 345 0 l 1,0,-1
375 173 m 0,21,22
 380 201 380 201 376 230.5 c 128,-1,23
 372 260 372 260 359.5 283 c 128,-1,24
 347 306 347 306 324.5 321 c 128,-1,25
 302 336 302 336 271 336 c 0,26,27
 238 336 238 336 210 322 c 128,-1,28
 182 308 182 308 160.5 284.5 c 128,-1,29
 139 261 139 261 125 232 c 128,-1,30
 111 203 111 203 106 173 c 256,31,32
 101 143 101 143 105 114.5 c 128,-1,33
 109 86 109 86 122.5 63.5 c 128,-1,34
 136 41 136 41 158.5 27.5 c 128,-1,35
 181 14 181 14 214 14 c 0,36,37
 245 14 245 14 272.5 28 c 128,-1,38
 300 42 300 42 321 64.5 c 128,-1,39
 342 87 342 87 356 115.5 c 128,-1,40
 370 144 370 144 375 173 c 0,21,22
EndSplineSet
EndChar
StartChar: e
Encoding: 101 101 70
Width: 429
Flags: W
Fore
126 217 m 1,0,1
 120 206 120 206 118.5 194 c 128,-1,2
 117 182 117 182 115 171 c 0,3,4
 109 139 109 139 113.5 110.5 c 128,-1,5
 118 82 118 82 133 60.5 c 128,-1,6
 148 39 148 39 172.5 26.5 c 128,-1,7
 197 14 197 14 231 14 c 0,8,9
 253 14 253 14 276 22.5 c 128,-1,10
 299 31 299 31 318.5 46 c 128,-1,11
 338 61 338 61 352.5 81 c 128,-1,12
 367 101 367 101 373 124 c 1,13,-1
 422 124 l 1,14,15
 414 91 414 91 393.5 65.5 c 128,-1,16
 373 40 373 40 345.5 23 c 128,-1,17
 318 6 318 6 287 -2.5 c 128,-1,18
 256 -11 256 -11 226 -11 c 0,19,20
 187 -11 187 -11 152.5 2 c 128,-1,21
 118 15 118 15 94 38.5 c 128,-1,22
 70 62 70 62 58.5 95.5 c 128,-1,23
 47 129 47 129 54 170 c 0,24,25
 61 212 61 212 82.5 246.5 c 128,-1,26
 104 281 104 281 134.5 306 c 128,-1,27
 165 331 165 331 203 345 c 128,-1,28
 241 359 241 359 283 359 c 0,29,30
 316 359 316 359 346 350.5 c 128,-1,31
 376 342 376 342 398.5 324.5 c 128,-1,32
 421 307 421 307 433 280 c 128,-1,33
 445 253 445 253 442 217 c 1,34,-1
 126 217 l 1,0,1
386 242 m 1,35,36
 380 284 380 284 350 309.5 c 128,-1,37
 320 335 320 335 275 335 c 0,38,39
 232 335 232 335 194.5 309 c 128,-1,40
 157 283 157 283 139 242 c 1,41,-1
 386 242 l 1,35,36
EndSplineSet
EndChar
StartChar: f
Encoding: 102 102 71
Width: 208
Flags: W
Fore
299 436 m 1,0,1
 279 445 279 445 263 445 c 0,2,3
 236 445 236 445 214 429 c 128,-1,4
 192 413 192 413 187 385 c 2,5,-1
 178 331 l 1,6,-1
 245 331 l 1,7,-1
 229 305 l 1,8,-1
 173 305 l 1,9,-1
 120 0 l 1,10,-1
 73 0 l 1,11,-1
 126 305 l 1,12,-1
 68 305 l 1,13,-1
 84 331 l 1,14,-1
 131 331 l 1,15,16
 137 361 137 361 150 389.5 c 128,-1,17
 163 418 163 418 184 439.5 c 128,-1,18
 205 461 205 461 232.5 473 c 128,-1,19
 260 485 260 485 294 484 c 2,20,-1
 308 483 l 1,21,-1
 299 436 l 1,22,-1
 299 436 l 1,0,1
EndSplineSet
EndChar
StartChar: g
Encoding: 103 103 72
Width: 430
Flags: W
Fore
401 -21 m 0,0,1
 395 -57 395 -57 367.5 -79 c 128,-1,2
 340 -101 340 -101 305 -113 c 128,-1,3
 270 -125 270 -125 233 -129 c 128,-1,4
 196 -133 196 -133 170 -133 c 0,5,6
 149 -133 149 -133 118.5 -128.5 c 128,-1,7
 88 -124 88 -124 60.5 -113 c 128,-1,8
 33 -102 33 -102 15 -83.5 c 128,-1,9
 -3 -65 -3 -65 2 -36 c 0,10,11
 5 -17 5 -17 18.5 -4 c 128,-1,12
 32 9 32 9 49.5 18 c 128,-1,13
 67 27 67 27 86.5 32.5 c 128,-1,14
 106 38 106 38 122 41 c 1,15,16
 108 46 108 46 96.5 55.5 c 128,-1,17
 85 65 85 65 88 82 c 0,18,19
 91 101 91 101 112 111 c 128,-1,20
 133 121 133 121 151 123 c 1,21,22
 135 129 135 129 120 140.5 c 128,-1,23
 105 152 105 152 94 167 c 128,-1,24
 83 182 83 182 78 199.5 c 128,-1,25
 73 217 73 217 76 235 c 0,26,27
 82 266 82 266 102.5 289 c 128,-1,28
 123 312 123 312 151 327 c 128,-1,29
 179 342 179 342 210 349.5 c 128,-1,30
 241 357 241 357 267 357 c 0,31,32
 283 357 283 357 298.5 355 c 128,-1,33
 314 353 314 353 328 348 c 1,34,35
 356 380 356 380 387 393 c 128,-1,36
 418 406 418 406 456 405 c 2,37,-1
 468 405 l 1,38,-1
 459 352 l 1,39,40
 446 356 446 356 435 358.5 c 128,-1,41
 424 361 424 361 413 361 c 0,42,43
 398 361 398 361 381.5 356 c 128,-1,44
 365 351 365 351 351 341 c 1,45,46
 380 327 380 327 401.5 300 c 128,-1,47
 423 273 423 273 416 235 c 0,48,49
 409 196 409 196 386 172.5 c 128,-1,50
 363 149 363 149 333 136.5 c 128,-1,51
 303 124 303 124 269.5 119.5 c 128,-1,52
 236 115 236 115 207 114 c 0,53,54
 203 114 203 114 195.5 113.5 c 128,-1,55
 188 113 188 113 180.5 112 c 128,-1,56
 173 111 173 111 166.5 110 c 128,-1,57
 160 109 160 109 157 108 c 0,58,59
 146 105 146 105 145 96 c 0,60,61
 144 83 144 83 184 77 c 0,62,63
 202 74 202 74 226.5 72.5 c 128,-1,64
 251 71 251 71 276 68 c 256,65,66
 301 65 301 65 325.5 59.5 c 128,-1,67
 350 54 350 54 368 44.5 c 128,-1,68
 386 35 386 35 395.5 19 c 128,-1,69
 405 3 405 3 401 -21 c 0,0,1
361 234 m 0,70,71
 370 287 370 287 342 309.5 c 128,-1,72
 314 332 314 332 264 332 c 0,73,74
 215 332 215 332 178 309.5 c 128,-1,75
 141 287 141 287 132 234 c 0,76,77
 127 208 127 208 132.5 189.5 c 128,-1,78
 138 171 138 171 151.5 159.5 c 128,-1,79
 165 148 165 148 185 142.5 c 128,-1,80
 205 137 205 137 230 137 c 0,81,82
 280 137 280 137 316 159.5 c 128,-1,83
 352 182 352 182 361 234 c 0,70,71
349 -40 m 0,84,85
 353 -16 353 -16 340 -1.5 c 128,-1,86
 327 13 327 13 305.5 20 c 128,-1,87
 284 27 284 27 259 29 c 128,-1,88
 234 31 234 31 215 31 c 0,89,90
 195 31 195 31 169 29.5 c 128,-1,91
 143 28 143 28 119 21.5 c 128,-1,92
 95 15 95 15 77 0.5 c 128,-1,93
 59 -14 59 -14 54 -40 c 0,94,95
 50 -63 50 -63 64.5 -76.5 c 128,-1,96
 79 -90 79 -90 101 -98 c 128,-1,97
 123 -106 123 -106 148 -108.5 c 128,-1,98
 173 -111 173 -111 190 -111 c 0,99,100
 206 -111 206 -111 231.5 -107.5 c 128,-1,101
 257 -104 257 -104 282 -96 c 128,-1,102
 307 -88 307 -88 326.5 -74 c 128,-1,103
 346 -60 346 -60 349 -40 c 0,84,85
EndSplineSet
EndChar
StartChar: h
Encoding: 104 104 73
Width: 419
Flags: W
Fore
326 0 m 1,0,-1
 368 242 l 2,1,2
 372 266 372 266 365.5 283 c 128,-1,3
 359 300 359 300 345.5 311.5 c 128,-1,4
 332 323 332 323 313 328.5 c 128,-1,5
 294 334 294 334 272 334 c 0,6,7
 244 334 244 334 219.5 322.5 c 128,-1,8
 195 311 195 311 175.5 292 c 128,-1,9
 156 273 156 273 143 248 c 128,-1,10
 130 223 130 223 125 197 c 2,11,-1
 91 0 l 1,12,-1
 45 0 l 1,13,-1
 125 458 l 1,14,-1
 171 458 l 1,15,-1
 141 284 l 1,16,17
 164 316 164 316 201.5 337.5 c 128,-1,18
 239 359 239 359 277 359 c 0,19,20
 306 359 306 359 333.5 352.5 c 128,-1,21
 361 346 361 346 381 331.5 c 128,-1,22
 401 317 401 317 411 293.5 c 128,-1,23
 421 270 421 270 415 236 c 2,24,-1
 374 0 l 1,25,-1
 326 0 l 1,0,-1
EndSplineSet
EndChar
StartChar: i
Encoding: 105 105 74
Width: 178
Flags: W
Fore
198 428 m 256,0,1
 196 414 196 414 184 404 c 128,-1,2
 172 394 172 394 158 394 c 256,3,4
 144 394 144 394 136 404 c 128,-1,5
 128 414 128 414 130 428 c 256,6,7
 132 442 132 442 144 451.5 c 128,-1,8
 156 461 156 461 170 461 c 256,9,10
 184 461 184 461 192 451.5 c 128,-1,11
 200 442 200 442 198 428 c 256,0,1
65 0 m 1,12,-1
 126 349 l 1,13,-1
 172 349 l 1,14,-1
 111 0 l 1,15,-1
 65 0 l 1,12,-1
EndSplineSet
EndChar
StartChar: j
Encoding: 106 106 75
Width: 188
Flags: W
Fore
213 426 m 0,0,1
 210 412 210 412 197.5 401.5 c 128,-1,2
 185 391 185 391 171 391 c 0,3,4
 156 391 156 391 147.5 401.5 c 128,-1,5
 139 412 139 412 142 426 c 0,6,7
 144 440 144 440 156.5 450.5 c 128,-1,8
 169 461 169 461 184 461 c 0,9,10
 198 461 198 461 206.5 450.5 c 128,-1,11
 215 440 215 440 213 426 c 0,0,1
134 43 m 2,12,13
 129 16 129 16 118.5 -13.5 c 128,-1,14
 108 -43 108 -43 90.5 -67.5 c 128,-1,15
 73 -92 73 -92 47.5 -107.5 c 128,-1,16
 22 -123 22 -123 -13 -123 c 0,17,18
 -27 -123 -27 -123 -44.5 -119 c 128,-1,19
 -62 -115 -62 -115 -74 -105 c 1,20,-1
 -47 -69 l 1,21,22
 -39 -82 -39 -82 -29.5 -86.5 c 128,-1,23
 -20 -91 -20 -91 -7 -91 c 0,24,25
 16 -91 16 -91 31.5 -79 c 128,-1,26
 47 -67 47 -67 57 -48.5 c 128,-1,27
 67 -30 67 -30 73 -8.5 c 128,-1,28
 79 13 79 13 82 32 c 2,29,-1
 138 349 l 1,30,-1
 188 349 l 1,31,-1
 134 43 l 2,12,13
EndSplineSet
EndChar
StartChar: k
Encoding: 107 107 76
Width: 392
Flags: W
Fore
329 0 m 1,0,-1
 212 217 l 1,1,-1
 129 159 l 1,2,-1
 101 0 l 1,3,-1
 55 0 l 1,4,-1
 140 484 l 1,5,-1
 186 484 l 1,6,-1
 134 191 l 1,7,-1
 357 349 l 1,8,-1
 400 349 l 1,9,-1
 252 245 l 1,10,-1
 382 0 l 1,11,-1
 329 0 l 1,0,-1
EndSplineSet
EndChar
StartChar: l
Encoding: 108 108 77
Width: 156
Flags: W
Fore
55 0 m 1,0,-1
 140 484 l 1,1,-1
 186 484 l 1,2,-1
 101 0 l 1,3,-1
 55 0 l 1,0,-1
EndSplineSet
EndChar
StartChar: m
Encoding: 109 109 78
Width: 658
Flags: W
Fore
565 0 m 1,0,-1
 606 235 l 2,1,2
 614 280 614 280 589 306.5 c 128,-1,3
 564 333 564 333 519 333 c 0,4,5
 486 333 486 333 463 319 c 128,-1,6
 440 305 440 305 425 283 c 128,-1,7
 410 261 410 261 401.5 233 c 128,-1,8
 393 205 393 205 388 178 c 2,9,-1
 357 0 l 1,10,-1
 309 0 l 1,11,-1
 342 192 l 2,12,13
 346 217 346 217 346.5 242 c 128,-1,14
 347 267 347 267 339 287 c 128,-1,15
 331 307 331 307 314 320 c 128,-1,16
 297 333 297 333 267 333 c 0,17,18
 238 333 238 333 215.5 322 c 128,-1,19
 193 311 193 311 176 292.5 c 128,-1,20
 159 274 159 274 147 249.5 c 128,-1,21
 135 225 135 225 126 197 c 0,22,23
 118 169 118 169 112 140.5 c 128,-1,24
 106 112 106 112 102 86 c 0,25,26
 97 60 97 60 95 38 c 128,-1,27
 93 16 93 16 91 0 c 1,28,-1
 45 0 l 1,29,-1
 106 348 l 1,30,-1
 152 348 l 1,31,-1
 140 283 l 1,32,33
 166 321 166 321 203 339.5 c 128,-1,34
 240 358 240 358 284 358 c 0,35,36
 331 358 331 358 358 335 c 128,-1,37
 385 312 385 312 392 270 c 1,38,39
 415 312 415 312 447.5 335 c 128,-1,40
 480 358 480 358 528 358 c 0,41,42
 559 358 559 358 584.5 350 c 128,-1,43
 610 342 610 342 627 326.5 c 128,-1,44
 644 311 644 311 651.5 286.5 c 128,-1,45
 659 262 659 262 653 229 c 2,46,-1
 613 0 l 1,47,-1
 565 0 l 1,0,-1
EndSplineSet
EndChar
StartChar: n
Encoding: 110 110 79
Width: 419
Flags: W
Fore
326 0 m 1,0,-1
 368 241 l 2,1,2
 372 265 372 265 365.5 282 c 128,-1,3
 359 299 359 299 345.5 310.5 c 128,-1,4
 332 322 332 322 313 327.5 c 128,-1,5
 294 333 294 333 272 333 c 0,6,7
 244 333 244 333 219.5 321.5 c 128,-1,8
 195 310 195 310 175.5 291 c 128,-1,9
 156 272 156 272 143 247.5 c 128,-1,10
 130 223 130 223 125 196 c 2,11,-1
 91 0 l 1,12,-1
 45 0 l 1,13,-1
 106 348 l 1,14,-1
 152 348 l 1,15,-1
 140 283 l 1,16,17
 163 316 163 316 201 337 c 128,-1,18
 239 358 239 358 277 358 c 0,19,20
 306 358 306 358 333.5 351.5 c 128,-1,21
 361 345 361 345 381 330.5 c 128,-1,22
 401 316 401 316 411 292.5 c 128,-1,23
 421 269 421 269 415 235 c 2,24,-1
 374 0 l 1,25,-1
 326 0 l 1,0,-1
EndSplineSet
EndChar
StartChar: o
Encoding: 111 111 80
Width: 445
Flags: W
Fore
450 173 m 0,0,1
 442 131 442 131 420.5 97 c 128,-1,2
 399 63 399 63 368 39.5 c 128,-1,3
 337 16 337 16 299 3 c 128,-1,4
 261 -10 261 -10 220 -10 c 256,5,6
 179 -10 179 -10 145.5 3 c 128,-1,7
 112 16 112 16 89.5 39.5 c 128,-1,8
 67 63 67 63 57 97 c 128,-1,9
 47 131 47 131 55 173 c 0,10,11
 62 215 62 215 83.5 249 c 128,-1,12
 105 283 105 283 136 307 c 128,-1,13
 167 331 167 331 205.5 344 c 128,-1,14
 244 357 244 357 285 357 c 0,15,16
 327 357 327 357 360.5 344.5 c 128,-1,17
 394 332 394 332 416.5 308 c 128,-1,18
 439 284 439 284 448 250 c 128,-1,19
 457 216 457 216 450 173 c 0,0,1
394 173 m 256,20,21
 400 207 400 207 397 236.5 c 128,-1,22
 394 266 394 266 380.5 287 c 128,-1,23
 367 308 367 308 342.5 320 c 128,-1,24
 318 332 318 332 281 332 c 0,25,26
 243 332 243 332 214.5 320 c 128,-1,27
 186 308 186 308 165 287 c 128,-1,28
 144 266 144 266 131 237 c 128,-1,29
 118 208 118 208 112 174 c 256,30,31
 106 140 106 140 109 111 c 128,-1,32
 112 82 112 82 125.5 60.5 c 128,-1,33
 139 39 139 39 163.5 27 c 128,-1,34
 188 15 188 15 226 15 c 0,35,36
 263 15 263 15 291.5 27 c 128,-1,37
 320 39 320 39 341 60 c 128,-1,38
 362 81 362 81 375 110 c 128,-1,39
 388 139 388 139 394 173 c 256,20,21
EndSplineSet
EndChar
StartChar: p
Encoding: 112 112 81
Width: 436
Flags: W
Fore
446 172 m 0,0,1
 439 132 439 132 420 98 c 128,-1,2
 401 64 401 64 373 39.5 c 128,-1,3
 345 15 345 15 309.5 1 c 128,-1,4
 274 -13 274 -13 233 -13 c 0,5,6
 185 -13 185 -13 150.5 7 c 128,-1,7
 116 27 116 27 103 70 c 1,8,-1
 68 -129 l 1,9,-1
 22 -129 l 1,10,-1
 106 347 l 1,11,-1
 143 347 l 1,12,-1
 139 282 l 1,13,14
 169 321 169 321 211 339 c 128,-1,15
 253 357 253 357 298 357 c 0,16,17
 337 357 337 357 367.5 342.5 c 128,-1,18
 398 328 398 328 417.5 302.5 c 128,-1,19
 437 277 437 277 445 243.5 c 128,-1,20
 453 210 453 210 446 172 c 0,0,1
391 174 m 256,21,22
 396 204 396 204 392 232 c 128,-1,23
 388 260 388 260 374.5 282.5 c 128,-1,24
 361 305 361 305 338 318.5 c 128,-1,25
 315 332 315 332 282 332 c 0,26,27
 251 332 251 332 224 318 c 128,-1,28
 197 304 197 304 176 281.5 c 128,-1,29
 155 259 155 259 140.5 230.5 c 128,-1,30
 126 202 126 202 121 174 c 0,31,32
 116 145 116 145 120 116 c 128,-1,33
 124 87 124 87 136.5 64 c 128,-1,34
 149 41 149 41 171 26 c 128,-1,35
 193 11 193 11 225 11 c 0,36,37
 258 11 258 11 286 25 c 128,-1,38
 314 39 314 39 335.5 62.5 c 128,-1,39
 357 86 357 86 371.5 115 c 128,-1,40
 386 144 386 144 391 174 c 256,21,22
EndSplineSet
EndChar
StartChar: q
Encoding: 113 113 82
Width: 436
Flags: W
Fore
322 -129 m 1,0,-1
 357 70 l 1,1,2
 329 27 329 27 287 7 c 128,-1,3
 245 -13 245 -13 197 -13 c 0,4,5
 156 -13 156 -13 125.5 1 c 128,-1,6
 95 15 95 15 75.5 39.5 c 128,-1,7
 56 64 56 64 49.5 98 c 128,-1,8
 43 132 43 132 50 172 c 0,9,10
 57 210 57 210 76.5 243.5 c 128,-1,11
 96 277 96 277 124.5 302.5 c 128,-1,12
 153 328 153 328 188 342.5 c 128,-1,13
 223 357 223 357 262 357 c 0,14,15
 307 357 307 357 342.5 339 c 128,-1,16
 378 321 378 321 395 282 c 1,17,-1
 415 347 l 1,18,-1
 452 347 l 1,19,-1
 368 -129 l 1,20,-1
 322 -129 l 1,0,-1
375 174 m 256,21,22
 380 203 380 203 376 231 c 128,-1,23
 372 259 372 259 359 281.5 c 128,-1,24
 346 304 346 304 323.5 318 c 128,-1,25
 301 332 301 332 270 332 c 0,26,27
 237 332 237 332 209.5 318.5 c 128,-1,28
 182 305 182 305 160.5 282.5 c 128,-1,29
 139 260 139 260 125 232 c 128,-1,30
 111 204 111 204 106 174 c 256,31,32
 101 144 101 144 104.5 115 c 128,-1,33
 108 86 108 86 121 62.5 c 128,-1,34
 134 39 134 39 157 25 c 128,-1,35
 180 11 180 11 213 11 c 0,36,37
 245 11 245 11 272.5 25.5 c 128,-1,38
 300 40 300 40 321 63.5 c 128,-1,39
 342 87 342 87 356 116 c 128,-1,40
 370 145 370 145 375 174 c 256,21,22
EndSplineSet
EndChar
StartChar: r
Encoding: 114 114 83
Width: 239
Flags: W
Fore
276 308 m 1,0,1
 261 314 261 314 248 314 c 0,2,3
 219 314 219 314 197.5 302.5 c 128,-1,4
 176 291 176 291 161 272 c 128,-1,5
 146 253 146 253 136 229 c 128,-1,6
 126 205 126 205 122 180 c 2,7,-1
 91 0 l 1,8,-1
 45 0 l 1,9,-1
 106 348 l 1,10,-1
 152 348 l 1,11,-1
 138 271 l 1,12,13
 148 289 148 289 164 305 c 128,-1,14
 180 321 180 321 198.5 333 c 128,-1,15
 217 345 217 345 237.5 351 c 128,-1,16
 258 357 258 357 276 356 c 2,17,-1
 291 355 l 1,18,-1
 276 308 l 1,0,1
EndSplineSet
EndChar
StartChar: s
Encoding: 115 115 84
Width: 386
Flags: W
Fore
378 100 m 0,0,1
 372 66 372 66 352 44.5 c 128,-1,2
 332 23 332 23 305 10.5 c 128,-1,3
 278 -2 278 -2 247.5 -7 c 128,-1,4
 217 -12 217 -12 190 -12 c 0,5,6
 164 -12 164 -12 138 -5.5 c 128,-1,7
 112 1 112 1 91 14.5 c 128,-1,8
 70 28 70 28 56 49 c 128,-1,9
 42 70 42 70 42 99 c 1,10,-1
 91 99 l 1,11,12
 91 78 91 78 99.5 62 c 128,-1,13
 108 46 108 46 123 35 c 128,-1,14
 138 24 138 24 156.5 18.5 c 128,-1,15
 175 13 175 13 195 13 c 0,16,17
 214 13 214 13 235.5 16 c 128,-1,18
 257 19 257 19 276 27 c 128,-1,19
 295 35 295 35 309 49.5 c 128,-1,20
 323 64 323 64 327 87 c 0,21,22
 331 107 331 107 321.5 119 c 128,-1,23
 312 131 312 131 295 139 c 0,24,25
 287 143 287 143 276.5 145.5 c 128,-1,26
 266 148 266 148 255 150 c 0,27,28
 243 152 243 152 231 154.5 c 128,-1,29
 219 157 219 157 208 159 c 0,30,31
 183 163 183 163 159.5 169 c 128,-1,32
 136 175 136 175 119 186 c 128,-1,33
 102 197 102 197 93 214.5 c 128,-1,34
 84 232 84 232 89 260 c 256,35,36
 94 288 94 288 112.5 307 c 128,-1,37
 131 326 131 326 156 337 c 128,-1,38
 181 348 181 348 208 352.5 c 128,-1,39
 235 357 235 357 258 357 c 0,40,41
 284 357 284 357 309.5 351 c 128,-1,42
 335 345 335 345 355.5 331.5 c 128,-1,43
 376 318 376 318 388.5 297.5 c 128,-1,44
 401 277 401 277 401 247 c 1,45,-1
 352 247 l 1,46,47
 352 289 352 289 322.5 310.5 c 128,-1,48
 293 332 293 332 253 332 c 0,49,50
 237 332 237 332 218.5 329.5 c 128,-1,51
 200 327 200 327 183.5 320.5 c 128,-1,52
 167 314 167 314 154.5 301.5 c 128,-1,53
 142 289 142 289 139 270 c 0,54,55
 135 248 135 248 144 235 c 128,-1,56
 153 222 153 222 170 214 c 0,57,58
 189 205 189 205 213 200.5 c 128,-1,59
 237 196 237 196 258 192 c 0,60,61
 282 187 282 187 305.5 182 c 128,-1,62
 329 177 329 177 346.5 167 c 128,-1,63
 364 157 364 157 373 141 c 128,-1,64
 382 125 382 125 378 100 c 0,0,1
EndSplineSet
EndChar
StartChar: t
Encoding: 116 116 85
Width: 219
Flags: W
Fore
218 6 m 1,0,1
 188 -6 188 -6 160 -6 c 0,2,3
 134 -6 134 -6 118.5 3 c 128,-1,4
 103 12 103 12 95.5 27.5 c 128,-1,5
 88 43 88 43 87.5 63 c 128,-1,6
 87 83 87 83 91 105 c 2,7,-1
 126 305 l 1,8,-1
 73 305 l 1,9,-1
 78 329 l 1,10,-1
 126 329 l 1,11,-1
 181 428 l 1,12,-1
 194 428 l 1,13,-1
 177 329 l 1,14,-1
 245 329 l 1,15,-1
 240 305 l 1,16,-1
 172 305 l 1,17,-1
 134 90 l 2,18,19
 132 77 132 77 131.5 65 c 128,-1,20
 131 53 131 53 134.5 43.5 c 128,-1,21
 138 34 138 34 146.5 28 c 128,-1,22
 155 22 155 22 170 22 c 0,23,24
 183 22 183 22 195.5 26 c 128,-1,25
 208 30 208 30 223 37 c 1,26,-1
 218 6 l 1,27,-1
 218 6 l 1,0,1
EndSplineSet
EndChar
StartChar: u
Encoding: 117 117 86
Width: 419
Flags: W
Fore
328 0 m 1,0,-1
 339 65 l 1,1,2
 328 49 328 49 312 35.5 c 128,-1,3
 296 22 296 22 278 11.5 c 128,-1,4
 260 1 260 1 240.5 -5 c 128,-1,5
 221 -11 221 -11 203 -11 c 0,6,7
 174 -11 174 -11 146 -4.5 c 128,-1,8
 118 2 118 2 98 16.5 c 128,-1,9
 78 31 78 31 68 54.5 c 128,-1,10
 58 78 58 78 64 112 c 2,11,-1
 106 348 l 1,12,-1
 154 348 l 1,13,-1
 111 106 l 2,14,15
 107 83 107 83 113.5 65.5 c 128,-1,16
 120 48 120 48 133.5 36.5 c 128,-1,17
 147 25 147 25 166 19.5 c 128,-1,18
 185 14 185 14 207 14 c 0,19,20
 235 14 235 14 260 25.5 c 128,-1,21
 285 37 285 37 304.5 56.5 c 128,-1,22
 324 76 324 76 336.5 101 c 128,-1,23
 349 126 349 126 354 152 c 2,24,-1
 389 348 l 1,25,-1
 435 348 l 1,26,-1
 374 0 l 1,27,-1
 328 0 l 1,0,-1
EndSplineSet
EndChar
StartChar: v
Encoding: 118 118 87
Width: 378
Flags: W
Fore
192 -11 m 1,0,-1
 185 -11 l 1,1,-1
 64 348 l 1,2,-1
 116 348 l 1,3,-1
 213 62 l 1,4,-1
 409 348 l 1,5,-1
 436 348 l 1,6,-1
 192 -11 l 1,0,-1
EndSplineSet
EndChar
StartChar: w
Encoding: 119 119 88
Width: 586
Flags: W
Fore
418 -11 m 1,0,-1
 411 -11 l 1,1,-1
 340 268 l 1,2,-1
 173 -11 l 1,3,-1
 166 -11 l 1,4,-1
 64 348 l 1,5,-1
 114 348 l 1,6,-1
 193 61 l 1,7,-1
 361 352 l 1,8,-1
 368 352 l 1,9,-1
 441 63 l 1,10,-1
 617 348 l 1,11,-1
 644 348 l 1,12,-1
 418 -11 l 1,0,-1
EndSplineSet
EndChar
StartChar: x
Encoding: 120 120 89
Width: 355
Flags: W
Fore
298 0 m 1,0,-1
 192 156 l 1,1,-1
 33 0 l 1,2,-1
 3 0 l 1,3,-1
 180 174 l 1,4,-1
 64 348 l 1,5,-1
 118 348 l 1,6,-1
 213 205 l 1,7,-1
 359 348 l 1,8,-1
 389 348 l 1,9,-1
 225 188 l 1,10,-1
 352 0 l 1,11,-1
 298 0 l 1,0,-1
EndSplineSet
EndChar
StartChar: y
Encoding: 121 121 90
Width: 381
Flags: W
Fore
45 -132 m 0,0,1
 31 -132 31 -132 14.5 -128 c 128,-1,2
 -2 -124 -2 -124 -13 -114 c 1,3,-1
 14 -78 l 1,4,5
 22 -91 22 -91 31.5 -95.5 c 128,-1,6
 41 -100 41 -100 54 -100 c 0,7,8
 71 -100 71 -100 90.5 -90 c 128,-1,9
 110 -80 110 -80 127 -64.5 c 128,-1,10
 144 -49 144 -49 156 -30.5 c 128,-1,11
 168 -12 168 -12 171 4 c 0,12,13
 173 15 173 15 171.5 25 c 128,-1,14
 170 35 170 35 167 46 c 2,15,-1
 64 348 l 1,16,-1
 116 348 l 1,17,-1
 215 59 l 1,18,-1
 411 348 l 1,19,-1
 439 348 l 1,20,-1
 196 -10 l 2,21,22
 180 -33 180 -33 162.5 -55 c 128,-1,23
 145 -77 145 -77 125.5 -94 c 128,-1,24
 106 -111 106 -111 86 -121.5 c 128,-1,25
 66 -132 66 -132 45 -132 c 0,0,1
EndSplineSet
EndChar
StartChar: z
Encoding: 122 122 91
Width: 355
Flags: W
Fore
89 26 m 1,0,-1
 338 26 l 1,1,-1
 323 0 l 1,2,-1
 10 0 l 1,3,-1
 327 323 l 1,4,-1
 98 323 l 1,5,-1
 111 348 l 1,6,-1
 406 348 l 1,7,-1
 89 26 l 1,0,-1
EndSplineSet
EndChar
StartChar: braceleft
Encoding: 123 123 92
Width: 253
Flags: W
Fore
181 -136 m 1,0,1
 128 -136 128 -136 108.5 -116 c 128,-1,2
 89 -96 89 -96 88.5 -65 c 128,-1,3
 88 -34 88 -34 98 3 c 128,-1,4
 108 40 108 40 114.5 74.5 c 128,-1,5
 121 109 121 109 115.5 135.5 c 128,-1,6
 110 162 110 162 78 173 c 1,7,8
 113 183 113 183 128 210.5 c 128,-1,9
 143 238 143 238 148.5 272 c 128,-1,10
 154 306 154 306 157 343.5 c 128,-1,11
 160 381 160 381 171.5 412 c 128,-1,12
 183 443 183 443 209.5 463 c 128,-1,13
 236 483 236 483 290 483 c 1,14,-1
 287 470 l 1,15,16
 256 470 256 470 241.5 450.5 c 128,-1,17
 227 431 227 431 220.5 401 c 128,-1,18
 214 371 214 371 210.5 335 c 128,-1,19
 207 299 207 299 198.5 266 c 128,-1,20
 190 233 190 233 171.5 207.5 c 128,-1,21
 153 182 153 182 117 174 c 1,22,23
 150 166 150 166 159 140.5 c 128,-1,24
 168 115 168 115 165 82 c 128,-1,25
 162 49 162 49 153 12.5 c 128,-1,26
 144 -24 144 -24 140 -54.5 c 128,-1,27
 136 -85 136 -85 144 -104.5 c 128,-1,28
 152 -124 152 -124 183 -124 c 1,29,-1
 181 -136 l 1,30,-1
 181 -136 l 1,0,1
EndSplineSet
EndChar
StartChar: bar
Encoding: 124 124 93
Width: 172
Flags: W
Fore
32 -182 m 1,0,-1
 161 547 l 1,1,-1
 203 547 l 1,2,-1
 74 -182 l 1,3,-1
 32 -182 l 1,0,-1
EndSplineSet
EndChar
StartChar: braceright
Encoding: 125 125 94
Width: 253
Flags: W
Fore
235 173 m 1,0,1
 199 162 199 162 184 135 c 128,-1,2
 169 108 169 108 163 73.5 c 128,-1,3
 157 39 157 39 155 2 c 128,-1,4
 153 -35 153 -35 141.5 -65.5 c 128,-1,5
 130 -96 130 -96 103.5 -116 c 128,-1,6
 77 -136 77 -136 24 -136 c 1,7,-1
 26 -124 l 1,8,9
 56 -124 56 -124 70.5 -104.5 c 128,-1,10
 85 -85 85 -85 92 -54.5 c 128,-1,11
 99 -24 99 -24 102.5 12 c 128,-1,12
 106 48 106 48 114.5 81 c 128,-1,13
 123 114 123 114 141 139.5 c 128,-1,14
 159 165 159 165 195 174 c 1,15,16
 162 182 162 182 153 207.5 c 128,-1,17
 144 233 144 233 147 266 c 128,-1,18
 150 299 150 299 159 335 c 128,-1,19
 168 371 168 371 172 401 c 128,-1,20
 176 431 176 431 168.5 450.5 c 128,-1,21
 161 470 161 470 130 470 c 1,22,-1
 133 483 l 1,23,24
 173 483 173 483 193 471.5 c 128,-1,25
 213 460 213 460 220.5 440.5 c 128,-1,26
 228 421 228 421 225 396 c 128,-1,27
 222 371 222 371 215.5 344 c 128,-1,28
 209 317 209 317 202 289.5 c 128,-1,29
 195 262 195 262 194 239 c 128,-1,30
 193 216 193 216 202 198.5 c 128,-1,31
 211 181 211 181 235 173 c 1,0,1
EndSplineSet
EndChar
StartChar: asciitilde
Encoding: 126 126 95
Width: 448
Flags: W
Fore
429 207 m 1,0,1
 406 182 406 182 382.5 163.5 c 128,-1,2
 359 145 359 145 326 145 c 0,3,4
 305 145 305 145 287.5 152.5 c 128,-1,5
 270 160 270 160 253.5 169.5 c 128,-1,6
 237 179 237 179 219 186.5 c 128,-1,7
 201 194 201 194 178 194 c 0,8,9
 152 194 152 194 136.5 178 c 128,-1,10
 121 162 121 162 106 142 c 1,11,-1
 85 173 l 1,12,13
 109 200 109 200 130.5 217.5 c 128,-1,14
 152 235 152 235 189 235 c 0,15,16
 209 235 209 235 228.5 227 c 128,-1,17
 248 219 248 219 266 210 c 128,-1,18
 284 201 284 201 301 193 c 128,-1,19
 318 185 318 185 334 185 c 0,20,21
 357 185 357 185 375 202.5 c 128,-1,22
 393 220 393 220 407 237 c 1,23,-1
 429 207 l 1,24,-1
 429 207 l 1,0,1
EndSplineSet
EndChar
StartChar: uni0E33.alt1
Encoding: 65539 -1 96
Width: 374
Flags: W
Fore
-51 530 m 256,0,1
 -57 497 -57 497 -84.5 473.5 c 128,-1,2
 -112 450 -112 450 -145 450 c 256,3,4
 -178 450 -178 450 -197.5 473.5 c 128,-1,5
 -217 497 -217 497 -211 530 c 256,6,7
 -205 563 -205 563 -177.5 586.5 c 128,-1,8
 -150 610 -150 610 -117 610 c 256,9,10
 -84 610 -84 610 -64.5 586.5 c 128,-1,11
 -45 563 -45 563 -51 530 c 256,0,1
274 0 m 1,12,-1
 322 275 l 2,13,14
 330 323 330 323 309.5 355 c 128,-1,15
 289 387 289 387 234 387 c 0,16,17
 204 387 204 387 182 378 c 128,-1,18
 160 369 160 369 144 354 c 128,-1,19
 128 339 128 339 117 321 c 128,-1,20
 106 303 106 303 100 285 c 1,21,-1
 49 285 l 1,22,23
 67 338 67 338 115.5 372.5 c 128,-1,24
 164 407 164 407 237 407 c 0,25,26
 308 407 308 407 346 374 c 128,-1,27
 384 341 384 341 371 269 c 2,28,-1
 324 0 l 1,29,-1
 274 0 l 1,12,-1
-76 529 m 0,30,31
 -72 552 -72 552 -85.5 568 c 128,-1,32
 -99 584 -99 584 -122 584 c 256,33,34
 -145 584 -145 584 -163.5 568 c 128,-1,35
 -182 552 -182 552 -186 529 c 0,36,37
 -191 506 -191 506 -177.5 490 c 128,-1,38
 -164 474 -164 474 -141 474 c 256,39,40
 -118 474 -118 474 -99.5 490 c 128,-1,41
 -81 506 -81 506 -76 529 c 0,30,31
EndSplineSet
EndChar
StartChar: quotedbl
Encoding: 34 34 97
Width: 246
Flags: W
Fore
280 449 m 0,0,1
 271 401 271 401 254.5 350.5 c 128,-1,2
 238 300 238 300 225 252 c 1,3,-1
 215 252 l 1,4,5
 219 300 219 300 220.5 350.5 c 128,-1,6
 222 401 222 401 230 449 c 0,7,8
 232 461 232 461 239 471 c 128,-1,9
 246 481 246 481 260 481 c 256,10,11
 274 481 274 481 278 470.5 c 128,-1,12
 282 460 282 460 280 449 c 0,0,1
174 449 m 0,13,14
 165 401 165 401 149 350.5 c 128,-1,15
 133 300 133 300 119 252 c 1,16,-1
 109 252 l 1,17,18
 112 300 112 300 114 351 c 128,-1,19
 116 402 116 402 124 450 c 0,20,21
 126 462 126 462 133.5 471.5 c 128,-1,22
 141 481 141 481 155 481 c 256,23,24
 169 481 169 481 172.5 470.5 c 128,-1,25
 176 460 176 460 174 449 c 0,13,14
EndSplineSet
EndChar
StartChar: exclam
Encoding: 33 33 98
Width: 206
Flags: W
Fore
212 419 m 0,0,1
 194 335 194 335 169 251 c 128,-1,2
 144 167 144 167 121 84 c 1,3,-1
 113 84 l 1,4,5
 120 166 120 166 123 251 c 128,-1,6
 126 336 126 336 140 419 c 0,7,8
 142 428 142 428 145 439 c 128,-1,9
 148 450 148 450 153.5 459.5 c 128,-1,10
 159 469 159 469 167.5 475.5 c 128,-1,11
 176 482 176 482 188 482 c 256,12,13
 200 482 200 482 206 475.5 c 128,-1,14
 212 469 212 469 214 459.5 c 128,-1,15
 216 450 216 450 215 439 c 128,-1,16
 214 428 214 428 212 419 c 0,0,1
142 24 m 256,17,18
 140 10 140 10 128.5 0 c 128,-1,19
 117 -10 117 -10 103 -10 c 256,20,21
 89 -10 89 -10 81 0 c 128,-1,22
 73 10 73 10 75 24 c 256,23,24
 77 38 77 38 89 47.5 c 128,-1,25
 101 57 101 57 115 57 c 0,26,27
 128 57 128 57 136 47.5 c 128,-1,28
 144 38 144 38 142 24 c 256,17,18
EndSplineSet
EndChar
StartChar: uni0E4E.alt1
Encoding: 65540 -1 99
Width: 0
Flags: W
Fore
25 656 m 1,0,-1
 17 637 l 1,1,2
 -17 643 -17 643 -43 634 c 128,-1,3
 -69 625 -69 625 -74 597 c 0,4,5
 -77 582 -77 582 -62.5 569 c 128,-1,6
 -48 556 -48 556 -29 555 c 1,7,-1
 -37 540 l 1,8,9
 -75 536 -75 536 -106 524 c 128,-1,10
 -137 512 -137 512 -142 484 c 0,11,12
 -144 473 -144 473 -136.5 465 c 128,-1,13
 -129 457 -129 457 -116.5 452.5 c 128,-1,14
 -104 448 -104 448 -87 446 c 128,-1,15
 -70 444 -70 444 -53 446 c 1,16,-1
 -63 426 l 1,17,18
 -89 423 -89 423 -115 422.5 c 128,-1,19
 -141 422 -141 422 -161.5 428 c 128,-1,20
 -182 434 -182 434 -193.5 447.5 c 128,-1,21
 -205 461 -205 461 -201 484 c 0,22,23
 -195 517 -195 517 -161.5 532.5 c 128,-1,24
 -128 548 -128 548 -82 552 c 1,25,26
 -90 554 -90 554 -98.5 557.5 c 128,-1,27
 -107 561 -107 561 -113.5 566.5 c 128,-1,28
 -120 572 -120 572 -123.5 580.5 c 128,-1,29
 -127 589 -127 589 -125 601 c 0,30,31
 -121 622 -121 622 -107 635 c 128,-1,32
 -93 648 -93 648 -72.5 654 c 128,-1,33
 -52 660 -52 660 -27 660.5 c 128,-1,34
 -2 661 -2 661 25 656 c 1,0,-1
EndSplineSet
EndChar
StartChar: exclamdown
Encoding: 161 161 100
Width: 187
Flags: W
Fore
141 300 m 1,0,-1
 150 300 l 1,1,-1
 125 -20 l 2,2,3
 124 -34 124 -34 121 -48 c 128,-1,4
 118 -62 118 -62 112 -73.5 c 128,-1,5
 106 -85 106 -85 97 -92.5 c 128,-1,6
 88 -100 88 -100 75 -100 c 256,7,8
 62 -100 62 -100 56 -93 c 128,-1,9
 50 -86 50 -86 48.5 -75 c 128,-1,10
 47 -64 47 -64 49 -49.5 c 128,-1,11
 51 -35 51 -35 55 -20 c 2,12,-1
 141 300 l 1,0,-1
122 359 m 0,13,14
 124 373 124 373 135.5 382.5 c 128,-1,15
 147 392 147 392 161 392 c 256,16,17
 175 392 175 392 183 382.5 c 128,-1,18
 191 373 191 373 189 359 c 0,19,20
 186 345 186 345 174.5 335 c 128,-1,21
 163 325 163 325 149 325 c 256,22,23
 135 325 135 325 127 335 c 128,-1,24
 119 345 119 345 122 359 c 0,13,14
EndSplineSet
EndChar
StartChar: cent
Encoding: 162 162 101
Width: 392
Flags: W
Fore
231 -12 m 1,0,-1
 206 -12 l 1,1,-1
 219 62 l 1,2,3
 186 64 186 64 159 77 c 128,-1,4
 132 90 132 90 114 111 c 128,-1,5
 96 132 96 132 88.5 160.5 c 128,-1,6
 81 189 81 189 87 223 c 256,7,8
 93 257 93 257 111 285.5 c 128,-1,9
 129 314 129 314 154.5 335 c 128,-1,10
 180 356 180 356 211.5 369 c 128,-1,11
 243 382 243 382 276 384 c 1,12,-1
 290 461 l 1,13,-1
 315 461 l 1,14,-1
 301 384 l 1,15,16
 350 381 350 381 384 358.5 c 128,-1,17
 418 336 418 336 423 292 c 1,18,-1
 374 292 l 1,19,20
 366 329 366 329 340.5 347 c 128,-1,21
 315 365 315 365 283 365 c 0,22,23
 257 365 257 365 233.5 354 c 128,-1,24
 210 343 210 343 191 324 c 128,-1,25
 172 305 172 305 158.5 280 c 128,-1,26
 145 255 145 255 140 227 c 0,27,28
 128 162 128 162 155 122.5 c 128,-1,29
 182 83 182 83 233 83 c 0,30,31
 266 83 266 83 297.5 100.5 c 128,-1,32
 329 118 329 118 350 155 c 1,33,-1
 399 155 l 1,34,35
 379 111 379 111 336 88 c 128,-1,36
 293 65 293 65 244 62 c 1,37,-1
 231 -12 l 1,0,-1
EndSplineSet
EndChar
StartChar: sterling
Encoding: 163 163 102
Width: 467
Flags: W
Fore
189 97 m 1,0,1
 176 103 176 103 160.5 105.5 c 128,-1,2
 145 108 145 108 127 108 c 0,3,4
 98 108 98 108 74 93 c 128,-1,5
 50 78 50 78 45 51 c 0,6,7
 42 32 42 32 55.5 24.5 c 128,-1,8
 69 17 69 17 91 17 c 0,9,10
 119 17 119 17 147 40 c 128,-1,11
 175 63 175 63 189 97 c 1,0,1
198 249 m 1,12,13
 196 264 196 264 195.5 280 c 128,-1,14
 195 296 195 296 199 316 c 0,15,16
 210 379 210 379 251 415.5 c 128,-1,17
 292 452 292 452 352 452 c 0,18,19
 398 452 398 452 431 435.5 c 128,-1,20
 464 419 464 419 478 377 c 1,21,-1
 422 357 l 1,22,23
 423 376 423 376 416.5 390.5 c 128,-1,24
 410 405 410 405 397 414.5 c 128,-1,25
 384 424 384 424 367 428.5 c 128,-1,26
 350 433 350 433 332 433 c 0,27,28
 317 433 317 433 302.5 427 c 128,-1,29
 288 421 288 421 276 411.5 c 128,-1,30
 264 402 264 402 255.5 389 c 128,-1,31
 247 376 247 376 245 363 c 0,32,33
 238 328 238 328 245 301.5 c 128,-1,34
 252 275 252 275 258 249 c 1,35,-1
 381 249 l 1,36,-1
 368 227 l 1,37,-1
 264 227 l 1,38,39
 265 213 265 213 265 198.5 c 128,-1,40
 265 184 265 184 262 167 c 0,41,42
 256 135 256 135 236 107 c 1,43,44
 259 98 259 98 277 86.5 c 128,-1,45
 295 75 295 75 310.5 65.5 c 128,-1,46
 326 56 326 56 341.5 49.5 c 128,-1,47
 357 43 357 43 374 43 c 0,48,49
 410 43 410 43 435 64 c 128,-1,50
 460 85 460 85 478 114 c 1,51,-1
 488 110 l 1,52,53
 478 87 478 87 463 65 c 128,-1,54
 448 43 448 43 429 26 c 128,-1,55
 410 9 410 9 387 -1.5 c 128,-1,56
 364 -12 364 -12 338 -12 c 0,57,58
 317 -12 317 -12 302 -3 c 128,-1,59
 287 6 287 6 273.5 20 c 128,-1,60
 260 34 260 34 247 50 c 128,-1,61
 234 66 234 66 217 80 c 1,62,63
 201 62 201 62 181.5 45.5 c 128,-1,64
 162 29 162 29 141 16.5 c 128,-1,65
 120 4 120 4 99 -3 c 128,-1,66
 78 -10 78 -10 58 -10 c 0,67,68
 46 -10 46 -10 34.5 -6 c 128,-1,69
 23 -2 23 -2 14.5 5.5 c 128,-1,70
 6 13 6 13 1.5 22.5 c 128,-1,71
 -3 32 -3 32 -1 44 c 0,72,73
 2 63 2 63 15 78.5 c 128,-1,74
 28 94 28 94 46.5 104 c 128,-1,75
 65 114 65 114 87 119.5 c 128,-1,76
 109 125 109 125 130 125 c 0,77,78
 149 125 149 125 165.5 123 c 128,-1,79
 182 121 182 121 196 118 c 1,80,81
 198 124 198 124 199 130 c 128,-1,82
 200 136 200 136 202 142 c 0,83,84
 207 168 207 168 205 188.5 c 128,-1,85
 203 209 203 209 201 227 c 1,86,-1
 132 227 l 1,87,-1
 145 249 l 1,88,-1
 198 249 l 1,12,13
EndSplineSet
EndChar
StartChar: currency
Encoding: 164 164 103
Width: 467
Flags: W
Fore
297 369 m 256,0,1
 267 369 267 369 238.5 357.5 c 128,-1,2
 210 346 210 346 186.5 326 c 128,-1,3
 163 306 163 306 147 280 c 128,-1,4
 131 254 131 254 126 224 c 256,5,6
 121 194 121 194 127.5 167.5 c 128,-1,7
 134 141 134 141 150 121.5 c 128,-1,8
 166 102 166 102 190.5 90.5 c 128,-1,9
 215 79 215 79 245 79 c 256,10,11
 275 79 275 79 303.5 90.5 c 128,-1,12
 332 102 332 102 355 121.5 c 128,-1,13
 378 141 378 141 394.5 167.5 c 128,-1,14
 411 194 411 194 416 224 c 256,15,16
 421 254 421 254 414.5 280 c 128,-1,17
 408 306 408 306 392 326 c 128,-1,18
 376 346 376 346 351.5 357.5 c 128,-1,19
 327 369 327 369 297 369 c 256,0,1
361 86 m 1,20,21
 334 66 334 66 303 55.5 c 128,-1,22
 272 45 272 45 239 45 c 0,23,24
 207 45 207 45 180.5 55.5 c 128,-1,25
 154 66 154 66 134 84 c 1,26,-1
 88 45 l 1,27,-1
 67 71 l 1,28,-1
 113 110 l 1,29,30
 98 133 98 133 92.5 162 c 128,-1,31
 87 191 87 191 93 224 c 0,32,33
 99 256 99 256 115 285.5 c 128,-1,34
 131 315 131 315 154 338 c 1,35,-1
 121 377 l 1,36,-1
 152 403 l 1,37,-1
 185 364 l 1,38,39
 211 382 211 382 240.5 392 c 128,-1,40
 270 402 270 402 302 402 c 256,41,42
 334 402 334 402 361 391.5 c 128,-1,43
 388 381 388 381 408 362 c 1,44,-1
 457 403 l 1,45,-1
 478 377 l 1,46,-1
 430 336 l 1,47,48
 444 313 444 313 449.5 284.5 c 128,-1,49
 455 256 455 256 450 224 c 0,50,51
 444 192 444 192 429 163.5 c 128,-1,52
 414 135 414 135 391 112 c 1,53,-1
 425 71 l 1,54,-1
 394 45 l 1,55,-1
 361 86 l 1,20,21
EndSplineSet
EndChar
StartChar: yen
Encoding: 165 165 104
Width: 458
Flags: W
Fore
290 216 m 1,0,-1
 399 216 l 1,1,-1
 395 197 l 1,2,-1
 284 197 l 1,3,-1
 274 137 l 1,4,-1
 385 137 l 1,5,-1
 381 118 l 1,6,-1
 270 118 l 1,7,-1
 250 1 l 1,8,-1
 197 1 l 1,9,-1
 217 118 l 1,10,-1
 108 118 l 1,11,-1
 112 137 l 1,12,-1
 221 137 l 1,13,-1
 231 197 l 1,14,-1
 122 197 l 1,15,-1
 126 216 l 1,16,-1
 223 216 l 1,17,-1
 85 455 l 1,18,-1
 143 455 l 1,19,-1
 274 228 l 1,20,-1
 502 455 l 1,21,-1
 533 455 l 1,22,-1
 290 216 l 1,0,-1
EndSplineSet
EndChar
StartChar: brokenbar
Encoding: 166 166 105
Width: 161
Flags: W
Fore
148 492 m 1,0,-1
 185 492 l 1,1,-1
 141 241 l 1,2,-1
 104 241 l 1,3,-1
 148 492 l 1,0,-1
83 124 m 1,4,-1
 120 124 l 1,5,-1
 76 -128 l 1,6,-1
 39 -128 l 1,7,-1
 83 124 l 1,4,-1
EndSplineSet
EndChar
StartChar: section
Encoding: 167 167 106
Width: 400
Flags: W
Fore
169 295 m 1,0,1
 155 308 155 308 148.5 327 c 128,-1,2
 142 346 142 346 147 375 c 0,3,4
 152 403 152 403 167 423.5 c 128,-1,5
 182 444 182 444 203 457 c 128,-1,6
 224 470 224 470 248.5 476 c 128,-1,7
 273 482 273 482 297 482 c 0,8,9
 318 482 318 482 338.5 477.5 c 128,-1,10
 359 473 359 473 375 462.5 c 128,-1,11
 391 452 391 452 402.5 433.5 c 128,-1,12
 414 415 414 415 417 388 c 1,13,-1
 370 388 l 1,14,15
 368 430 368 430 347 446.5 c 128,-1,16
 326 463 326 463 294 463 c 0,17,18
 256 463 256 463 229.5 445.5 c 128,-1,19
 203 428 203 428 196 388 c 0,20,21
 191 359 191 359 205 342 c 128,-1,22
 219 325 219 325 242 314 c 128,-1,23
 265 303 265 303 293.5 294.5 c 128,-1,24
 322 286 322 286 345 273.5 c 128,-1,25
 368 261 368 261 381 240.5 c 128,-1,26
 394 220 394 220 388 186 c 256,27,28
 382 152 382 152 364 131 c 128,-1,29
 346 110 346 110 324 99 c 1,30,31
 344 87 344 87 354.5 65 c 128,-1,32
 365 43 365 43 360 13 c 0,33,34
 354 -18 354 -18 335.5 -42 c 128,-1,35
 317 -66 317 -66 290 -82 c 128,-1,36
 263 -98 263 -98 230.5 -106 c 128,-1,37
 198 -114 198 -114 165 -114 c 0,38,39
 138 -114 138 -114 112 -106 c 128,-1,40
 86 -98 86 -98 66.5 -82 c 128,-1,41
 47 -66 47 -66 35.5 -43.5 c 128,-1,42
 24 -21 24 -21 27 9 c 1,43,-1
 81 9 l 1,44,45
 78 -17 78 -17 83.5 -35.5 c 128,-1,46
 89 -54 89 -54 101.5 -67 c 128,-1,47
 114 -80 114 -80 131.5 -86 c 128,-1,48
 149 -92 149 -92 169 -92 c 0,49,50
 217 -92 217 -92 255 -72.5 c 128,-1,51
 293 -53 293 -53 302 -2 c 0,52,53
 307 27 307 27 291 42.5 c 128,-1,54
 275 58 275 58 247.5 67.5 c 128,-1,55
 220 77 220 77 188 84 c 128,-1,56
 156 91 156 91 129.5 103 c 128,-1,57
 103 115 103 115 87.5 137 c 128,-1,58
 72 159 72 159 79 198 c 0,59,60
 86 235 86 235 111 258.5 c 128,-1,61
 136 282 136 282 169 295 c 1,0,1
338 172 m 0,62,63
 343 202 343 202 328 217.5 c 128,-1,64
 313 233 313 233 288 243 c 128,-1,65
 263 253 263 253 233.5 261 c 128,-1,66
 204 269 204 269 181 283 c 1,67,68
 161 272 161 272 151 254 c 128,-1,69
 141 236 141 236 136 210 c 0,70,71
 131 181 131 181 146 165.5 c 128,-1,72
 161 150 161 150 187 141 c 128,-1,73
 213 132 213 132 244.5 126 c 128,-1,74
 276 120 276 120 303 109 c 1,75,76
 319 118 319 118 326 133 c 128,-1,77
 333 148 333 148 338 172 c 0,62,63
EndSplineSet
EndChar
StartChar: dieresis
Encoding: 168 168 107
Width: 256
Flags: W
Fore
112 475 m 0,0,1
 115 490 115 490 128 501 c 128,-1,2
 141 512 141 512 156 512 c 256,3,4
 171 512 171 512 179.5 501 c 128,-1,5
 188 490 188 490 185 475 c 0,6,7
 183 460 183 460 170.5 449.5 c 128,-1,8
 158 439 158 439 143 439 c 256,9,10
 128 439 128 439 119 449.5 c 128,-1,11
 110 460 110 460 112 475 c 0,0,1
237 475 m 0,12,13
 240 490 240 490 252.5 501 c 128,-1,14
 265 512 265 512 281 512 c 0,15,16
 296 512 296 512 304.5 501 c 128,-1,17
 313 490 313 490 310 475 c 0,18,19
 308 460 308 460 295.5 449.5 c 128,-1,20
 283 439 283 439 268 439 c 0,21,22
 252 439 252 439 243.5 449.5 c 128,-1,23
 235 460 235 460 237 475 c 0,12,13
EndSplineSet
EndChar
StartChar: copyright
Encoding: 169 169 108
Width: 585
Flags: W
Fore
587 233 m 256,0,1
 578 181 578 181 549.5 136 c 128,-1,2
 521 91 521 91 480.5 57.5 c 128,-1,3
 440 24 440 24 390.5 4.5 c 128,-1,4
 341 -15 341 -15 290 -15 c 256,5,6
 239 -15 239 -15 196 4.5 c 128,-1,7
 153 24 153 24 124 57.5 c 128,-1,8
 95 91 95 91 82.5 136 c 128,-1,9
 70 181 70 181 79 233 c 256,10,11
 88 285 88 285 116.5 330.5 c 128,-1,12
 145 376 145 376 185.5 409.5 c 128,-1,13
 226 443 226 443 276 462.5 c 128,-1,14
 326 482 326 482 377 482 c 256,15,16
 428 482 428 482 470.5 462.5 c 128,-1,17
 513 443 513 443 542 409 c 128,-1,18
 571 375 571 375 583.5 330 c 128,-1,19
 596 285 596 285 587 233 c 256,0,1
552 234 m 256,20,21
 560 278 560 278 549 317.5 c 128,-1,22
 538 357 538 357 513.5 387 c 128,-1,23
 489 417 489 417 452.5 434.5 c 128,-1,24
 416 452 416 452 372 452 c 256,25,26
 328 452 328 452 285 434.5 c 128,-1,27
 242 417 242 417 207 387 c 128,-1,28
 172 357 172 357 147.5 317.5 c 128,-1,29
 123 278 123 278 115 234 c 256,30,31
 107 190 107 190 117.5 150.5 c 128,-1,32
 128 111 128 111 153 81 c 128,-1,33
 178 51 178 51 214.5 33.5 c 128,-1,34
 251 16 251 16 295 16 c 0,35,36
 338 16 338 16 381 33.5 c 128,-1,37
 424 51 424 51 459 81 c 128,-1,38
 494 111 494 111 519 150.5 c 128,-1,39
 544 190 544 190 552 234 c 256,20,21
464 180 m 1,40,41
 442 134 442 134 400 114.5 c 128,-1,42
 358 95 358 95 313 95 c 0,43,44
 283 95 283 95 256.5 105 c 128,-1,45
 230 115 230 115 211.5 133.5 c 128,-1,46
 193 152 193 152 184.5 178 c 128,-1,47
 176 204 176 204 182 235 c 256,48,49
 188 266 188 266 205.5 292 c 128,-1,50
 223 318 223 318 248 337 c 128,-1,51
 273 356 273 356 303 366 c 128,-1,52
 333 376 333 376 363 376 c 0,53,54
 385 376 385 376 406 371.5 c 128,-1,55
 427 367 427 367 443.5 356.5 c 128,-1,56
 460 346 460 346 470.5 330 c 128,-1,57
 481 314 481 314 484 291 c 1,58,-1
 437 291 l 1,59,60
 431 320 431 320 409.5 338 c 128,-1,61
 388 356 388 356 356 356 c 0,62,63
 333 356 333 356 312.5 345.5 c 128,-1,64
 292 335 292 335 275.5 318 c 128,-1,65
 259 301 259 301 248.5 280 c 128,-1,66
 238 259 238 259 234 238 c 0,67,68
 230 215 230 215 232.5 193 c 128,-1,69
 235 171 235 171 245 154 c 128,-1,70
 255 137 255 137 272 126 c 128,-1,71
 289 115 289 115 314 115 c 0,72,73
 346 115 346 115 373.5 133 c 128,-1,74
 401 151 401 151 418 180 c 1,75,-1
 464 180 l 1,40,41
EndSplineSet
EndChar
StartChar: ordfeminine
Encoding: 170 170 109
Width: 262
Flags: W
Fore
250 226 m 1,0,1
 248 234 248 234 247.5 241.5 c 128,-1,2
 247 249 247 249 249 257 c 1,3,4
 226 235 226 235 200.5 227.5 c 128,-1,5
 175 220 175 220 147 220 c 0,6,7
 128 220 128 220 111 224.5 c 128,-1,8
 94 229 94 229 82 238 c 128,-1,9
 70 247 70 247 64 260.5 c 128,-1,10
 58 274 58 274 61 292 c 0,11,12
 65 316 65 316 82.5 331 c 128,-1,13
 100 346 100 346 124 355 c 128,-1,14
 148 364 148 364 175 367 c 128,-1,15
 202 370 202 370 225 370 c 2,16,-1
 239 370 l 2,17,18
 245 370 245 370 252 370.5 c 128,-1,19
 259 371 259 371 264 371 c 1,20,-1
 265 375 l 2,21,22
 270 403 270 403 257.5 423.5 c 128,-1,23
 245 444 245 444 208 444 c 0,24,25
 194 444 194 444 181 439 c 128,-1,26
 168 434 168 434 158 425.5 c 128,-1,27
 148 417 148 417 141 407 c 128,-1,28
 134 397 134 397 133 387 c 1,29,-1
 89 387 l 1,30,31
 106 429 106 429 139 445 c 128,-1,32
 172 461 172 461 211 461 c 0,33,34
 267 461 267 461 288.5 438 c 128,-1,35
 310 415 310 415 302 374 c 2,36,-1
 287 286 l 2,37,38
 281 252 281 252 289 226 c 1,39,-1
 250 226 l 1,0,1
222 353 m 2,40,41
 202 353 202 353 182.5 349.5 c 128,-1,42
 163 346 163 346 147 338.5 c 128,-1,43
 131 331 131 331 120 319 c 128,-1,44
 109 307 109 307 106 291 c 0,45,46
 102 269 102 269 118.5 252.5 c 128,-1,47
 135 236 135 236 162 236 c 0,48,49
 196 236 196 236 222.5 261 c 128,-1,50
 249 286 249 286 257 330 c 2,51,-1
 261 353 l 1,52,-1
 222 353 l 2,40,41
EndSplineSet
EndChar
StartChar: guillemotleft
Encoding: 171 171 110
Width: 366
Flags: W
Fore
234 308 m 1,0,-1
 117 190 l 1,1,-1
 192 72 l 1,2,-1
 150 49 l 1,3,-1
 81 190 l 1,4,-1
 200 331 l 1,5,-1
 234 308 l 1,0,-1
353 308 m 1,6,-1
 236 190 l 1,7,-1
 311 72 l 1,8,-1
 269 49 l 1,9,-1
 201 190 l 1,10,-1
 319 331 l 1,11,-1
 353 308 l 1,6,-1
EndSplineSet
EndChar
StartChar: logicalnot
Encoding: 172 172 111
Width: 420
Flags: W
Fore
393 245 m 1,0,-1
 57 245 l 1,1,-1
 63 282 l 1,2,-1
 436 282 l 1,3,-1
 401 84 l 1,4,-1
 364 84 l 1,5,-1
 393 245 l 1,0,-1
EndSplineSet
EndChar
StartChar: registered
Encoding: 174 174 112
Width: 585
Flags: W
Fore
587 233 m 256,0,1
 578 181 578 181 549.5 136 c 128,-1,2
 521 91 521 91 480.5 57.5 c 128,-1,3
 440 24 440 24 390.5 4.5 c 128,-1,4
 341 -15 341 -15 290 -15 c 256,5,6
 239 -15 239 -15 196 4.5 c 128,-1,7
 153 24 153 24 124 57.5 c 128,-1,8
 95 91 95 91 82.5 136 c 128,-1,9
 70 181 70 181 79 233 c 256,10,11
 88 285 88 285 116.5 330.5 c 128,-1,12
 145 376 145 376 185.5 409.5 c 128,-1,13
 226 443 226 443 276 462.5 c 128,-1,14
 326 482 326 482 377 482 c 256,15,16
 428 482 428 482 470.5 462.5 c 128,-1,17
 513 443 513 443 542 409.5 c 128,-1,18
 571 376 571 376 583.5 330.5 c 128,-1,19
 596 285 596 285 587 233 c 256,0,1
552 234 m 0,20,21
 559 278 559 278 548.5 317.5 c 128,-1,22
 538 357 538 357 513.5 387 c 128,-1,23
 489 417 489 417 452.5 434.5 c 128,-1,24
 416 452 416 452 372 452 c 256,25,26
 328 452 328 452 285 434.5 c 128,-1,27
 242 417 242 417 207 387 c 128,-1,28
 172 357 172 357 147.5 317.5 c 128,-1,29
 123 278 123 278 115 234 c 256,30,31
 107 190 107 190 117.5 150.5 c 128,-1,32
 128 111 128 111 153 81 c 128,-1,33
 178 51 178 51 214.5 33.5 c 128,-1,34
 251 16 251 16 295 16 c 0,35,36
 338 16 338 16 381 33.5 c 128,-1,37
 424 51 424 51 459 81 c 128,-1,38
 494 111 494 111 519 150.5 c 128,-1,39
 544 190 544 190 552 234 c 0,20,21
398 101 m 1,40,41
 390 113 390 113 387 134 c 128,-1,42
 384 155 384 155 379 174.5 c 128,-1,43
 374 194 374 194 364.5 208.5 c 128,-1,44
 355 223 355 223 336 223 c 2,45,-1
 271 223 l 1,46,-1
 249 101 l 1,47,-1
 209 101 l 1,48,-1
 256 367 l 1,49,-1
 339 367 l 2,50,51
 356 367 356 367 378.5 365 c 128,-1,52
 401 363 401 363 420.5 356 c 128,-1,53
 440 349 440 349 452 335.5 c 128,-1,54
 464 322 464 322 460 298 c 0,55,56
 458 284 458 284 449.5 272.5 c 128,-1,57
 441 261 441 261 429 252.5 c 128,-1,58
 417 244 417 244 403 238 c 128,-1,59
 389 232 389 232 377 230 c 1,60,61
 400 227 400 227 409 211.5 c 128,-1,62
 418 196 418 196 421.5 176 c 128,-1,63
 425 156 425 156 428.5 135 c 128,-1,64
 432 114 432 114 445 101 c 1,65,-1
 398 101 l 1,40,41
412 298 m 0,66,67
 415 317 415 317 406.5 327.5 c 128,-1,68
 398 338 398 338 383 342.5 c 128,-1,69
 368 347 368 347 350.5 347.5 c 128,-1,70
 333 348 333 348 319 348 c 2,71,-1
 293 348 l 1,72,-1
 274 242 l 1,73,-1
 304 242 l 2,74,75
 320 242 320 242 337.5 243 c 128,-1,76
 355 244 355 244 370 249 c 128,-1,77
 385 254 385 254 396.5 265.5 c 128,-1,78
 408 277 408 277 412 298 c 0,66,67
EndSplineSet
EndChar
StartChar: macron
Encoding: 175 175 113
Width: 222
Flags: W
Fore
87 494 m 1,0,-1
 309 494 l 1,1,-1
 302 455 l 1,2,-1
 80 455 l 1,3,-1
 87 494 l 1,0,-1
EndSplineSet
EndChar
StartChar: degree
Encoding: 176 176 114
Width: 250
Flags: W
Fore
206 461 m 256,0,1
 228 461 228 461 245.5 452.5 c 128,-1,2
 263 444 263 444 274.5 429.5 c 128,-1,3
 286 415 286 415 291 395.5 c 128,-1,4
 296 376 296 376 292 354 c 256,5,6
 288 332 288 332 276.5 313 c 128,-1,7
 265 294 265 294 248 279.5 c 128,-1,8
 231 265 231 265 210.5 257 c 128,-1,9
 190 249 190 249 168 249 c 256,10,11
 146 249 146 249 128 257 c 128,-1,12
 110 265 110 265 98.5 279.5 c 128,-1,13
 87 294 87 294 82 313 c 128,-1,14
 77 332 77 332 81 354 c 256,15,16
 85 376 85 376 96.5 395.5 c 128,-1,17
 108 415 108 415 125 429.5 c 128,-1,18
 142 444 142 444 163 452.5 c 128,-1,19
 184 461 184 461 206 461 c 256,0,1
201 432 m 0,20,21
 185 432 185 432 170 426 c 128,-1,22
 155 420 155 420 142.5 409.5 c 128,-1,23
 130 399 130 399 121.5 384.5 c 128,-1,24
 113 370 113 370 110 354 c 0,25,26
 105 322 105 322 123 299.5 c 128,-1,27
 141 277 141 277 173 277 c 0,28,29
 189 277 189 277 204 283 c 128,-1,30
 219 289 219 289 231.5 299.5 c 128,-1,31
 244 310 244 310 252.5 324 c 128,-1,32
 261 338 261 338 264 354 c 0,33,34
 270 386 270 386 251.5 409 c 128,-1,35
 233 432 233 432 201 432 c 0,20,21
EndSplineSet
EndChar
StartChar: plusminus
Encoding: 177 177 115
Width: 432
Flags: W
Fore
272 216 m 1,0,-1
 248 83 l 1,1,-1
 212 83 l 1,2,-1
 236 216 l 1,3,-1
 68 216 l 1,4,-1
 73 247 l 1,5,-1
 241 247 l 1,6,-1
 264 379 l 1,7,-1
 300 379 l 1,8,-1
 277 247 l 1,9,-1
 445 247 l 1,10,-1
 440 216 l 1,11,-1
 272 216 l 1,0,-1
30 0 m 1,12,-1
 35 32 l 1,13,-1
 407 32 l 1,14,-1
 402 0 l 1,15,-1
 30 0 l 1,12,-1
EndSplineSet
EndChar
StartChar: twosuperior
Encoding: 178 178 116
Width: 277
Flags: W
Fore
47 184 m 1,0,1
 56 211 56 211 73.5 229 c 128,-1,2
 91 247 91 247 112.5 260 c 128,-1,3
 134 273 134 273 158 283 c 128,-1,4
 182 293 182 293 204 304 c 0,5,6
 227 316 227 316 245.5 331.5 c 128,-1,7
 264 347 264 347 269 373 c 0,8,9
 274 400 274 400 258.5 420 c 128,-1,10
 243 440 243 440 205 440 c 0,11,12
 172 440 172 440 146 422 c 128,-1,13
 120 404 120 404 113 369 c 1,14,-1
 75 369 l 1,15,16
 89 414 89 414 126 436.5 c 128,-1,17
 163 459 163 459 208 459 c 0,18,19
 231 459 231 459 251 453.5 c 128,-1,20
 271 448 271 448 285 437.5 c 128,-1,21
 299 427 299 427 305.5 410.5 c 128,-1,22
 312 394 312 394 308 373 c 0,23,24
 304 348 304 348 288.5 331 c 128,-1,25
 273 314 273 314 251.5 301.5 c 128,-1,26
 230 289 230 289 206 279.5 c 128,-1,27
 182 270 182 270 160 261 c 128,-1,28
 138 252 138 252 121 241.5 c 128,-1,29
 104 231 104 231 98 216 c 1,30,-1
 288 216 l 1,31,-1
 282 184 l 1,32,-1
 47 184 l 1,33,-1
 47 184 l 1,0,1
EndSplineSet
EndChar
StartChar: threesuperior
Encoding: 179 179 117
Width: 277
Flags: W
Fore
170 178 m 0,0,1
 126 178 126 178 96 200 c 128,-1,2
 66 222 66 222 68 267 c 1,3,-1
 107 267 l 1,4,5
 100 232 100 232 120.5 213.5 c 128,-1,6
 141 195 141 195 173 195 c 0,7,8
 207 195 207 195 237 213 c 128,-1,9
 267 231 267 231 273 262 c 0,10,11
 276 280 276 280 267 292 c 128,-1,12
 258 304 258 304 242 310 c 128,-1,13
 226 316 226 316 205 316.5 c 128,-1,14
 184 317 184 317 163 313 c 1,15,-1
 167 337 l 1,16,17
 189 333 189 333 208.5 336 c 128,-1,18
 228 339 228 339 243 347 c 128,-1,19
 258 355 258 355 268 366.5 c 128,-1,20
 278 378 278 378 281 392 c 0,21,22
 285 414 285 414 269 429.5 c 128,-1,23
 253 445 253 445 219 445 c 0,24,25
 190 445 190 445 170.5 427.5 c 128,-1,26
 151 410 151 410 143 381 c 1,27,-1
 104 381 l 1,28,29
 114 419 114 419 147 440 c 128,-1,30
 180 461 180 461 222 461 c 0,31,32
 267 461 267 461 296.5 444.5 c 128,-1,33
 326 428 326 428 320 392 c 0,34,35
 315 368 315 368 296.5 351.5 c 128,-1,36
 278 335 278 335 256 328 c 1,37,38
 281 323 281 323 298.5 306.5 c 128,-1,39
 316 290 316 290 311 261 c 0,40,41
 307 240 307 240 293.5 224 c 128,-1,42
 280 208 280 208 260.5 198 c 128,-1,43
 241 188 241 188 217.5 183 c 128,-1,44
 194 178 194 178 170 178 c 0,0,1
EndSplineSet
EndChar
StartChar: acute
Encoding: 180 180 118
Width: 183
Flags: W
Fore
117 425 m 1,0,-1
 248 539 l 2,1,2
 259 550 259 550 274 550 c 0,3,4
 283 550 283 550 288 543.5 c 128,-1,5
 293 537 293 537 291 528 c 256,6,7
 289 519 289 519 281.5 513 c 128,-1,8
 274 507 274 507 258 496 c 2,9,-1
 138 424 l 1,10,-1
 117 425 l 1,0,-1
EndSplineSet
EndChar
StartChar: mu
Encoding: 181 181 119
Width: 443
Flags: W
Fore
355 0 m 1,0,-1
 359 79 l 1,1,2
 332 34 332 34 287 11 c 128,-1,3
 242 -12 242 -12 194 -12 c 0,4,5
 135 -12 135 -12 105 29 c 1,6,-1
 75 -137 l 1,7,-1
 23 -137 l 1,8,-1
 114 379 l 1,9,-1
 167 379 l 1,10,-1
 127 153 l 2,11,12
 122 125 122 125 123 99.5 c 128,-1,13
 124 74 124 74 133 54.5 c 128,-1,14
 142 35 142 35 161 23.5 c 128,-1,15
 180 12 180 12 211 12 c 0,16,17
 244 12 244 12 271.5 24.5 c 128,-1,18
 299 37 299 37 320 58.5 c 128,-1,19
 341 80 341 80 355 107.5 c 128,-1,20
 369 135 369 135 375 165 c 2,21,-1
 412 379 l 1,22,-1
 461 379 l 1,23,-1
 395 0 l 1,24,-1
 355 0 l 1,0,-1
EndSplineSet
EndChar
StartChar: paragraph
Encoding: 182 182 120
Width: 366
Flags: W
Fore
364 442 m 1,0,-1
 269 -98 l 1,1,-1
 233 -98 l 1,2,-1
 328 442 l 1,3,-1
 277 442 l 1,4,-1
 182 -98 l 1,5,-1
 145 -98 l 1,6,-1
 193 171 l 1,7,8
 122 171 122 171 93 214 c 128,-1,9
 64 257 64 257 76 325 c 0,10,11
 82 357 82 357 97.5 383.5 c 128,-1,12
 113 410 113 410 135.5 428.5 c 128,-1,13
 158 447 158 447 186.5 457.5 c 128,-1,14
 215 468 215 468 247 468 c 2,15,-1
 429 468 l 1,16,-1
 424 442 l 1,17,-1
 364 442 l 1,0,-1
EndSplineSet
EndChar
StartChar: periodcentered
Encoding: 183 183 121
Width: 169
Flags: W
Fore
81 190 m 256,0,1
 84 205 84 205 96.5 216 c 128,-1,2
 109 227 109 227 124 227 c 0,3,4
 140 227 140 227 148.5 216 c 128,-1,5
 157 205 157 205 154 190 c 256,6,7
 151 175 151 175 139 164.5 c 128,-1,8
 127 154 127 154 111 154 c 0,9,10
 96 154 96 154 87 164.5 c 128,-1,11
 78 175 78 175 81 190 c 256,0,1
EndSplineSet
EndChar
StartChar: cedilla
Encoding: 184 184 122
Width: 147
Flags: W
Fore
63 0 m 1,0,-1
 82 0 l 1,1,-1
 52 -50 l 1,2,3
 62 -47 62 -47 69 -47 c 128,-1,4
 76 -47 76 -47 85 -47 c 0,5,6
 105 -47 105 -47 119.5 -61 c 128,-1,7
 134 -75 134 -75 129 -97 c 0,8,9
 126 -112 126 -112 116.5 -123.5 c 128,-1,10
 107 -135 107 -135 93.5 -142.5 c 128,-1,11
 80 -150 80 -150 64.5 -153.5 c 128,-1,12
 49 -157 49 -157 34 -157 c 0,13,14
 16 -157 16 -157 1.5 -155.5 c 128,-1,15
 -13 -154 -13 -154 -24 -147 c 1,16,-1
 -14 -127 l 1,17,18
 2 -136 2 -136 28 -136 c 0,19,20
 44 -136 44 -136 60 -128 c 128,-1,21
 76 -120 76 -120 80 -101 c 0,22,23
 82 -87 82 -87 72 -77.5 c 128,-1,24
 62 -68 62 -68 51 -68 c 0,25,26
 42 -68 42 -68 32.5 -69.5 c 128,-1,27
 23 -71 23 -71 20 -72 c 1,28,-1
 63 0 l 1,0,-1
EndSplineSet
EndChar
StartChar: onesuperior
Encoding: 185 185 123
Width: 211
Flags: W
Fore
188 406 m 1,0,-1
 121 406 l 1,1,-1
 124 423 l 1,2,3
 145 423 145 423 158.5 424.5 c 128,-1,4
 172 426 172 426 181.5 431 c 128,-1,5
 191 436 191 436 198.5 444 c 128,-1,6
 206 452 206 452 215 466 c 1,7,-1
 240 466 l 1,8,-1
 190 183 l 1,9,-1
 149 183 l 1,10,-1
 188 406 l 1,0,-1
EndSplineSet
EndChar
StartChar: ordmasculine
Encoding: 186 186 124
Width: 306
Flags: W
Fore
191 218 m 256,0,1
 162 218 162 218 139 227.5 c 128,-1,2
 116 237 116 237 101 253.5 c 128,-1,3
 86 270 86 270 80 292 c 128,-1,4
 74 314 74 314 78 339 c 256,5,6
 82 364 82 364 96.5 385.5 c 128,-1,7
 111 407 111 407 132 423.5 c 128,-1,8
 153 440 153 440 179 449.5 c 128,-1,9
 205 459 205 459 233 459 c 0,10,11
 260 459 260 459 283 449.5 c 128,-1,12
 306 440 306 440 321.5 423.5 c 128,-1,13
 337 407 337 407 343.5 385.5 c 128,-1,14
 350 364 350 364 346 339 c 256,15,16
 342 314 342 314 328 292 c 128,-1,17
 314 270 314 270 293 253.5 c 128,-1,18
 272 237 272 237 246 227.5 c 128,-1,19
 220 218 220 218 191 218 c 256,0,1
230 440 m 256,20,21
 192 440 192 440 162.5 413 c 128,-1,22
 133 386 133 386 125 338 c 0,23,24
 117 293 117 293 134.5 265 c 128,-1,25
 152 237 152 237 194 237 c 0,26,27
 235 237 235 237 262.5 265 c 128,-1,28
 290 293 290 293 298 338 c 0,29,30
 306 386 306 386 287 413 c 128,-1,31
 268 440 268 440 230 440 c 256,20,21
EndSplineSet
EndChar
StartChar: guillemotright
Encoding: 187 187 125
Width: 366
Flags: W
Fore
282 331 m 1,0,-1
 351 190 l 1,1,-1
 232 49 l 1,2,-1
 199 72 l 1,3,-1
 315 190 l 1,4,-1
 241 308 l 1,5,-1
 282 331 l 1,0,-1
163 331 m 1,6,-1
 232 190 l 1,7,-1
 113 49 l 1,8,-1
 79 72 l 1,9,-1
 196 190 l 1,10,-1
 121 308 l 1,11,-1
 163 331 l 1,6,-1
EndSplineSet
EndChar
StartChar: onequarter
Encoding: 188 188 126
Width: 704
Flags: W
Fore
124 -11 m 1,0,-1
 529 460 l 1,1,-1
 559 460 l 1,2,-1
 154 -11 l 1,3,-1
 124 -11 l 1,0,-1
507 65 m 1,4,-1
 496 0 l 1,5,-1
 458 0 l 1,6,-1
 469 65 l 1,7,-1
 326 65 l 1,8,-1
 319 77 l 1,9,-1
 536 276 l 1,10,-1
 544 276 l 1,11,-1
 511 87 l 1,12,-1
 575 87 l 1,13,-1
 560 65 l 1,14,-1
 507 65 l 1,4,-1
359 87 m 1,15,-1
 473 87 l 1,16,-1
 495 213 l 1,17,-1
 359 87 l 1,15,-1
197 406 m 1,18,-1
 139 406 l 1,19,-1
 142 423 l 1,20,21
 163 423 163 423 175 424.5 c 128,-1,22
 187 426 187 426 195 431 c 128,-1,23
 203 436 203 436 209 444 c 128,-1,24
 215 452 215 452 224 466 c 1,25,-1
 245 466 l 1,26,-1
 195 186 l 1,27,-1
 158 186 l 1,28,-1
 197 406 l 1,18,-1
EndSplineSet
Ligature: 0 0 'frac' one fraction four
Ligature: 0 0 'frac' one slash four
EndChar
StartChar: onehalf
Encoding: 189 189 127
Width: 704
Flags: W
Fore
142 -11 m 1,0,-1
 113 -11 l 1,1,-1
 521 460 l 1,2,-1
 550 460 l 1,3,-1
 142 -11 l 1,0,-1
369 0 m 1,4,5
 377 27 377 27 394 45 c 128,-1,6
 411 63 411 63 432.5 76 c 128,-1,7
 454 89 454 89 478 99 c 128,-1,8
 502 109 502 109 525 120 c 256,9,10
 548 131 548 131 567 147 c 128,-1,11
 586 163 586 163 591 189 c 0,12,13
 596 217 596 217 579 236 c 128,-1,14
 562 255 562 255 524 255 c 0,15,16
 492 255 492 255 465.5 237 c 128,-1,17
 439 219 439 219 433 184 c 1,18,-1
 394 184 l 1,19,20
 409 230 409 230 446 252.5 c 128,-1,21
 483 275 483 275 528 275 c 0,22,23
 551 275 551 275 571 269.5 c 128,-1,24
 591 264 591 264 605.5 253.5 c 128,-1,25
 620 243 620 243 626.5 226.5 c 128,-1,26
 633 210 633 210 629 189 c 0,27,28
 624 164 624 164 608.5 146.5 c 128,-1,29
 593 129 593 129 571.5 116.5 c 128,-1,30
 550 104 550 104 525.5 94.5 c 128,-1,31
 501 85 501 85 479 76 c 128,-1,32
 457 67 457 67 440 56.5 c 128,-1,33
 423 46 423 46 417 32 c 1,34,-1
 607 32 l 1,35,-1
 602 0 l 1,36,-1
 369 0 l 1,4,5
195 406 m 1,37,-1
 137 406 l 1,38,-1
 140 423 l 1,39,40
 161 423 161 423 173 424.5 c 128,-1,41
 185 426 185 426 193 431 c 128,-1,42
 201 436 201 436 207 444 c 128,-1,43
 213 452 213 452 222 466 c 1,44,-1
 243 466 l 1,45,-1
 193 186 l 1,46,-1
 156 186 l 1,47,-1
 195 406 l 1,37,-1
EndSplineSet
Ligature: 0 0 'frac' one fraction two
Ligature: 0 0 'frac' one slash two
EndChar
StartChar: threequarters
Encoding: 190 190 128
Width: 704
Flags: W
Fore
201 -11 m 1,0,-1
 609 460 l 1,1,-1
 638 460 l 1,2,-1
 230 -11 l 1,3,-1
 201 -11 l 1,0,-1
565 65 m 1,4,-1
 554 0 l 1,5,-1
 516 0 l 1,6,-1
 527 65 l 1,7,-1
 383 65 l 1,8,-1
 377 77 l 1,9,-1
 593 276 l 1,10,-1
 602 276 l 1,11,-1
 569 87 l 1,12,-1
 632 87 l 1,13,-1
 618 65 l 1,14,-1
 565 65 l 1,4,-1
416 87 m 1,15,-1
 531 87 l 1,16,-1
 553 213 l 1,17,-1
 416 87 l 1,15,-1
206 182 m 0,18,19
 162 182 162 182 131.5 204.5 c 128,-1,20
 101 227 101 227 103 272 c 1,21,-1
 142 272 l 1,22,23
 136 237 136 237 156.5 218.5 c 128,-1,24
 177 200 177 200 209 200 c 0,25,26
 244 200 244 200 273.5 218 c 128,-1,27
 303 236 303 236 309 267 c 0,28,29
 312 285 312 285 303 297 c 128,-1,30
 294 309 294 309 278 315 c 128,-1,31
 262 321 262 321 241 321.5 c 128,-1,32
 220 322 220 322 199 318 c 1,33,-1
 203 342 l 1,34,35
 247 334 247 334 279 349 c 128,-1,36
 311 364 311 364 316 392 c 0,37,38
 320 414 320 414 304 429.5 c 128,-1,39
 288 445 288 445 254 445 c 0,40,41
 225 445 225 445 205 427.5 c 128,-1,42
 185 410 185 410 177 381 c 1,43,-1
 139 381 l 1,44,45
 150 419 150 419 183 440 c 128,-1,46
 216 461 216 461 257 461 c 0,47,48
 279 461 279 461 298 457 c 128,-1,49
 317 453 317 453 330.5 444.5 c 128,-1,50
 344 436 344 436 350.5 423 c 128,-1,51
 357 410 357 410 354 392 c 0,52,53
 349 368 349 368 331 354 c 128,-1,54
 313 340 313 340 291 333 c 1,55,56
 317 328 317 328 334 311.5 c 128,-1,57
 351 295 351 295 346 266 c 0,58,59
 342 244 342 244 328.5 228.5 c 128,-1,60
 315 213 315 213 295.5 202.5 c 128,-1,61
 276 192 276 192 253 187 c 128,-1,62
 230 182 230 182 206 182 c 0,18,19
EndSplineSet
Ligature: 0 0 'frac' three fraction four
Ligature: 0 0 'frac' three slash four
EndChar
StartChar: questiondown
Encoding: 191 191 129
Width: 359
Flags: W
Fore
38 32 m 0,0,1
 43 59 43 59 58.5 78.5 c 128,-1,2
 74 98 74 98 95 114.5 c 128,-1,3
 116 131 116 131 140 147 c 128,-1,4
 164 163 164 163 185.5 183.5 c 128,-1,5
 207 204 207 204 223 231.5 c 128,-1,6
 239 259 239 259 245 298 c 1,7,-1
 257 298 l 1,8,9
 254 252 254 252 243 221 c 128,-1,10
 232 190 232 190 216.5 168 c 128,-1,11
 201 146 201 146 183 130.5 c 128,-1,12
 165 115 165 115 148.5 100.5 c 128,-1,13
 132 86 132 86 120 69.5 c 128,-1,14
 108 53 108 53 104 30 c 0,15,16
 98 -2 98 -2 101.5 -23 c 128,-1,17
 105 -44 105 -44 115.5 -56.5 c 128,-1,18
 126 -69 126 -69 141.5 -74 c 128,-1,19
 157 -79 157 -79 175 -79 c 0,20,21
 220 -79 220 -79 251.5 -47.5 c 128,-1,22
 283 -16 283 -16 294 50 c 1,23,-1
 347 50 l 1,24,25
 341 12 341 12 323.5 -15.5 c 128,-1,26
 306 -43 306 -43 282 -62 c 128,-1,27
 258 -81 258 -81 229 -90 c 128,-1,28
 200 -99 200 -99 169 -99 c 0,29,30
 141 -99 141 -99 114.5 -91.5 c 128,-1,31
 88 -84 88 -84 69 -68 c 128,-1,32
 50 -52 50 -52 41 -27.5 c 128,-1,33
 32 -3 32 -3 38 32 c 0,0,1
227 357 m 0,34,35
 230 371 230 371 241.5 381 c 128,-1,36
 253 391 253 391 267 391 c 256,37,38
 281 391 281 391 289 381 c 128,-1,39
 297 371 297 371 294 357 c 0,40,41
 292 343 292 343 281 333.5 c 128,-1,42
 270 324 270 324 256 324 c 256,43,44
 242 324 242 324 233.5 333.5 c 128,-1,45
 225 343 225 343 227 357 c 0,34,35
EndSplineSet
EndChar
StartChar: Aacute
Encoding: 193 193 130
Width: 534
Flags: W
Fore
529 0 m 1,0,-1
 364 482 l 1,1,-1
 353 482 l 1,2,-1
 5 0 l 1,3,-1
 37 0 l 1,4,-1
 206 239 l 1,5,-1
 382 239 l 1,6,-1
 466 0 l 1,7,-1
 529 0 l 1,0,-1
375 263 m 1,8,-1
 224 263 l 1,9,-1
 328 409 l 1,10,-1
 375 263 l 1,8,-1
226 504 m 1,11,-1
 355 617 l 2,12,13
 367 628 367 628 382 628 c 0,14,15
 392 628 392 628 396.5 621.5 c 128,-1,16
 401 615 401 615 399 606 c 0,17,18
 397 598 397 598 390 591.5 c 128,-1,19
 383 585 383 585 367 575 c 2,20,-1
 247 503 l 1,21,-1
 226 504 l 1,11,-1
EndSplineSet
Ligature: 0 0 'liga' A acutecomb
EndChar
StartChar: Acircumflex
Encoding: 194 194 131
Width: 534
Flags: W
Fore
466 0 m 1,0,-1
 382 239 l 1,1,-1
 206 239 l 1,2,-1
 37 0 l 1,3,-1
 5 0 l 1,4,-1
 353 482 l 1,5,-1
 364 482 l 1,6,-1
 529 0 l 1,7,-1
 466 0 l 1,0,-1
328 409 m 1,8,-1
 224 263 l 1,9,-1
 375 263 l 1,10,-1
 328 409 l 1,8,-1
447 492 m 1,11,-1
 372 571 l 1,12,-1
 270 492 l 1,13,-1
 249 492 l 1,14,-1
 358 613 l 1,15,-1
 401 613 l 1,16,-1
 467 492 l 1,17,-1
 447 492 l 1,11,-1
EndSplineSet
EndChar
StartChar: Atilde
Encoding: 195 195 132
Width: 534
Flags: W
Fore
466 0 m 1,0,-1
 382 239 l 1,1,-1
 206 239 l 1,2,-1
 37 0 l 1,3,-1
 5 0 l 1,4,-1
 353 482 l 1,5,-1
 364 482 l 1,6,-1
 529 0 l 1,7,-1
 466 0 l 1,0,-1
328 409 m 1,8,-1
 224 263 l 1,9,-1
 375 263 l 1,10,-1
 328 409 l 1,8,-1
248 507 m 1,11,12
 256 527 256 527 268 543 c 0,13,14
 279 557 279 557 295 568 c 128,-1,15
 311 579 311 579 334 579 c 0,16,17
 350 579 350 579 363 573.5 c 128,-1,18
 376 568 376 568 387.5 561 c 128,-1,19
 399 554 399 554 409.5 548.5 c 128,-1,20
 420 543 420 543 431 543 c 0,21,22
 443 543 443 543 452 549 c 128,-1,23
 461 555 461 555 468 563 c 0,24,25
 475 572 475 572 481 583 c 1,26,-1
 497 583 l 1,27,28
 489 561 489 561 477 544 c 0,29,30
 466 530 466 530 449.5 518 c 128,-1,31
 433 506 433 506 408 506 c 0,32,33
 391 506 391 506 379 511.5 c 128,-1,34
 367 517 367 517 357 524 c 128,-1,35
 347 531 347 531 337 536.5 c 128,-1,36
 327 542 327 542 314 542 c 0,37,38
 302 542 302 542 292.5 536.5 c 128,-1,39
 283 531 283 531 277 524 c 0,40,41
 270 516 270 516 265 507 c 1,42,-1
 248 507 l 1,11,12
EndSplineSet
Ligature: 0 0 'liga' A tildecomb
EndChar
StartChar: Adieresis
Encoding: 196 196 133
Width: 534
Flags: W
Fore
466 0 m 1,0,-1
 382 239 l 1,1,-1
 206 239 l 1,2,-1
 37 0 l 1,3,-1
 5 0 l 1,4,-1
 353 482 l 1,5,-1
 364 482 l 1,6,-1
 529 0 l 1,7,-1
 466 0 l 1,0,-1
328 409 m 1,8,-1
 224 263 l 1,9,-1
 375 263 l 1,10,-1
 328 409 l 1,8,-1
269 539 m 0,11,12
 272 554 272 554 285 565 c 128,-1,13
 298 576 298 576 313 576 c 256,14,15
 328 576 328 576 336.5 565 c 128,-1,16
 345 554 345 554 342 539 c 0,17,18
 340 524 340 524 327.5 513.5 c 128,-1,19
 315 503 315 503 300 503 c 256,20,21
 285 503 285 503 276 513.5 c 128,-1,22
 267 524 267 524 269 539 c 0,11,12
394 539 m 0,23,24
 397 554 397 554 409.5 565 c 128,-1,25
 422 576 422 576 438 576 c 0,26,27
 453 576 453 576 461.5 565 c 128,-1,28
 470 554 470 554 467 539 c 0,29,30
 465 524 465 524 452.5 513.5 c 128,-1,31
 440 503 440 503 425 503 c 0,32,33
 409 503 409 503 400.5 513.5 c 128,-1,34
 392 524 392 524 394 539 c 0,23,24
EndSplineSet
EndChar
StartChar: Aring
Encoding: 197 197 134
Width: 534
Flags: W
Fore
328 409 m 1,0,-1
 224 263 l 1,1,-1
 375 263 l 1,2,-1
 328 409 l 1,0,-1
375 567 m 256,3,4
 355 567 355 567 339 553 c 128,-1,5
 323 539 323 539 319 519 c 256,6,7
 315 499 315 499 327 485.5 c 128,-1,8
 339 472 339 472 359 472 c 256,9,10
 379 472 379 472 394.5 485.5 c 128,-1,11
 410 499 410 499 414 519 c 256,12,13
 418 539 418 539 406.5 553 c 128,-1,14
 395 567 395 567 375 567 c 256,3,4
380 591 m 0,15,16
 409 591 409 591 426 570.5 c 128,-1,17
 443 550 443 550 438 519 c 0,18,19
 433 495 433 495 415.5 476.5 c 128,-1,20
 398 458 398 458 374 451 c 1,21,-1
 529 0 l 1,22,-1
 466 0 l 1,23,-1
 382 239 l 1,24,-1
 206 239 l 1,25,-1
 37 0 l 1,26,-1
 5 0 l 1,27,-1
 332 452 l 1,28,29
 312 460 312 460 301.5 478 c 128,-1,30
 291 496 291 496 295 519 c 0,31,32
 300 550 300 550 325 570.5 c 128,-1,33
 350 591 350 591 380 591 c 0,15,16
EndSplineSet
EndChar
StartChar: AE
Encoding: 198 198 135
Width: 715
Flags: W
Fore
362 0 m 1,0,-1
 404 239 l 1,1,-1
 239 239 l 1,2,-1
 35 0 l 1,3,-1
 0 0 l 1,4,-1
 401 467 l 1,5,-1
 787 467 l 1,6,-1
 782 442 l 1,7,-1
 494 442 l 1,8,-1
 463 263 l 1,9,-1
 680 263 l 1,10,-1
 676 239 l 1,11,-1
 459 239 l 1,12,-1
 421 24 l 1,13,-1
 709 24 l 1,14,-1
 705 0 l 1,15,-1
 362 0 l 1,0,-1
439 442 m 1,16,-1
 413 442 l 1,17,-1
 260 263 l 1,18,-1
 408 263 l 1,19,-1
 439 442 l 1,16,-1
EndSplineSet
EndChar
StartChar: Egrave
Encoding: 200 200 137
Width: 451
Flags: W
Fore
50 0 m 1,0,-1
 132 467 l 1,1,-1
 523 467 l 1,2,-1
 518 442 l 1,3,-1
 181 442 l 1,4,-1
 150 263 l 1,5,-1
 415 263 l 1,6,-1
 411 239 l 1,7,-1
 146 239 l 1,8,-1
 108 24 l 1,9,-1
 445 24 l 1,10,-1
 441 0 l 1,11,-1
 50 0 l 1,0,-1
390 501 m 1,12,-1
 297 573 l 2,13,14
 284 583 284 583 278.5 589.5 c 128,-1,15
 273 596 273 596 275 604 c 0,16,17
 277 613 277 613 283.5 619.5 c 128,-1,18
 290 626 290 626 299 626 c 0,19,20
 315 626 315 626 322 615 c 2,21,-1
 411 502 l 1,22,-1
 390 501 l 1,12,-1
EndSplineSet
Ligature: 0 0 'liga' E gravecomb
EndChar
StartChar: Eacute
Encoding: 201 201 138
Width: 451
Flags: W
Fore
441 0 m 1,0,-1
 445 24 l 1,1,-1
 108 24 l 1,2,-1
 146 239 l 1,3,-1
 411 239 l 1,4,-1
 415 263 l 1,5,-1
 150 263 l 1,6,-1
 181 442 l 1,7,-1
 518 442 l 1,8,-1
 523 467 l 1,9,-1
 132 467 l 1,10,-1
 50 0 l 1,11,-1
 441 0 l 1,0,-1
257 507 m 1,12,-1
 386 620 l 2,13,14
 398 631 398 631 413 631 c 0,15,16
 423 631 423 631 427.5 624.5 c 128,-1,17
 432 618 432 618 430 609 c 0,18,19
 428 601 428 601 421 594.5 c 128,-1,20
 414 588 414 588 398 578 c 2,21,-1
 278 506 l 1,22,-1
 257 507 l 1,12,-1
EndSplineSet
Ligature: 0 0 'liga' E acutecomb
EndChar
StartChar: Igrave
Encoding: 204 204 141
Width: 162
Flags: W
Fore
53 0 m 1,0,-1
 135 467 l 1,1,-1
 189 467 l 1,2,-1
 107 0 l 1,3,-1
 53 0 l 1,0,-1
224 503 m 1,4,-1
 131 575 l 2,5,6
 118 585 118 585 112.5 591.5 c 128,-1,7
 107 598 107 598 109 606 c 0,8,9
 111 615 111 615 117.5 621.5 c 128,-1,10
 124 628 124 628 133 628 c 0,11,12
 149 628 149 628 156 617 c 2,13,-1
 245 504 l 1,14,-1
 224 503 l 1,4,-1
EndSplineSet
Ligature: 0 0 'liga' I gravecomb
EndChar
StartChar: Iacute
Encoding: 205 205 142
Width: 162
Flags: W
Fore
107 0 m 1,0,-1
 189 467 l 1,1,-1
 135 467 l 1,2,-1
 53 0 l 1,3,-1
 107 0 l 1,0,-1
88 504 m 1,4,-1
 217 617 l 2,5,6
 229 628 229 628 244 628 c 0,7,8
 254 628 254 628 258.5 621.5 c 128,-1,9
 263 615 263 615 261 606 c 0,10,11
 259 598 259 598 252 591.5 c 128,-1,12
 245 585 245 585 229 575 c 2,13,-1
 109 503 l 1,14,-1
 88 504 l 1,4,-1
EndSplineSet
Ligature: 0 0 'liga' I acutecomb
EndChar
StartChar: Icircumflex
Encoding: 206 206 143
Width: 162
Flags: W
Fore
53 0 m 1,0,-1
 135 467 l 1,1,-1
 189 467 l 1,2,-1
 107 0 l 1,3,-1
 53 0 l 1,0,-1
260 498 m 1,4,-1
 185 577 l 1,5,-1
 83 498 l 1,6,-1
 62 498 l 1,7,-1
 171 619 l 1,8,-1
 214 619 l 1,9,-1
 280 498 l 1,10,-1
 260 498 l 1,4,-1
EndSplineSet
EndChar
StartChar: Idieresis
Encoding: 207 207 144
Width: 162
Flags: W
Fore
53 0 m 1,0,-1
 135 467 l 1,1,-1
 189 467 l 1,2,-1
 107 0 l 1,3,-1
 53 0 l 1,0,-1
78 536 m 0,4,5
 81 551 81 551 94 562 c 128,-1,6
 107 573 107 573 122 573 c 256,7,8
 137 573 137 573 145.5 562 c 128,-1,9
 154 551 154 551 151 536 c 0,10,11
 149 521 149 521 136.5 510.5 c 128,-1,12
 124 500 124 500 109 500 c 256,13,14
 94 500 94 500 85 510.5 c 128,-1,15
 76 521 76 521 78 536 c 0,4,5
203 536 m 0,16,17
 206 551 206 551 218.5 562 c 128,-1,18
 231 573 231 573 247 573 c 0,19,20
 262 573 262 573 270.5 562 c 128,-1,21
 279 551 279 551 276 536 c 0,22,23
 274 521 274 521 261.5 510.5 c 128,-1,24
 249 500 249 500 234 500 c 0,25,26
 218 500 218 500 209.5 510.5 c 128,-1,27
 201 521 201 521 203 536 c 0,16,17
EndSplineSet
EndChar
StartChar: Eth
Encoding: 208 208 145
Width: 574
Flags: W
Fore
592 248 m 0,0,1
 583 196 583 196 560.5 151 c 128,-1,2
 538 106 538 106 496.5 72.5 c 128,-1,3
 455 39 455 39 391.5 19.5 c 128,-1,4
 328 0 328 0 237 0 c 2,5,-1
 67 0 l 1,6,-1
 109 239 l 1,7,-1
 53 239 l 1,8,-1
 57 263 l 1,9,-1
 113 263 l 1,10,-1
 149 467 l 1,11,-1
 315 467 l 2,12,13
 403 467 403 467 460.5 450 c 128,-1,14
 518 433 518 433 550 403.5 c 128,-1,15
 582 374 582 374 591 334 c 128,-1,16
 600 294 600 294 592 248 c 0,0,1
526 248 m 0,17,18
 533 289 533 289 528 324.5 c 128,-1,19
 523 360 523 360 500 386 c 128,-1,20
 477 412 477 412 434 427 c 128,-1,21
 391 442 391 442 324 442 c 2,22,-1
 198 442 l 1,23,-1
 167 263 l 1,24,-1
 302 263 l 1,25,-1
 298 239 l 1,26,-1
 163 239 l 1,27,-1
 125 24 l 1,28,-1
 251 24 l 2,29,30
 318 24 318 24 366.5 39 c 128,-1,31
 415 54 415 54 447 83 c 128,-1,32
 479 112 479 112 498 153.5 c 128,-1,33
 517 195 517 195 526 248 c 0,17,18
EndSplineSet
EndChar
StartChar: Ntilde
Encoding: 209 209 146
Width: 534
Flags: W
Fore
474 -14 m 1,0,-1
 154 419 l 1,1,-1
 81 0 l 1,2,-1
 50 0 l 1,3,-1
 132 467 l 1,4,-1
 192 467 l 1,5,-1
 469 91 l 1,6,-1
 535 467 l 1,7,-1
 566 467 l 1,8,-1
 481 -14 l 1,9,-1
 474 -14 l 1,0,-1
243 499 m 1,10,11
 251 519 251 519 263 535 c 0,12,13
 274 549 274 549 290 560 c 128,-1,14
 306 571 306 571 329 571 c 0,15,16
 345 571 345 571 358 565.5 c 128,-1,17
 371 560 371 560 382.5 553 c 128,-1,18
 394 546 394 546 404.5 540.5 c 128,-1,19
 415 535 415 535 426 535 c 0,20,21
 438 535 438 535 447 541 c 128,-1,22
 456 547 456 547 463 555 c 0,23,24
 470 564 470 564 476 575 c 1,25,-1
 492 575 l 1,26,27
 484 553 484 553 472 536 c 0,28,29
 461 522 461 522 444.5 510 c 128,-1,30
 428 498 428 498 403 498 c 0,31,32
 386 498 386 498 374 503.5 c 128,-1,33
 362 509 362 509 352 516 c 128,-1,34
 342 523 342 523 332 528.5 c 128,-1,35
 322 534 322 534 309 534 c 0,36,37
 297 534 297 534 287.5 528.5 c 128,-1,38
 278 523 278 523 272 516 c 0,39,40
 265 508 265 508 260 499 c 1,41,-1
 243 499 l 1,10,11
EndSplineSet
EndChar
StartChar: Ograve
Encoding: 210 210 147
Width: 595
Flags: W
Fore
611 233 m 0,0,1
 601 177 601 177 570 131 c 128,-1,2
 539 85 539 85 495.5 52 c 128,-1,3
 452 19 452 19 399.5 1 c 128,-1,4
 347 -17 347 -17 294 -17 c 256,5,6
 241 -17 241 -17 195 1 c 128,-1,7
 149 19 149 19 117 52 c 128,-1,8
 85 85 85 85 70 131 c 128,-1,9
 55 177 55 177 65 232 c 256,10,11
 75 287 75 287 106 333 c 128,-1,12
 137 379 137 379 181 412 c 128,-1,13
 225 445 225 445 277.5 463.5 c 128,-1,14
 330 482 330 482 382 482 c 256,15,16
 434 482 434 482 480 464 c 128,-1,17
 526 446 526 446 558.5 413 c 128,-1,18
 591 380 591 380 606 334 c 128,-1,19
 621 288 621 288 611 233 c 0,0,1
544 233 m 0,20,21
 552 279 552 279 545.5 321 c 128,-1,22
 539 363 539 363 518.5 394.5 c 128,-1,23
 498 426 498 426 463 444.5 c 128,-1,24
 428 463 428 463 379 463 c 0,25,26
 329 463 329 463 287.5 444.5 c 128,-1,27
 246 426 246 426 214 394.5 c 128,-1,28
 182 363 182 363 160.5 321 c 128,-1,29
 139 279 139 279 131 232 c 256,30,31
 123 185 123 185 129.5 143.5 c 128,-1,32
 136 102 136 102 156.5 70.5 c 128,-1,33
 177 39 177 39 212 20.5 c 128,-1,34
 247 2 247 2 297 2 c 0,35,36
 346 2 346 2 388 20.5 c 128,-1,37
 430 39 430 39 462 71 c 128,-1,38
 494 103 494 103 515 144.5 c 128,-1,39
 536 186 536 186 544 233 c 0,20,21
451 501 m 1,40,-1
 358 573 l 2,41,42
 345 583 345 583 339.5 589.5 c 128,-1,43
 334 596 334 596 336 604 c 0,44,45
 338 613 338 613 344.5 619.5 c 128,-1,46
 351 626 351 626 360 626 c 0,47,48
 376 626 376 626 383 615 c 2,49,-1
 472 502 l 1,50,-1
 451 501 l 1,40,-1
EndSplineSet
Ligature: 0 0 'liga' O gravecomb
EndChar
StartChar: Oacute
Encoding: 211 211 148
Width: 595
Flags: W
Fore
611 233 m 0,0,1
 621 288 621 288 606 334 c 128,-1,2
 591 380 591 380 558.5 413 c 128,-1,3
 526 446 526 446 480 464 c 128,-1,4
 434 482 434 482 382 482 c 256,5,6
 330 482 330 482 277.5 463.5 c 128,-1,7
 225 445 225 445 181 412 c 128,-1,8
 137 379 137 379 106 333 c 128,-1,9
 75 287 75 287 65 232 c 256,10,11
 55 177 55 177 70 131 c 128,-1,12
 85 85 85 85 117 52 c 128,-1,13
 149 19 149 19 195 1 c 128,-1,14
 241 -17 241 -17 294 -17 c 256,15,16
 347 -17 347 -17 399.5 1 c 128,-1,17
 452 19 452 19 495.5 52 c 128,-1,18
 539 85 539 85 570 131 c 128,-1,19
 601 177 601 177 611 233 c 0,0,1
544 233 m 0,20,21
 536 186 536 186 515 144.5 c 128,-1,22
 494 103 494 103 462 71 c 128,-1,23
 430 39 430 39 388 20.5 c 128,-1,24
 346 2 346 2 297 2 c 0,25,26
 247 2 247 2 212 20.5 c 128,-1,27
 177 39 177 39 156.5 70.5 c 128,-1,28
 136 102 136 102 129.5 143.5 c 128,-1,29
 123 185 123 185 131 232 c 256,30,31
 139 279 139 279 160.5 321 c 128,-1,32
 182 363 182 363 214 394.5 c 128,-1,33
 246 426 246 426 287.5 444.5 c 128,-1,34
 329 463 329 463 379 463 c 0,35,36
 428 463 428 463 463 444.5 c 128,-1,37
 498 426 498 426 518.5 394.5 c 128,-1,38
 539 363 539 363 545.5 321 c 128,-1,39
 552 279 552 279 544 233 c 0,20,21
316 502 m 1,40,-1
 445 615 l 2,41,42
 457 626 457 626 472 626 c 0,43,44
 482 626 482 626 486.5 619.5 c 128,-1,45
 491 613 491 613 489 604 c 0,46,47
 487 596 487 596 480 589.5 c 128,-1,48
 473 583 473 583 457 573 c 2,49,-1
 337 501 l 1,50,-1
 316 502 l 1,40,-1
EndSplineSet
Ligature: 0 0 'liga' O acutecomb
EndChar
StartChar: Otilde
Encoding: 213 213 150
Width: 595
Flags: W
Fore
611 233 m 0,0,1
 601 177 601 177 570 131 c 128,-1,2
 539 85 539 85 495.5 52 c 128,-1,3
 452 19 452 19 399.5 1 c 128,-1,4
 347 -17 347 -17 294 -17 c 256,5,6
 241 -17 241 -17 195 1 c 128,-1,7
 149 19 149 19 117 52 c 128,-1,8
 85 85 85 85 70 131 c 128,-1,9
 55 177 55 177 65 232 c 256,10,11
 75 287 75 287 106 333 c 128,-1,12
 137 379 137 379 181 412 c 128,-1,13
 225 445 225 445 277.5 463.5 c 128,-1,14
 330 482 330 482 382 482 c 256,15,16
 434 482 434 482 480 464 c 128,-1,17
 526 446 526 446 558.5 413 c 128,-1,18
 591 380 591 380 606 334 c 128,-1,19
 621 288 621 288 611 233 c 0,0,1
544 233 m 0,20,21
 552 279 552 279 545.5 321 c 128,-1,22
 539 363 539 363 518.5 394.5 c 128,-1,23
 498 426 498 426 463 444.5 c 128,-1,24
 428 463 428 463 379 463 c 0,25,26
 329 463 329 463 287.5 444.5 c 128,-1,27
 246 426 246 426 214 394.5 c 128,-1,28
 182 363 182 363 160.5 321 c 128,-1,29
 139 279 139 279 131 232 c 256,30,31
 123 185 123 185 129.5 143.5 c 128,-1,32
 136 102 136 102 156.5 70.5 c 128,-1,33
 177 39 177 39 212 20.5 c 128,-1,34
 247 2 247 2 297 2 c 0,35,36
 346 2 346 2 388 20.5 c 128,-1,37
 430 39 430 39 462 71 c 128,-1,38
 494 103 494 103 515 144.5 c 128,-1,39
 536 186 536 186 544 233 c 0,20,21
264 506 m 1,40,41
 272 526 272 526 284 542 c 0,42,43
 295 556 295 556 311 567 c 128,-1,44
 327 578 327 578 350 578 c 0,45,46
 366 578 366 578 379 572.5 c 128,-1,47
 392 567 392 567 403.5 560 c 128,-1,48
 415 553 415 553 425.5 547.5 c 128,-1,49
 436 542 436 542 447 542 c 0,50,51
 459 542 459 542 468 548 c 128,-1,52
 477 554 477 554 484 562 c 0,53,54
 491 571 491 571 497 582 c 1,55,-1
 513 582 l 1,56,57
 505 560 505 560 493 543 c 0,58,59
 482 529 482 529 465.5 517 c 128,-1,60
 449 505 449 505 424 505 c 0,61,62
 407 505 407 505 395 510.5 c 128,-1,63
 383 516 383 516 373 523 c 128,-1,64
 363 530 363 530 353 535.5 c 128,-1,65
 343 541 343 541 330 541 c 0,66,67
 318 541 318 541 308.5 535.5 c 128,-1,68
 299 530 299 530 293 523 c 0,69,70
 286 515 286 515 281 506 c 1,71,-1
 264 506 l 1,40,41
EndSplineSet
Ligature: 0 0 'liga' O tildecomb
EndChar
StartChar: multiply
Encoding: 215 215 152
Width: 432
Flags: W
Fore
244 163 m 1,0,-1
 57 2 l 1,1,-1
 35 28 l 1,2,-1
 223 190 l 1,3,-1
 92 351 l 1,4,-1
 123 377 l 1,5,-1
 254 216 l 1,6,-1
 441 377 l 1,7,-1
 462 351 l 1,8,-1
 275 190 l 1,9,-1
 405 28 l 1,10,-1
 375 2 l 1,11,-1
 244 163 l 1,0,-1
EndSplineSet
EndChar
StartChar: Oslash
Encoding: 216 216 153
Width: 619
Flags: W
Fore
573 416 m 1,0,1
 607 381 607 381 622 334 c 128,-1,2
 637 287 637 287 628 233 c 0,3,4
 619 182 619 182 589.5 136.5 c 128,-1,5
 560 91 560 91 517 57 c 128,-1,6
 474 23 474 23 420.5 3.5 c 128,-1,7
 367 -16 367 -16 310 -16 c 0,8,9
 262 -16 262 -16 221.5 -2.5 c 128,-1,10
 181 11 181 11 151 36 c 1,11,-1
 57 -49 l 1,12,-1
 16 -49 l 1,13,-1
 131 55 l 1,14,15
 99 89 99 89 85 134.5 c 128,-1,16
 71 180 71 180 81 233 c 0,17,18
 90 285 90 285 119.5 330 c 128,-1,19
 149 375 149 375 192 409 c 128,-1,20
 235 443 235 443 288 462.5 c 128,-1,21
 341 482 341 482 397 482 c 0,22,23
 443 482 443 482 482.5 469 c 128,-1,24
 522 456 522 456 552 433 c 1,25,-1
 643 516 l 1,26,-1
 684 516 l 1,27,-1
 573 416 l 1,0,1
561 234 m 0,28,29
 569 278 569 278 561.5 315.5 c 128,-1,30
 554 353 554 353 535 382 c 1,31,-1
 184 66 l 1,32,33
 208 38 208 38 241 22.5 c 128,-1,34
 274 7 274 7 313 7 c 0,35,36
 355 7 355 7 395.5 24.5 c 128,-1,37
 436 42 436 42 470 73 c 128,-1,38
 504 104 504 104 528 145 c 128,-1,39
 552 186 552 186 561 234 c 0,28,29
147 234 m 0,40,41
 139 192 139 192 145.5 155 c 128,-1,42
 152 118 152 118 169 88 c 1,43,-1
 519 403 l 1,44,45
 495 429 495 429 462.5 443.5 c 128,-1,46
 430 458 430 458 392 458 c 0,47,48
 351 458 351 458 310.5 441 c 128,-1,49
 270 424 270 424 236.5 394 c 128,-1,50
 203 364 203 364 179.5 323 c 128,-1,51
 156 282 156 282 147 234 c 0,40,41
EndSplineSet
EndChar
StartChar: Ugrave
Encoding: 217 217 154
Width: 573
Flags: W
Fore
556 190 m 2,0,1
 547 136 547 136 521.5 97.5 c 128,-1,2
 496 59 496 59 459.5 33.5 c 128,-1,3
 423 8 423 8 377.5 -4 c 128,-1,4
 332 -16 332 -16 283 -16 c 256,5,6
 234 -16 234 -16 193 -4 c 128,-1,7
 152 8 152 8 124.5 33.5 c 128,-1,8
 97 59 97 59 85.5 98 c 128,-1,9
 74 137 74 137 83 190 c 2,10,-1
 132 467 l 1,11,-1
 186 467 l 1,12,-1
 135 179 l 2,13,14
 128 139 128 139 136.5 107 c 128,-1,15
 145 75 145 75 165.5 52.5 c 128,-1,16
 186 30 186 30 217 18 c 128,-1,17
 248 6 248 6 287 6 c 256,18,19
 326 6 326 6 361.5 18 c 128,-1,20
 397 30 397 30 425.5 52.5 c 128,-1,21
 454 75 454 75 474 107 c 128,-1,22
 494 139 494 139 501 179 c 2,23,-1
 552 467 l 1,24,-1
 605 467 l 1,25,-1
 556 190 l 2,0,1
434 496 m 1,26,-1
 341 568 l 2,27,28
 328 578 328 578 322.5 584.5 c 128,-1,29
 317 591 317 591 319 599 c 0,30,31
 321 608 321 608 327.5 614.5 c 128,-1,32
 334 621 334 621 343 621 c 0,33,34
 359 621 359 621 366 610 c 2,35,-1
 455 497 l 1,36,-1
 434 496 l 1,26,-1
EndSplineSet
Ligature: 0 0 'liga' U gravecomb
EndChar
StartChar: Uacute
Encoding: 218 218 155
Width: 573
Flags: W
Fore
556 190 m 2,0,-1
 605 467 l 1,1,-1
 552 467 l 1,2,-1
 501 179 l 2,3,4
 494 139 494 139 474 107 c 128,-1,5
 454 75 454 75 425.5 52.5 c 128,-1,6
 397 30 397 30 361.5 18 c 128,-1,7
 326 6 326 6 287 6 c 256,8,9
 248 6 248 6 217 18 c 128,-1,10
 186 30 186 30 165.5 52.5 c 128,-1,11
 145 75 145 75 136.5 107 c 128,-1,12
 128 139 128 139 135 179 c 2,13,-1
 186 467 l 1,14,-1
 132 467 l 1,15,-1
 83 190 l 2,16,17
 74 137 74 137 85.5 98 c 128,-1,18
 97 59 97 59 124.5 33.5 c 128,-1,19
 152 8 152 8 193 -4 c 128,-1,20
 234 -16 234 -16 283 -16 c 256,21,22
 332 -16 332 -16 377.5 -4 c 128,-1,23
 423 8 423 8 459.5 33.5 c 128,-1,24
 496 59 496 59 521.5 97.5 c 128,-1,25
 547 136 547 136 556 190 c 2,0,-1
296 498 m 1,26,-1
 425 611 l 2,27,28
 437 622 437 622 452 622 c 0,29,30
 462 622 462 622 466.5 615.5 c 128,-1,31
 471 609 471 609 469 600 c 0,32,33
 467 592 467 592 460 585.5 c 128,-1,34
 453 579 453 579 437 569 c 2,35,-1
 317 497 l 1,36,-1
 296 498 l 1,26,-1
EndSplineSet
Ligature: 0 0 'liga' U acutecomb
EndChar
StartChar: Yacute
Encoding: 221 221 158
Width: 481
Flags: W
Fore
558 467 m 1,0,-1
 526 467 l 1,1,-1
 287 228 l 1,2,-1
 146 467 l 1,3,-1
 87 467 l 1,4,-1
 241 200 l 1,5,-1
 206 0 l 1,6,-1
 262 0 l 1,7,-1
 299 210 l 1,8,-1
 558 467 l 1,0,-1
257 499 m 1,9,-1
 386 612 l 2,10,11
 398 623 398 623 413 623 c 0,12,13
 423 623 423 623 427.5 616.5 c 128,-1,14
 432 610 432 610 430 601 c 0,15,16
 428 593 428 593 421 586.5 c 128,-1,17
 414 580 414 580 398 570 c 2,18,-1
 278 498 l 1,19,-1
 257 499 l 1,9,-1
EndSplineSet
Ligature: 0 0 'liga' Y acutecomb
EndChar
StartChar: Thorn
Encoding: 222 222 159
Width: 457
Flags: W
Fore
469 230 m 0,0,1
 464 204 464 204 451 185 c 128,-1,2
 438 166 438 166 418.5 153 c 128,-1,3
 399 140 399 140 374.5 131.5 c 128,-1,4
 350 123 350 123 324 118 c 0,5,6
 271 109 271 109 219 109 c 0,7,8
 194 108 194 108 173 108.5 c 128,-1,9
 152 109 152 109 135 109 c 1,10,-1
 116 0 l 1,11,-1
 62 0 l 1,12,-1
 137 428 l 1,13,-1
 190 428 l 1,14,-1
 175 343 l 1,15,16
 190 343 190 343 211 343.5 c 128,-1,17
 232 344 232 344 257 344 c 0,18,19
 282 343 282 343 308.5 341.5 c 128,-1,20
 335 340 335 340 360 335 c 0,21,22
 384 330 384 330 406 322.5 c 128,-1,23
 428 315 428 315 443.5 302.5 c 128,-1,24
 459 290 459 290 466 272 c 128,-1,25
 473 254 473 254 469 230 c 0,0,1
400 230 m 0,26,27
 406 261 406 261 389 279 c 128,-1,28
 372 297 372 297 345.5 306 c 128,-1,29
 319 315 319 315 288 317 c 128,-1,30
 257 319 257 319 234 319 c 2,31,-1
 172 319 l 1,32,-1
 139 134 l 1,33,-1
 198 134 l 2,34,35
 225 134 225 134 257.5 136 c 128,-1,36
 290 138 290 138 320 147 c 128,-1,37
 350 156 350 156 372 175.5 c 128,-1,38
 394 195 394 195 400 230 c 0,26,27
EndSplineSet
EndChar
StartChar: uni00DF
Encoding: 223 223 160
Width: 454
Flags: W
Fore
103 0 m 1,0,-1
 50 0 l 1,1,-1
 111 347 l 2,2,3
 126 434 126 434 179.5 481.5 c 128,-1,4
 233 529 233 529 308 529 c 0,5,6
 339 529 339 529 368 522 c 128,-1,7
 397 515 397 515 418 500 c 128,-1,8
 439 485 439 485 449 460.5 c 128,-1,9
 459 436 459 436 453 401 c 0,10,11
 445 354 445 354 411 325 c 128,-1,12
 377 296 377 296 323 284 c 1,13,14
 351 284 351 284 377 273 c 128,-1,15
 403 262 403 262 421 242.5 c 128,-1,16
 439 223 439 223 448 196.5 c 128,-1,17
 457 170 457 170 452 139 c 0,18,19
 447 107 447 107 429.5 79.5 c 128,-1,20
 412 52 412 52 386.5 31.5 c 128,-1,21
 361 11 361 11 330 -0.5 c 128,-1,22
 299 -12 299 -12 267 -12 c 0,23,24
 241 -12 241 -12 210.5 -6.5 c 128,-1,25
 180 -1 180 -1 161 17 c 1,26,-1
 195 66 l 1,27,28
 198 58 198 58 205.5 48 c 128,-1,29
 213 38 213 38 223.5 30 c 128,-1,30
 234 22 234 22 246.5 16.5 c 128,-1,31
 259 11 259 11 273 11 c 0,32,33
 295 11 295 11 313 22.5 c 128,-1,34
 331 34 331 34 345 52 c 128,-1,35
 359 70 359 70 368 92.5 c 128,-1,36
 377 115 377 115 381 137 c 0,37,38
 385 162 385 162 383 186.5 c 128,-1,39
 381 211 381 211 371 230 c 128,-1,40
 361 249 361 249 343 260.5 c 128,-1,41
 325 272 325 272 298 272 c 0,42,43
 284 272 284 272 277 272 c 128,-1,44
 270 272 270 272 257 270 c 1,45,-1
 261 294 l 1,46,47
 272 291 272 291 279.5 291.5 c 128,-1,48
 287 292 287 292 300 292 c 0,49,50
 318 292 318 292 333 301 c 128,-1,51
 348 310 348 310 358.5 325 c 128,-1,52
 369 340 369 340 376 358.5 c 128,-1,53
 383 377 383 377 386 396 c 0,54,55
 397 456 397 456 373 481 c 128,-1,56
 349 506 349 506 304 506 c 0,57,58
 244 506 244 506 211 465.5 c 128,-1,59
 178 425 178 425 164 349 c 2,60,-1
 103 0 l 1,0,-1
EndSplineSet
EndChar
StartChar: agrave
Encoding: 224 224 161
Width: 402
Flags: W
Fore
326 0 m 1,0,1
 323 16 323 16 322.5 29.5 c 128,-1,2
 322 43 322 43 324 58 c 1,3,4
 290 19 290 19 251 4.5 c 128,-1,5
 212 -10 212 -10 164 -10 c 0,6,7
 139 -10 139 -10 114 -4 c 128,-1,8
 89 2 89 2 70.5 15 c 128,-1,9
 52 28 52 28 42 49 c 128,-1,10
 32 70 32 70 37 99 c 0,11,12
 42 130 42 130 61.5 150.5 c 128,-1,13
 81 171 81 171 108.5 184 c 128,-1,14
 136 197 136 197 169 204 c 128,-1,15
 202 211 202 211 234.5 213.5 c 128,-1,16
 267 216 267 216 297 216 c 128,-1,17
 327 216 327 216 348 216 c 1,18,-1
 350 230 l 2,19,20
 359 282 359 282 333 308 c 128,-1,21
 307 334 307 334 256 334 c 0,22,23
 239 334 239 334 219.5 328.5 c 128,-1,24
 200 323 200 323 183 312.5 c 128,-1,25
 166 302 166 302 153 286.5 c 128,-1,26
 140 271 140 271 137 252 c 1,27,-1
 82 252 l 1,28,29
 94 282 94 282 113 302.5 c 128,-1,30
 132 323 132 323 155.5 335.5 c 128,-1,31
 179 348 179 348 206 353.5 c 128,-1,32
 233 359 233 359 261 359 c 0,33,34
 308 359 308 359 336 349 c 128,-1,35
 364 339 364 339 378.5 321.5 c 128,-1,36
 393 304 393 304 395.5 280 c 128,-1,37
 398 256 398 256 395 229 c 0,38,39
 391 201 391 201 384 171.5 c 128,-1,40
 377 142 377 142 371.5 112.5 c 128,-1,41
 366 83 366 83 365 54.5 c 128,-1,42
 364 26 364 26 372 0 c 1,43,-1
 326 0 l 1,0,1
275 191 m 2,44,45
 251 191 251 191 222 187.5 c 128,-1,46
 193 184 193 184 166.5 174 c 128,-1,47
 140 164 140 164 120 146 c 128,-1,48
 100 128 100 128 95 98 c 0,49,50
 91 77 91 77 97.5 61.5 c 128,-1,51
 104 46 104 46 117.5 35 c 128,-1,52
 131 24 131 24 149 18.5 c 128,-1,53
 167 13 167 13 186 13 c 0,54,55
 217 13 217 13 242.5 25 c 128,-1,56
 268 37 268 37 287.5 57 c 128,-1,57
 307 77 307 77 320 103.5 c 128,-1,58
 333 130 333 130 338 159 c 2,59,-1
 343 191 l 1,60,-1
 275 191 l 2,44,45
322 388 m 1,61,-1
 229 460 l 2,62,63
 216 470 216 470 210.5 476.5 c 128,-1,64
 205 483 205 483 207 491 c 0,65,66
 209 500 209 500 215.5 506.5 c 128,-1,67
 222 513 222 513 231 513 c 0,68,69
 247 513 247 513 254 502 c 2,70,-1
 343 389 l 1,71,-1
 322 388 l 1,61,-1
EndSplineSet
Ligature: 0 0 'liga' a gravecomb
EndChar
StartChar: aacute
Encoding: 225 225 162
Width: 402
Flags: W
Fore
372 0 m 1,0,1
 364 26 364 26 365 54.5 c 128,-1,2
 366 83 366 83 371.5 112.5 c 128,-1,3
 377 142 377 142 384 171.5 c 128,-1,4
 391 201 391 201 395 229 c 0,5,6
 398 256 398 256 395.5 280 c 128,-1,7
 393 304 393 304 378.5 321.5 c 128,-1,8
 364 339 364 339 336 349 c 128,-1,9
 308 359 308 359 261 359 c 0,10,11
 233 359 233 359 206 353.5 c 128,-1,12
 179 348 179 348 155.5 335.5 c 128,-1,13
 132 323 132 323 113 302.5 c 128,-1,14
 94 282 94 282 82 252 c 1,15,-1
 137 252 l 1,16,17
 140 271 140 271 153 286.5 c 128,-1,18
 166 302 166 302 183 312.5 c 128,-1,19
 200 323 200 323 219.5 328.5 c 128,-1,20
 239 334 239 334 256 334 c 0,21,22
 307 334 307 334 333 308 c 128,-1,23
 359 282 359 282 350 230 c 2,24,-1
 348 216 l 1,25,26
 327 216 327 216 297 216 c 128,-1,27
 267 216 267 216 234.5 213.5 c 128,-1,28
 202 211 202 211 169 204 c 128,-1,29
 136 197 136 197 108.5 184 c 128,-1,30
 81 171 81 171 61.5 150.5 c 128,-1,31
 42 130 42 130 37 99 c 0,32,33
 32 70 32 70 42 49 c 128,-1,34
 52 28 52 28 70.5 15 c 128,-1,35
 89 2 89 2 114 -4 c 128,-1,36
 139 -10 139 -10 164 -10 c 0,37,38
 212 -10 212 -10 251 4.5 c 128,-1,39
 290 19 290 19 324 58 c 1,40,41
 322 43 322 43 322.5 29.5 c 128,-1,42
 323 16 323 16 326 0 c 1,43,-1
 372 0 l 1,0,1
343 191 m 1,44,-1
 338 159 l 2,45,46
 333 130 333 130 320 103.5 c 128,-1,47
 307 77 307 77 287.5 57 c 128,-1,48
 268 37 268 37 242.5 25 c 128,-1,49
 217 13 217 13 186 13 c 0,50,51
 167 13 167 13 149 18.5 c 128,-1,52
 131 24 131 24 117.5 35 c 128,-1,53
 104 46 104 46 97.5 61.5 c 128,-1,54
 91 77 91 77 95 98 c 0,55,56
 100 128 100 128 120 146 c 128,-1,57
 140 164 140 164 166.5 174 c 128,-1,58
 193 184 193 184 222 187.5 c 128,-1,59
 251 191 251 191 275 191 c 2,60,-1
 343 191 l 1,44,-1
191 387 m 1,61,-1
 320 500 l 2,62,63
 332 511 332 511 347 511 c 0,64,65
 357 511 357 511 361.5 504.5 c 128,-1,66
 366 498 366 498 364 489 c 0,67,68
 362 481 362 481 355 474.5 c 128,-1,69
 348 468 348 468 332 458 c 2,70,-1
 212 386 l 1,71,-1
 191 387 l 1,61,-1
EndSplineSet
Ligature: 0 0 'liga' a acutecomb
EndChar
StartChar: atilde
Encoding: 227 227 164
Width: 402
Flags: W
Fore
326 0 m 1,0,1
 323 16 323 16 322.5 29.5 c 128,-1,2
 322 43 322 43 324 58 c 1,3,4
 290 19 290 19 251 4.5 c 128,-1,5
 212 -10 212 -10 164 -10 c 0,6,7
 139 -10 139 -10 114 -4 c 128,-1,8
 89 2 89 2 70.5 15 c 128,-1,9
 52 28 52 28 42 49 c 128,-1,10
 32 70 32 70 37 99 c 0,11,12
 42 130 42 130 61.5 150.5 c 128,-1,13
 81 171 81 171 108.5 184 c 128,-1,14
 136 197 136 197 169 204 c 128,-1,15
 202 211 202 211 234.5 213.5 c 128,-1,16
 267 216 267 216 297 216 c 128,-1,17
 327 216 327 216 348 216 c 1,18,-1
 350 230 l 2,19,20
 359 282 359 282 333 308 c 128,-1,21
 307 334 307 334 256 334 c 0,22,23
 239 334 239 334 219.5 328.5 c 128,-1,24
 200 323 200 323 183 312.5 c 128,-1,25
 166 302 166 302 153 286.5 c 128,-1,26
 140 271 140 271 137 252 c 1,27,-1
 82 252 l 1,28,29
 94 282 94 282 113 302.5 c 128,-1,30
 132 323 132 323 155.5 335.5 c 128,-1,31
 179 348 179 348 206 353.5 c 128,-1,32
 233 359 233 359 261 359 c 0,33,34
 308 359 308 359 336 349 c 128,-1,35
 364 339 364 339 378.5 321.5 c 128,-1,36
 393 304 393 304 395.5 280 c 128,-1,37
 398 256 398 256 395 229 c 0,38,39
 391 201 391 201 384 171.5 c 128,-1,40
 377 142 377 142 371.5 112.5 c 128,-1,41
 366 83 366 83 365 54.5 c 128,-1,42
 364 26 364 26 372 0 c 1,43,-1
 326 0 l 1,0,1
275 191 m 2,44,45
 251 191 251 191 222 187.5 c 128,-1,46
 193 184 193 184 166.5 174 c 128,-1,47
 140 164 140 164 120 146 c 128,-1,48
 100 128 100 128 95 98 c 0,49,50
 91 77 91 77 97.5 61.5 c 128,-1,51
 104 46 104 46 117.5 35 c 128,-1,52
 131 24 131 24 149 18.5 c 128,-1,53
 167 13 167 13 186 13 c 0,54,55
 217 13 217 13 242.5 25 c 128,-1,56
 268 37 268 37 287.5 57 c 128,-1,57
 307 77 307 77 320 103.5 c 128,-1,58
 333 130 333 130 338 159 c 2,59,-1
 343 191 l 1,60,-1
 275 191 l 2,44,45
145 387 m 1,61,62
 153 407 153 407 165 423 c 0,63,64
 176 437 176 437 192 448 c 128,-1,65
 208 459 208 459 231 459 c 0,66,67
 247 459 247 459 260 453.5 c 128,-1,68
 273 448 273 448 284.5 441 c 128,-1,69
 296 434 296 434 306.5 428.5 c 128,-1,70
 317 423 317 423 328 423 c 0,71,72
 340 423 340 423 349 429 c 128,-1,73
 358 435 358 435 365 443 c 0,74,75
 372 452 372 452 378 463 c 1,76,-1
 394 463 l 1,77,78
 386 441 386 441 374 424 c 0,79,80
 363 410 363 410 346.5 398 c 128,-1,81
 330 386 330 386 305 386 c 0,82,83
 288 386 288 386 276 391.5 c 128,-1,84
 264 397 264 397 254 404 c 128,-1,85
 244 411 244 411 234 416.5 c 128,-1,86
 224 422 224 422 211 422 c 0,87,88
 199 422 199 422 189.5 416.5 c 128,-1,89
 180 411 180 411 174 404 c 0,90,91
 167 396 167 396 162 387 c 1,92,-1
 145 387 l 1,61,62
EndSplineSet
Ligature: 0 0 'liga' a tildecomb
EndChar
StartChar: ae
Encoding: 230 230 167
Width: 676
Flags: W
Fore
675 141 m 1,0,1
 648 72 648 72 597.5 30.5 c 128,-1,2
 547 -11 547 -11 475 -11 c 0,3,4
 450 -11 450 -11 426 -5 c 128,-1,5
 402 1 402 1 382 12.5 c 128,-1,6
 362 24 362 24 346.5 41.5 c 128,-1,7
 331 59 331 59 324 82 c 1,8,9
 305 55 305 55 286.5 37 c 128,-1,10
 268 19 268 19 247.5 8.5 c 128,-1,11
 227 -2 227 -2 202.5 -6 c 128,-1,12
 178 -10 178 -10 147 -10 c 0,13,14
 121 -10 121 -10 98.5 -4 c 128,-1,15
 76 2 76 2 60.5 15.5 c 128,-1,16
 45 29 45 29 38.5 49 c 128,-1,17
 32 69 32 69 37 98 c 0,18,19
 45 145 45 145 80 169 c 128,-1,20
 115 193 115 193 160 203.5 c 128,-1,21
 205 214 205 214 251.5 215 c 128,-1,22
 298 216 298 216 330 216 c 1,23,-1
 332 230 l 2,24,25
 350 332 350 332 248 332 c 0,26,27
 231 332 231 332 213 326.5 c 128,-1,28
 195 321 195 321 180 311 c 128,-1,29
 165 301 165 301 153.5 286 c 128,-1,30
 142 271 142 271 139 252 c 1,31,-1
 83 252 l 1,32,33
 107 312 107 312 151.5 335.5 c 128,-1,34
 196 359 196 359 253 359 c 0,35,36
 273 359 273 359 293.5 355.5 c 128,-1,37
 314 352 314 352 331.5 343.5 c 128,-1,38
 349 335 349 335 361.5 321.5 c 128,-1,39
 374 308 374 308 378 287 c 1,40,41
 407 320 407 320 448 339.5 c 128,-1,42
 489 359 489 359 531 359 c 0,43,44
 606 359 606 359 642.5 325.5 c 128,-1,45
 679 292 679 292 682 217 c 1,46,-1
 390 217 l 1,47,48
 385 205 385 205 382 193.5 c 128,-1,49
 379 182 379 182 377 171 c 0,50,51
 371 139 371 139 374.5 110.5 c 128,-1,52
 378 82 378 82 391.5 60.5 c 128,-1,53
 405 39 405 39 428.5 26.5 c 128,-1,54
 452 14 452 14 486 14 c 0,55,56
 513 14 513 14 534 25 c 128,-1,57
 555 36 555 36 571.5 54 c 128,-1,58
 588 72 588 72 600.5 95 c 128,-1,59
 613 118 613 118 621 141 c 1,60,-1
 675 141 l 1,0,1
625 242 m 1,61,62
 620 284 620 284 595.5 308.5 c 128,-1,63
 571 333 571 333 526 333 c 0,64,65
 478 333 478 333 449.5 309 c 128,-1,66
 421 285 421 285 401 242 c 1,67,-1
 625 242 l 1,61,62
325 192 m 1,68,-1
 261 192 l 2,69,70
 236 192 236 192 209 188.5 c 128,-1,71
 182 185 182 185 159 175 c 128,-1,72
 136 165 136 165 118.5 146.5 c 128,-1,73
 101 128 101 128 96 98 c 0,74,75
 88 57 88 57 109 36 c 128,-1,76
 130 15 130 15 170 15 c 0,77,78
 202 15 202 15 227.5 26 c 128,-1,79
 253 37 253 37 271.5 56.5 c 128,-1,80
 290 76 290 76 302 102.5 c 128,-1,81
 314 129 314 129 320 159 c 2,82,-1
 325 192 l 1,68,-1
EndSplineSet
EndChar
StartChar: ccedilla
Encoding: 231 231 168
Width: 421
Flags: W
Fore
382 252 m 1,0,1
 374 292 374 292 347 313 c 128,-1,2
 320 334 320 334 278 334 c 0,3,4
 246 334 246 334 218.5 320.5 c 128,-1,5
 191 307 191 307 169.5 285 c 128,-1,6
 148 263 148 263 133.5 235 c 128,-1,7
 119 207 119 207 114 178 c 0,8,9
 108 147 108 147 111.5 118 c 128,-1,10
 115 89 115 89 128.5 66 c 128,-1,11
 142 43 142 43 165 29 c 128,-1,12
 188 15 188 15 222 15 c 0,13,14
 264 15 264 15 299 35.5 c 128,-1,15
 334 56 334 56 355 96 c 1,16,-1
 412 96 l 1,17,18
 399 67 399 67 377.5 46.5 c 128,-1,19
 356 26 356 26 330.5 13.5 c 128,-1,20
 305 1 305 1 276.5 -5 c 128,-1,21
 248 -11 248 -11 222 -11 c 0,22,23
 182 -11 182 -11 148.5 2.5 c 128,-1,24
 115 16 115 16 91.5 40.5 c 128,-1,25
 68 65 68 65 58 99 c 128,-1,26
 48 133 48 133 55 174 c 256,27,28
 62 215 62 215 84.5 249 c 128,-1,29
 107 283 107 283 138.5 307.5 c 128,-1,30
 170 332 170 332 208.5 345.5 c 128,-1,31
 247 359 247 359 287 359 c 0,32,33
 313 359 313 359 339.5 353 c 128,-1,34
 366 347 366 347 387.5 334.5 c 128,-1,35
 409 322 409 322 423 301.5 c 128,-1,36
 437 281 437 281 440 252 c 1,37,-1
 382 252 l 1,0,1
228 0 m 1,38,-1
 247 0 l 1,39,-1
 217 -50 l 1,40,41
 227 -47 227 -47 234 -47 c 128,-1,42
 241 -47 241 -47 250 -47 c 0,43,44
 270 -47 270 -47 284.5 -61 c 128,-1,45
 299 -75 299 -75 294 -97 c 0,46,47
 291 -112 291 -112 281.5 -123.5 c 128,-1,48
 272 -135 272 -135 258.5 -142.5 c 128,-1,49
 245 -150 245 -150 229.5 -153.5 c 128,-1,50
 214 -157 214 -157 199 -157 c 0,51,52
 181 -157 181 -157 166.5 -155.5 c 128,-1,53
 152 -154 152 -154 141 -147 c 1,54,-1
 151 -127 l 1,55,56
 167 -136 167 -136 193 -136 c 0,57,58
 209 -136 209 -136 225 -128 c 128,-1,59
 241 -120 241 -120 245 -101 c 0,60,61
 247 -87 247 -87 237 -77.5 c 128,-1,62
 227 -68 227 -68 216 -68 c 0,63,64
 207 -68 207 -68 197.5 -69.5 c 128,-1,65
 188 -71 188 -71 185 -72 c 1,66,-1
 228 0 l 1,38,-1
EndSplineSet
EndChar
StartChar: egrave
Encoding: 232 232 169
Width: 429
Flags: W
Fore
126 217 m 1,0,1
 120 206 120 206 118.5 194 c 128,-1,2
 117 182 117 182 115 171 c 0,3,4
 109 139 109 139 113.5 110.5 c 128,-1,5
 118 82 118 82 133 60.5 c 128,-1,6
 148 39 148 39 172.5 26.5 c 128,-1,7
 197 14 197 14 231 14 c 0,8,9
 253 14 253 14 276 22.5 c 128,-1,10
 299 31 299 31 318.5 46 c 128,-1,11
 338 61 338 61 352.5 81 c 128,-1,12
 367 101 367 101 373 124 c 1,13,-1
 422 124 l 1,14,15
 414 91 414 91 393.5 65.5 c 128,-1,16
 373 40 373 40 345.5 23 c 128,-1,17
 318 6 318 6 287 -2.5 c 128,-1,18
 256 -11 256 -11 226 -11 c 0,19,20
 187 -11 187 -11 152.5 2 c 128,-1,21
 118 15 118 15 94 38.5 c 128,-1,22
 70 62 70 62 58.5 95.5 c 128,-1,23
 47 129 47 129 54 170 c 0,24,25
 61 212 61 212 82.5 246.5 c 128,-1,26
 104 281 104 281 134.5 306 c 128,-1,27
 165 331 165 331 203 345 c 128,-1,28
 241 359 241 359 283 359 c 0,29,30
 316 359 316 359 346 350.5 c 128,-1,31
 376 342 376 342 398.5 324.5 c 128,-1,32
 421 307 421 307 433 280 c 128,-1,33
 445 253 445 253 442 217 c 1,34,-1
 126 217 l 1,0,1
386 242 m 1,35,36
 380 284 380 284 350 309.5 c 128,-1,37
 320 335 320 335 275 335 c 0,38,39
 232 335 232 335 194.5 309 c 128,-1,40
 157 283 157 283 139 242 c 1,41,-1
 386 242 l 1,35,36
343 388 m 1,42,-1
 250 460 l 2,43,44
 237 470 237 470 231.5 476.5 c 128,-1,45
 226 483 226 483 228 491 c 0,46,47
 230 500 230 500 236.5 506.5 c 128,-1,48
 243 513 243 513 252 513 c 0,49,50
 268 513 268 513 275 502 c 2,51,-1
 364 389 l 1,52,-1
 343 388 l 1,42,-1
EndSplineSet
Ligature: 0 0 'liga' e gravecomb
EndChar
StartChar: eacute
Encoding: 233 233 170
Width: 429
Flags: W
Fore
442 217 m 1,0,1
 445 253 445 253 433 280 c 128,-1,2
 421 307 421 307 398.5 324.5 c 128,-1,3
 376 342 376 342 346 350.5 c 128,-1,4
 316 359 316 359 283 359 c 0,5,6
 241 359 241 359 203 345 c 128,-1,7
 165 331 165 331 134.5 306 c 128,-1,8
 104 281 104 281 82.5 246.5 c 128,-1,9
 61 212 61 212 54 170 c 0,10,11
 47 129 47 129 58.5 95.5 c 128,-1,12
 70 62 70 62 94 38.5 c 128,-1,13
 118 15 118 15 152.5 2 c 128,-1,14
 187 -11 187 -11 226 -11 c 0,15,16
 256 -11 256 -11 287 -2.5 c 128,-1,17
 318 6 318 6 345.5 23 c 128,-1,18
 373 40 373 40 393.5 65.5 c 128,-1,19
 414 91 414 91 422 124 c 1,20,-1
 373 124 l 1,21,22
 367 101 367 101 352.5 81 c 128,-1,23
 338 61 338 61 318.5 46 c 128,-1,24
 299 31 299 31 276 22.5 c 128,-1,25
 253 14 253 14 231 14 c 0,26,27
 197 14 197 14 172.5 26.5 c 128,-1,28
 148 39 148 39 133 60.5 c 128,-1,29
 118 82 118 82 113.5 110.5 c 128,-1,30
 109 139 109 139 115 171 c 0,31,32
 117 182 117 182 118.5 194 c 128,-1,33
 120 206 120 206 126 217 c 1,34,-1
 442 217 l 1,0,1
386 242 m 1,35,-1
 139 242 l 1,36,37
 157 283 157 283 194.5 309 c 128,-1,38
 232 335 232 335 275 335 c 0,39,40
 320 335 320 335 350 309.5 c 128,-1,41
 380 284 380 284 386 242 c 1,35,-1
212 389 m 1,42,-1
 341 502 l 2,43,44
 353 513 353 513 368 513 c 0,45,46
 378 513 378 513 382.5 506.5 c 128,-1,47
 387 500 387 500 385 491 c 0,48,49
 383 483 383 483 376 476.5 c 128,-1,50
 369 470 369 470 353 460 c 2,51,-1
 233 388 l 1,52,-1
 212 389 l 1,42,-1
EndSplineSet
Ligature: 0 0 'liga' e acutecomb
EndChar
StartChar: igrave
Encoding: 236 236 173
Width: 163
Flags: W
Fore
61 0 m 1,0,-1
 122 347 l 1,1,-1
 161 347 l 1,2,-1
 100 0 l 1,3,-1
 61 0 l 1,0,-1
206 386 m 1,4,-1
 113 458 l 2,5,6
 100 468 100 468 94.5 474.5 c 128,-1,7
 89 481 89 481 91 489 c 0,8,9
 93 498 93 498 99.5 504.5 c 128,-1,10
 106 511 106 511 115 511 c 0,11,12
 131 511 131 511 138 500 c 2,13,-1
 227 387 l 1,14,-1
 206 386 l 1,4,-1
EndSplineSet
Ligature: 0 0 'liga' i gravecomb
EndChar
StartChar: iacute
Encoding: 237 237 174
Width: 162
Flags: W
Fore
61 0 m 1,0,-1
 122 347 l 1,1,-1
 161 347 l 1,2,-1
 100 0 l 1,3,-1
 61 0 l 1,0,-1
71 388 m 1,4,-1
 200 501 l 2,5,6
 212 512 212 512 227 512 c 0,7,8
 237 512 237 512 241.5 505.5 c 128,-1,9
 246 499 246 499 244 490 c 0,10,11
 242 482 242 482 235 475.5 c 128,-1,12
 228 469 228 469 212 459 c 2,13,-1
 92 387 l 1,14,-1
 71 388 l 1,4,-1
EndSplineSet
Ligature: 0 0 'liga' i acutecomb
EndChar
StartChar: eth
Encoding: 240 240 177
Width: 424
Flags: W
Fore
434 172 m 0,0,1
 426 130 426 130 405 96.5 c 128,-1,2
 384 63 384 63 353.5 39.5 c 128,-1,3
 323 16 323 16 286 3.5 c 128,-1,4
 249 -9 249 -9 209 -9 c 256,5,6
 169 -9 169 -9 136.5 3.5 c 128,-1,7
 104 16 104 16 82 39.5 c 128,-1,8
 60 63 60 63 50.5 96.5 c 128,-1,9
 41 130 41 130 49 171 c 0,10,11
 56 213 56 213 77 246.5 c 128,-1,12
 98 280 98 280 128.5 303.5 c 128,-1,13
 159 327 159 327 196.5 339.5 c 128,-1,14
 234 352 234 352 274 352 c 0,15,16
 322 352 322 352 357 334 c 1,17,18
 343 366 343 366 323.5 393 c 128,-1,19
 304 420 304 420 280 442 c 1,20,-1
 148 384 l 1,21,-1
 141 410 l 1,22,-1
 257 461 l 1,23,24
 235 478 235 478 210.5 490.5 c 128,-1,25
 186 503 186 503 158 514 c 1,26,-1
 172 541 l 1,27,28
 238 517 238 517 291 476 c 1,29,-1
 387 519 l 1,30,-1
 395 493 l 1,31,-1
 314 457 l 1,32,33
 336 439 336 439 360 406.5 c 128,-1,34
 384 374 384 374 402.5 334.5 c 128,-1,35
 421 295 421 295 430.5 252 c 128,-1,36
 440 209 440 209 434 172 c 0,0,1
383 171 m 256,37,38
 389 205 389 205 386 234.5 c 128,-1,39
 383 264 383 264 369.5 285.5 c 128,-1,40
 356 307 356 307 331.5 319 c 128,-1,41
 307 331 307 331 270 331 c 256,42,43
 233 331 233 331 204.5 319 c 128,-1,44
 176 307 176 307 155 285.5 c 128,-1,45
 134 264 134 264 121 235 c 128,-1,46
 108 206 108 206 102 172 c 256,47,48
 96 138 96 138 99 108.5 c 128,-1,49
 102 79 102 79 115.5 57.5 c 128,-1,50
 129 36 129 36 153.5 24 c 128,-1,51
 178 12 178 12 215 12 c 256,52,53
 252 12 252 12 280.5 24 c 128,-1,54
 309 36 309 36 330 57.5 c 128,-1,55
 351 79 351 79 364 108 c 128,-1,56
 377 137 377 137 383 171 c 256,37,38
EndSplineSet
EndChar
StartChar: ntilde
Encoding: 241 241 178
Width: 419
Flags: W
Fore
326 0 m 1,0,-1
 368 241 l 2,1,2
 372 265 372 265 365.5 282 c 128,-1,3
 359 299 359 299 345.5 310.5 c 128,-1,4
 332 322 332 322 313 327.5 c 128,-1,5
 294 333 294 333 272 333 c 0,6,7
 244 333 244 333 219.5 321.5 c 128,-1,8
 195 310 195 310 175.5 291 c 128,-1,9
 156 272 156 272 143 247.5 c 128,-1,10
 130 223 130 223 125 196 c 2,11,-1
 91 0 l 1,12,-1
 45 0 l 1,13,-1
 106 348 l 1,14,-1
 152 348 l 1,15,-1
 140 283 l 1,16,17
 163 316 163 316 201 337 c 128,-1,18
 239 358 239 358 277 358 c 0,19,20
 306 358 306 358 333.5 351.5 c 128,-1,21
 361 345 361 345 381 330.5 c 128,-1,22
 401 316 401 316 411 292.5 c 128,-1,23
 421 269 421 269 415 235 c 2,24,-1
 374 0 l 1,25,-1
 326 0 l 1,0,-1
165 386 m 1,26,27
 173 406 173 406 185 422 c 0,28,29
 196 436 196 436 212 447 c 128,-1,30
 228 458 228 458 251 458 c 0,31,32
 267 458 267 458 280 452.5 c 128,-1,33
 293 447 293 447 304.5 440 c 128,-1,34
 316 433 316 433 326.5 427.5 c 128,-1,35
 337 422 337 422 348 422 c 0,36,37
 360 422 360 422 369 428 c 128,-1,38
 378 434 378 434 385 442 c 0,39,40
 392 451 392 451 398 462 c 1,41,-1
 414 462 l 1,42,43
 406 440 406 440 394 423 c 0,44,45
 383 409 383 409 366.5 397 c 128,-1,46
 350 385 350 385 325 385 c 0,47,48
 308 385 308 385 296 390.5 c 128,-1,49
 284 396 284 396 274 403 c 128,-1,50
 264 410 264 410 254 415.5 c 128,-1,51
 244 421 244 421 231 421 c 0,52,53
 219 421 219 421 209.5 415.5 c 128,-1,54
 200 410 200 410 194 403 c 0,55,56
 187 395 187 395 182 386 c 1,57,-1
 165 386 l 1,26,27
EndSplineSet
EndChar
StartChar: ograve
Encoding: 242 242 179
Width: 445
Flags: W
Fore
450 173 m 0,0,1
 442 131 442 131 420.5 97 c 128,-1,2
 399 63 399 63 368 39.5 c 128,-1,3
 337 16 337 16 299 3 c 128,-1,4
 261 -10 261 -10 220 -10 c 256,5,6
 179 -10 179 -10 145.5 3 c 128,-1,7
 112 16 112 16 89.5 39.5 c 128,-1,8
 67 63 67 63 57 97 c 128,-1,9
 47 131 47 131 55 173 c 0,10,11
 62 215 62 215 83.5 249 c 128,-1,12
 105 283 105 283 136 307 c 128,-1,13
 167 331 167 331 205.5 344 c 128,-1,14
 244 357 244 357 285 357 c 0,15,16
 327 357 327 357 360.5 344.5 c 128,-1,17
 394 332 394 332 416.5 308 c 128,-1,18
 439 284 439 284 448 250 c 128,-1,19
 457 216 457 216 450 173 c 0,0,1
394 173 m 256,20,21
 400 207 400 207 397 236.5 c 128,-1,22
 394 266 394 266 380.5 287 c 128,-1,23
 367 308 367 308 342.5 320 c 128,-1,24
 318 332 318 332 281 332 c 0,25,26
 243 332 243 332 214.5 320 c 128,-1,27
 186 308 186 308 165 287 c 128,-1,28
 144 266 144 266 131 237 c 128,-1,29
 118 208 118 208 112 174 c 256,30,31
 106 140 106 140 109 111 c 128,-1,32
 112 82 112 82 125.5 60.5 c 128,-1,33
 139 39 139 39 163.5 27 c 128,-1,34
 188 15 188 15 226 15 c 0,35,36
 263 15 263 15 291.5 27 c 128,-1,37
 320 39 320 39 341 60 c 128,-1,38
 362 81 362 81 375 110 c 128,-1,39
 388 139 388 139 394 173 c 256,20,21
348 386 m 1,40,-1
 255 458 l 2,41,42
 242 468 242 468 236.5 474.5 c 128,-1,43
 231 481 231 481 233 489 c 0,44,45
 235 498 235 498 241.5 504.5 c 128,-1,46
 248 511 248 511 257 511 c 0,47,48
 273 511 273 511 280 500 c 2,49,-1
 369 387 l 1,50,-1
 348 386 l 1,40,-1
EndSplineSet
Ligature: 0 0 'liga' o gravecomb
EndChar
StartChar: oacute
Encoding: 243 243 180
Width: 445
Flags: W
Fore
450 173 m 0,0,1
 457 216 457 216 448 250 c 128,-1,2
 439 284 439 284 416.5 308 c 128,-1,3
 394 332 394 332 360.5 344.5 c 128,-1,4
 327 357 327 357 285 357 c 0,5,6
 244 357 244 357 205.5 344 c 128,-1,7
 167 331 167 331 136 307 c 128,-1,8
 105 283 105 283 83.5 249 c 128,-1,9
 62 215 62 215 55 173 c 0,10,11
 47 131 47 131 57 97 c 128,-1,12
 67 63 67 63 89.5 39.5 c 128,-1,13
 112 16 112 16 145.5 3 c 128,-1,14
 179 -10 179 -10 220 -10 c 256,15,16
 261 -10 261 -10 299 3 c 128,-1,17
 337 16 337 16 368 39.5 c 128,-1,18
 399 63 399 63 420.5 97 c 128,-1,19
 442 131 442 131 450 173 c 0,0,1
394 173 m 256,20,21
 388 139 388 139 375 110 c 128,-1,22
 362 81 362 81 341 60 c 128,-1,23
 320 39 320 39 291.5 27 c 128,-1,24
 263 15 263 15 226 15 c 0,25,26
 188 15 188 15 163.5 27 c 128,-1,27
 139 39 139 39 125.5 60.5 c 128,-1,28
 112 82 112 82 109 111 c 128,-1,29
 106 140 106 140 112 174 c 256,30,31
 118 208 118 208 131 237 c 128,-1,32
 144 266 144 266 165 287 c 128,-1,33
 186 308 186 308 214.5 320 c 128,-1,34
 243 332 243 332 281 332 c 0,35,36
 318 332 318 332 342.5 320 c 128,-1,37
 367 308 367 308 380.5 287 c 128,-1,38
 394 266 394 266 397 236.5 c 128,-1,39
 400 207 400 207 394 173 c 256,20,21
220 388 m 1,40,-1
 349 501 l 2,41,42
 361 512 361 512 376 512 c 0,43,44
 386 512 386 512 390.5 505.5 c 128,-1,45
 395 499 395 499 393 490 c 0,46,47
 391 482 391 482 384 475.5 c 128,-1,48
 377 469 377 469 361 459 c 2,49,-1
 241 387 l 1,50,-1
 220 388 l 1,40,-1
EndSplineSet
Ligature: 0 0 'liga' o acutecomb
EndChar
StartChar: otilde
Encoding: 245 245 182
Width: 445
Flags: W
Fore
450 173 m 0,0,1
 442 131 442 131 420.5 97 c 128,-1,2
 399 63 399 63 368 39.5 c 128,-1,3
 337 16 337 16 299 3 c 128,-1,4
 261 -10 261 -10 220 -10 c 256,5,6
 179 -10 179 -10 145.5 3 c 128,-1,7
 112 16 112 16 89.5 39.5 c 128,-1,8
 67 63 67 63 57 97 c 128,-1,9
 47 131 47 131 55 173 c 0,10,11
 62 215 62 215 83.5 249 c 128,-1,12
 105 283 105 283 136 307 c 128,-1,13
 167 331 167 331 205.5 344 c 128,-1,14
 244 357 244 357 285 357 c 0,15,16
 327 357 327 357 360.5 344.5 c 128,-1,17
 394 332 394 332 416.5 308 c 128,-1,18
 439 284 439 284 448 250 c 128,-1,19
 457 216 457 216 450 173 c 0,0,1
394 173 m 256,20,21
 400 207 400 207 397 236.5 c 128,-1,22
 394 266 394 266 380.5 287 c 128,-1,23
 367 308 367 308 342.5 320 c 128,-1,24
 318 332 318 332 281 332 c 0,25,26
 243 332 243 332 214.5 320 c 128,-1,27
 186 308 186 308 165 287 c 128,-1,28
 144 266 144 266 131 237 c 128,-1,29
 118 208 118 208 112 174 c 256,30,31
 106 140 106 140 109 111 c 128,-1,32
 112 82 112 82 125.5 60.5 c 128,-1,33
 139 39 139 39 163.5 27 c 128,-1,34
 188 15 188 15 226 15 c 0,35,36
 263 15 263 15 291.5 27 c 128,-1,37
 320 39 320 39 341 60 c 128,-1,38
 362 81 362 81 375 110 c 128,-1,39
 388 139 388 139 394 173 c 256,20,21
174 387 m 1,40,41
 182 407 182 407 194 423 c 0,42,43
 205 437 205 437 221 448 c 128,-1,44
 237 459 237 459 260 459 c 0,45,46
 276 459 276 459 289 453.5 c 128,-1,47
 302 448 302 448 313.5 441 c 128,-1,48
 325 434 325 434 335.5 428.5 c 128,-1,49
 346 423 346 423 357 423 c 0,50,51
 369 423 369 423 378 429 c 128,-1,52
 387 435 387 435 394 443 c 0,53,54
 401 452 401 452 407 463 c 1,55,-1
 423 463 l 1,56,57
 415 441 415 441 403 424 c 0,58,59
 392 410 392 410 375.5 398 c 128,-1,60
 359 386 359 386 334 386 c 0,61,62
 317 386 317 386 305 391.5 c 128,-1,63
 293 397 293 397 283 404 c 128,-1,64
 273 411 273 411 263 416.5 c 128,-1,65
 253 422 253 422 240 422 c 0,66,67
 228 422 228 422 218.5 416.5 c 128,-1,68
 209 411 209 411 203 404 c 0,69,70
 196 396 196 396 191 387 c 1,71,-1
 174 387 l 1,40,41
EndSplineSet
Ligature: 0 0 'liga' o tildecomb
EndChar
StartChar: divide
Encoding: 247 247 184
Width: 429
Flags: W
Fore
436 208 m 1,0,-1
 430 171 l 1,1,-1
 59 171 l 1,2,-1
 65 208 l 1,3,-1
 436 208 l 1,0,-1
232 338 m 256,4,5
 235 355 235 355 249 366.5 c 128,-1,6
 263 378 263 378 280 378 c 256,7,8
 297 378 297 378 307 366.5 c 128,-1,9
 317 355 317 355 314 338 c 256,10,11
 311 321 311 321 297 309 c 128,-1,12
 283 297 283 297 266 297 c 256,13,14
 249 297 249 297 239 309 c 128,-1,15
 229 321 229 321 232 338 c 256,4,5
180 41 m 256,16,17
 183 58 183 58 197 70.5 c 128,-1,18
 211 83 211 83 228 83 c 256,19,20
 245 83 245 83 255 70.5 c 128,-1,21
 265 58 265 58 262 41 c 256,22,23
 259 24 259 24 245 12 c 128,-1,24
 231 0 231 0 214 0 c 256,25,26
 197 0 197 0 187 12 c 128,-1,27
 177 24 177 24 180 41 c 256,16,17
EndSplineSet
EndChar
StartChar: oslash
Encoding: 248 248 185
Width: 487
Flags: W
Fore
147 66 m 1,0,1
 166 43 166 43 191.5 29.5 c 128,-1,2
 217 16 217 16 249 16 c 256,3,4
 281 16 281 16 312.5 30 c 128,-1,5
 344 44 344 44 370.5 68 c 128,-1,6
 397 92 397 92 416 124 c 128,-1,7
 435 156 435 156 442 193 c 0,8,9
 447 223 447 223 443 250.5 c 128,-1,10
 439 278 439 278 426 300 c 1,11,-1
 147 66 l 1,0,1
414 321 m 1,12,13
 395 344 395 344 369.5 356.5 c 128,-1,14
 344 369 344 369 312 369 c 256,15,16
 280 369 280 369 248.5 355.5 c 128,-1,17
 217 342 217 342 190.5 318 c 128,-1,18
 164 294 164 294 145 262 c 128,-1,19
 126 230 126 230 120 193 c 0,20,21
 114 163 114 163 118.5 135.5 c 128,-1,22
 123 108 123 108 134 85 c 1,23,-1
 414 321 l 1,12,13
-5 -34 m 1,24,-1
 96 53 l 1,25,26
 71 80 71 80 60.5 115.5 c 128,-1,27
 50 151 50 151 57 192 c 0,28,29
 64 234 64 234 88.5 270.5 c 128,-1,30
 113 307 113 307 148.5 334 c 128,-1,31
 184 361 184 361 227.5 376.5 c 128,-1,32
 271 392 271 392 317 392 c 0,33,34
 356 392 356 392 389 380 c 128,-1,35
 422 368 422 368 448 348 c 1,36,-1
 522 411 l 1,37,-1
 559 411 l 1,38,-1
 465 332 l 1,39,40
 490 306 490 306 501 270 c 128,-1,41
 512 234 512 234 504 192 c 0,42,43
 497 151 497 151 473 114.5 c 128,-1,44
 449 78 449 78 414 51 c 128,-1,45
 379 24 379 24 335.5 8 c 128,-1,46
 292 -8 292 -8 246 -8 c 0,47,48
 206 -8 206 -8 172.5 4 c 128,-1,49
 139 16 139 16 114 36 c 1,50,-1
 30 -34 l 1,51,-1
 -5 -34 l 1,24,-1
EndSplineSet
EndChar
StartChar: ugrave
Encoding: 249 249 186
Width: 460
Flags: W
Fore
328 0 m 1,0,-1
 339 65 l 1,1,2
 328 49 328 49 312 35.5 c 128,-1,3
 296 22 296 22 278 11.5 c 128,-1,4
 260 1 260 1 240.5 -5 c 128,-1,5
 221 -11 221 -11 203 -11 c 0,6,7
 174 -11 174 -11 146 -4.5 c 128,-1,8
 118 2 118 2 98 16.5 c 128,-1,9
 78 31 78 31 68 54.5 c 128,-1,10
 58 78 58 78 64 112 c 2,11,-1
 106 348 l 1,12,-1
 154 348 l 1,13,-1
 111 106 l 2,14,15
 107 83 107 83 113.5 65.5 c 128,-1,16
 120 48 120 48 133.5 36.5 c 128,-1,17
 147 25 147 25 166 19.5 c 128,-1,18
 185 14 185 14 207 14 c 0,19,20
 235 14 235 14 260 25.5 c 128,-1,21
 285 37 285 37 304.5 56.5 c 128,-1,22
 324 76 324 76 336.5 101 c 128,-1,23
 349 126 349 126 354 152 c 2,24,-1
 389 348 l 1,25,-1
 435 348 l 1,26,-1
 374 0 l 1,27,-1
 328 0 l 1,0,-1
335 387 m 1,28,-1
 242 459 l 2,29,30
 229 469 229 469 223.5 475.5 c 128,-1,31
 218 482 218 482 220 490 c 0,32,33
 222 499 222 499 228.5 505.5 c 128,-1,34
 235 512 235 512 244 512 c 0,35,36
 260 512 260 512 267 501 c 2,37,-1
 356 388 l 1,38,-1
 335 387 l 1,28,-1
EndSplineSet
Ligature: 0 0 'liga' u gravecomb
EndChar
StartChar: uacute
Encoding: 250 250 187
Width: 419
Flags: W
Fore
374 0 m 1,0,-1
 435 348 l 1,1,-1
 389 348 l 1,2,-1
 354 152 l 2,3,4
 349 126 349 126 336.5 101 c 128,-1,5
 324 76 324 76 304.5 56.5 c 128,-1,6
 285 37 285 37 260 25.5 c 128,-1,7
 235 14 235 14 207 14 c 0,8,9
 185 14 185 14 166 19.5 c 128,-1,10
 147 25 147 25 133.5 36.5 c 128,-1,11
 120 48 120 48 113.5 65.5 c 128,-1,12
 107 83 107 83 111 106 c 2,13,-1
 154 348 l 1,14,-1
 106 348 l 1,15,-1
 64 112 l 2,16,17
 58 78 58 78 68 54.5 c 128,-1,18
 78 31 78 31 98 16.5 c 128,-1,19
 118 2 118 2 146 -4.5 c 128,-1,20
 174 -11 174 -11 203 -11 c 0,21,22
 221 -11 221 -11 240.5 -5 c 128,-1,23
 260 1 260 1 278 11.5 c 128,-1,24
 296 22 296 22 312 35.5 c 128,-1,25
 328 49 328 49 339 65 c 1,26,-1
 328 0 l 1,27,-1
 374 0 l 1,0,-1
202 387 m 1,28,-1
 331 500 l 2,29,30
 343 511 343 511 358 511 c 0,31,32
 368 511 368 511 372.5 504.5 c 128,-1,33
 377 498 377 498 375 489 c 0,34,35
 373 481 373 481 366 474.5 c 128,-1,36
 359 468 359 468 343 458 c 2,37,-1
 223 386 l 1,38,-1
 202 387 l 1,28,-1
EndSplineSet
Ligature: 0 0 'liga' u acutecomb
EndChar
StartChar: yacute
Encoding: 253 253 190
Width: 381
Flags: W
Fore
45 -132 m 0,0,1
 66 -132 66 -132 86 -121.5 c 128,-1,2
 106 -111 106 -111 125.5 -94 c 128,-1,3
 145 -77 145 -77 162.5 -55 c 128,-1,4
 180 -33 180 -33 196 -10 c 2,5,-1
 439 348 l 1,6,-1
 411 348 l 1,7,-1
 215 59 l 1,8,-1
 116 348 l 1,9,-1
 64 348 l 1,10,-1
 167 46 l 2,11,12
 170 35 170 35 171.5 25 c 128,-1,13
 173 15 173 15 171 4 c 0,14,15
 168 -12 168 -12 156 -30.5 c 128,-1,16
 144 -49 144 -49 127 -64.5 c 128,-1,17
 110 -80 110 -80 90.5 -90 c 128,-1,18
 71 -100 71 -100 54 -100 c 0,19,20
 41 -100 41 -100 31.5 -95.5 c 128,-1,21
 22 -91 22 -91 14 -78 c 1,22,-1
 -13 -114 l 1,23,24
 -2 -124 -2 -124 14.5 -128 c 128,-1,25
 31 -132 31 -132 45 -132 c 0,0,1
191 388 m 1,26,-1
 320 501 l 2,27,28
 332 512 332 512 347 512 c 0,29,30
 357 512 357 512 361.5 505.5 c 128,-1,31
 366 499 366 499 364 490 c 0,32,33
 362 482 362 482 355 475.5 c 128,-1,34
 348 469 348 469 332 459 c 2,35,-1
 212 387 l 1,36,-1
 191 388 l 1,26,-1
EndSplineSet
Ligature: 0 0 'liga' y acutecomb
EndChar
StartChar: thorn
Encoding: 254 254 191
Width: 466
Flags: W
Fore
485 251 m 0,0,1
 478 212 478 212 452.5 186.5 c 128,-1,2
 427 161 427 161 387.5 146 c 128,-1,3
 348 131 348 131 296.5 125.5 c 128,-1,4
 245 120 245 120 186 120 c 2,5,-1
 120 120 l 1,6,-1
 99 0 l 1,7,-1
 45 0 l 1,8,-1
 127 467 l 1,9,-1
 180 467 l 1,10,-1
 163 373 l 1,11,-1
 232 373 l 2,12,13
 366 373 366 373 431.5 346 c 128,-1,14
 497 319 497 319 485 251 c 0,0,1
414 252 m 0,15,16
 418 274 418 274 410 292.5 c 128,-1,17
 402 311 402 311 380 324 c 128,-1,18
 358 337 358 337 321 344 c 128,-1,19
 284 351 284 351 230 351 c 2,20,-1
 160 351 l 1,21,-1
 124 143 l 1,22,-1
 191 143 l 2,23,24
 294 143 294 143 348.5 166.5 c 128,-1,25
 403 190 403 190 414 252 c 0,15,16
EndSplineSet
EndChar
StartChar: Lslash
Encoding: 321 321 193
Width: 429
Flags: W
Fore
317 324 m 1,0,-1
 314 310 l 1,1,-1
 55 205 l 1,2,-1
 57 219 l 1,3,-1
 317 324 l 1,0,-1
75 0 m 1,4,-1
 157 467 l 1,5,-1
 212 467 l 1,6,-1
 134 24 l 1,7,-1
 424 24 l 1,8,-1
 420 0 l 1,9,-1
 75 0 l 1,4,-1
EndSplineSet
EndChar
StartChar: lslash
Encoding: 322 322 194
Width: 183
Flags: W
Fore
67 0 m 1,0,-1
 115 277 l 1,1,-1
 70 259 l 1,2,-1
 73 274 l 1,3,-1
 118 291 l 1,4,-1
 149 467 l 1,5,-1
 203 467 l 1,6,-1
 176 315 l 1,7,-1
 225 334 l 1,8,-1
 223 321 l 1,9,-1
 173 300 l 1,10,-1
 121 0 l 1,11,-1
 67 0 l 1,0,-1
EndSplineSet
EndChar
StartChar: OE
Encoding: 338 338 195
Width: 834
Flags: W
Fore
472 0 m 1,0,-1
 483 67 l 1,1,2
 441 27 441 27 386.5 5 c 128,-1,3
 332 -17 332 -17 273 -17 c 0,4,5
 220 -17 220 -17 176.5 1 c 128,-1,6
 133 19 133 19 103.5 52 c 128,-1,7
 74 85 74 85 61.5 131 c 128,-1,8
 49 177 49 177 59 232 c 256,9,10
 69 287 69 287 97.5 333 c 128,-1,11
 126 379 126 379 167.5 412 c 128,-1,12
 209 445 209 445 259 463.5 c 128,-1,13
 309 482 309 482 361 482 c 0,14,15
 420 482 420 482 466.5 460 c 128,-1,16
 513 438 513 438 542 399 c 1,17,-1
 554 467 l 1,18,-1
 907 467 l 1,19,-1
 902 442 l 1,20,-1
 603 442 l 1,21,-1
 572 263 l 1,22,-1
 799 263 l 1,23,-1
 795 239 l 1,24,-1
 568 239 l 1,25,-1
 530 24 l 1,26,-1
 829 24 l 1,27,-1
 825 0 l 1,28,-1
 472 0 l 1,0,-1
509 233 m 0,29,30
 517 279 517 279 513 321 c 128,-1,31
 509 363 509 363 491 394.5 c 128,-1,32
 473 426 473 426 440 444.5 c 128,-1,33
 407 463 407 463 358 463 c 0,34,35
 308 463 308 463 268.5 444.5 c 128,-1,36
 229 426 229 426 200 394.5 c 128,-1,37
 171 363 171 363 152 321 c 128,-1,38
 133 279 133 279 125 232 c 256,39,40
 117 185 117 185 121 143.5 c 128,-1,41
 125 102 125 102 143 70.5 c 128,-1,42
 161 39 161 39 193.5 20.5 c 128,-1,43
 226 2 226 2 276 2 c 256,44,45
 326 2 326 2 365.5 20.5 c 128,-1,46
 405 39 405 39 434 71 c 128,-1,47
 463 103 463 103 482 144.5 c 128,-1,48
 501 186 501 186 509 233 c 0,29,30
EndSplineSet
EndChar
StartChar: oe
Encoding: 339 339 196
Width: 680
Flags: W
Fore
410 217 m 1,0,1
 404 206 404 206 402.5 194 c 128,-1,2
 401 182 401 182 399 171 c 0,3,4
 394 142 394 142 397 113.5 c 128,-1,5
 400 85 400 85 412 63 c 128,-1,6
 424 41 424 41 446 27.5 c 128,-1,7
 468 14 468 14 500 14 c 0,8,9
 522 14 522 14 543 23 c 128,-1,10
 564 32 564 32 581.5 47 c 128,-1,11
 599 62 599 62 611.5 82 c 128,-1,12
 624 102 624 102 630 124 c 1,13,-1
 675 124 l 1,14,15
 669 93 669 93 651 68 c 128,-1,16
 633 43 633 43 608 25.5 c 128,-1,17
 583 8 583 8 554 -1.5 c 128,-1,18
 525 -11 525 -11 496 -11 c 0,19,20
 448 -11 448 -11 411.5 10.5 c 128,-1,21
 375 32 375 32 356 73 c 1,22,23
 325 31 325 31 281 10.5 c 128,-1,24
 237 -10 237 -10 189 -10 c 0,25,26
 149 -10 149 -10 118.5 4 c 128,-1,27
 88 18 88 18 69 43 c 128,-1,28
 50 68 50 68 43 101 c 128,-1,29
 36 134 36 134 43 173 c 256,30,31
 50 212 50 212 68.5 246 c 128,-1,32
 87 280 87 280 114.5 304.5 c 128,-1,33
 142 329 142 329 177 343 c 128,-1,34
 212 357 212 357 253 357 c 0,35,36
 300 357 300 357 337 336.5 c 128,-1,37
 374 316 374 316 391 277 c 1,38,39
 422 316 422 316 464.5 337.5 c 128,-1,40
 507 359 507 359 553 359 c 0,41,42
 619 359 619 359 659.5 322 c 128,-1,43
 700 285 700 285 695 217 c 1,44,-1
 410 217 l 1,0,1
644 242 m 1,45,46
 640 282 640 282 614.5 308.5 c 128,-1,47
 589 335 589 335 546 335 c 0,48,49
 504 335 504 335 471 307.5 c 128,-1,50
 438 280 438 280 422 242 c 1,51,-1
 644 242 l 1,45,46
349 173 m 256,52,53
 355 204 355 204 353 233 c 128,-1,54
 351 262 351 262 340 284 c 128,-1,55
 329 306 329 306 307 319 c 128,-1,56
 285 332 285 332 249 332 c 256,57,58
 213 332 213 332 187 319 c 128,-1,59
 161 306 161 306 142 284 c 128,-1,60
 123 262 123 262 112 233.5 c 128,-1,61
 101 205 101 205 95 174 c 0,62,63
 90 143 90 143 91.5 114.5 c 128,-1,64
 93 86 93 86 104 64 c 128,-1,65
 115 42 115 42 137 28.5 c 128,-1,66
 159 15 159 15 194 15 c 0,67,68
 230 15 230 15 256.5 28 c 128,-1,69
 283 41 283 41 301.5 63 c 128,-1,70
 320 85 320 85 331.5 113.5 c 128,-1,71
 343 142 343 142 349 173 c 256,52,53
EndSplineSet
EndChar
StartChar: Scaron
Encoding: 352 352 197
Width: 517
Flags: W
Fore
493 133 m 0,0,1
 499 164 499 164 487 185 c 128,-1,2
 475 206 475 206 452 220 c 128,-1,3
 429 234 429 234 398.5 243 c 128,-1,4
 368 252 368 252 335.5 259 c 128,-1,5
 303 266 303 266 272 273.5 c 128,-1,6
 241 281 241 281 217.5 292.5 c 128,-1,7
 194 304 194 304 181.5 321.5 c 128,-1,8
 169 339 169 339 174 365 c 0,9,10
 179 393 179 393 196 411 c 128,-1,11
 213 429 213 429 235.5 439.5 c 128,-1,12
 258 450 258 450 283.5 454 c 128,-1,13
 309 458 309 458 331 458 c 0,14,15
 355 458 355 458 379 453.5 c 128,-1,16
 403 449 403 449 422 438 c 128,-1,17
 441 427 441 427 453 408.5 c 128,-1,18
 465 390 465 390 465 363 c 1,19,-1
 523 363 l 1,20,21
 523 397 523 397 504.5 420 c 128,-1,22
 486 443 486 443 458.5 456 c 128,-1,23
 431 469 431 469 398 474.5 c 128,-1,24
 365 480 365 480 336 480 c 0,25,26
 306 480 306 480 269.5 474 c 128,-1,27
 233 468 233 468 200 453 c 128,-1,28
 167 438 167 438 142.5 413 c 128,-1,29
 118 388 118 388 111 350 c 0,30,31
 104 308 104 308 126.5 284.5 c 128,-1,32
 149 261 149 261 187 247 c 128,-1,33
 225 233 225 233 270 224.5 c 128,-1,34
 315 216 315 216 353 204 c 128,-1,35
 391 192 391 192 414.5 172 c 128,-1,36
 438 152 438 152 431 116 c 0,37,38
 425 85 425 85 406 64 c 128,-1,39
 387 43 387 43 361.5 30.5 c 128,-1,40
 336 18 336 18 306.5 12.5 c 128,-1,41
 277 7 277 7 252 7 c 0,42,43
 223 7 223 7 198.5 16 c 128,-1,44
 174 25 174 25 156.5 41.5 c 128,-1,45
 139 58 139 58 130.5 81.5 c 128,-1,46
 122 105 122 105 125 135 c 1,47,-1
 59 135 l 1,48,49
 55 95 55 95 71 66.5 c 128,-1,50
 87 38 87 38 114.5 19.5 c 128,-1,51
 142 1 142 1 177.5 -7.5 c 128,-1,52
 213 -16 213 -16 248 -16 c 0,53,54
 284 -16 284 -16 324 -9.5 c 128,-1,55
 364 -3 364 -3 399 14 c 128,-1,56
 434 31 434 31 459.5 59.5 c 128,-1,57
 485 88 485 88 493 133 c 0,0,1
373 502 m 1,58,-1
 330 502 l 1,59,-1
 264 623 l 1,60,-1
 285 623 l 1,61,-1
 359 544 l 1,62,-1
 463 623 l 1,63,-1
 483 623 l 1,64,-1
 373 502 l 1,58,-1
EndSplineSet
EndChar
StartChar: scaron
Encoding: 353 353 198
Width: 427
Flags: W
Fore
380 100 m 0,0,1
 384 125 384 125 375 141 c 128,-1,2
 366 157 366 157 348.5 167 c 128,-1,3
 331 177 331 177 307.5 182 c 128,-1,4
 284 187 284 187 260 192 c 0,5,6
 239 196 239 196 215 200.5 c 128,-1,7
 191 205 191 205 172 214 c 0,8,9
 155 222 155 222 146 235 c 128,-1,10
 137 248 137 248 141 270 c 0,11,12
 144 289 144 289 156.5 301.5 c 128,-1,13
 169 314 169 314 185.5 320.5 c 128,-1,14
 202 327 202 327 220.5 329.5 c 128,-1,15
 239 332 239 332 255 332 c 0,16,17
 295 332 295 332 324.5 310.5 c 128,-1,18
 354 289 354 289 354 247 c 1,19,-1
 403 247 l 1,20,21
 403 277 403 277 390.5 297.5 c 128,-1,22
 378 318 378 318 357.5 331.5 c 128,-1,23
 337 345 337 345 311.5 351 c 128,-1,24
 286 357 286 357 260 357 c 0,25,26
 237 357 237 357 210 352.5 c 128,-1,27
 183 348 183 348 158 337 c 128,-1,28
 133 326 133 326 114.5 307 c 128,-1,29
 96 288 96 288 91 260 c 256,30,31
 86 232 86 232 95 214.5 c 128,-1,32
 104 197 104 197 121 186 c 128,-1,33
 138 175 138 175 161.5 169 c 128,-1,34
 185 163 185 163 210 159 c 0,35,36
 221 157 221 157 233 154.5 c 128,-1,37
 245 152 245 152 257 150 c 0,38,39
 268 148 268 148 278.5 145.5 c 128,-1,40
 289 143 289 143 297 139 c 0,41,42
 314 131 314 131 323.5 119 c 128,-1,43
 333 107 333 107 329 87 c 0,44,45
 325 64 325 64 311 49.5 c 128,-1,46
 297 35 297 35 278 27 c 128,-1,47
 259 19 259 19 237.5 16 c 128,-1,48
 216 13 216 13 197 13 c 0,49,50
 177 13 177 13 158.5 18.5 c 128,-1,51
 140 24 140 24 125 35 c 128,-1,52
 110 46 110 46 101.5 62 c 128,-1,53
 93 78 93 78 93 99 c 1,54,-1
 44 99 l 1,55,56
 44 70 44 70 58 49 c 128,-1,57
 72 28 72 28 93 14.5 c 128,-1,58
 114 1 114 1 140 -5.5 c 128,-1,59
 166 -12 166 -12 192 -12 c 0,60,61
 219 -12 219 -12 249.5 -7 c 128,-1,62
 280 -2 280 -2 307 10.5 c 128,-1,63
 334 23 334 23 354 44.5 c 128,-1,64
 374 66 374 66 380 100 c 0,0,1
301 388 m 1,65,-1
 258 388 l 1,66,-1
 192 509 l 1,67,-1
 213 509 l 1,68,-1
 287 430 l 1,69,-1
 391 509 l 1,70,-1
 411 509 l 1,71,-1
 301 388 l 1,65,-1
EndSplineSet
EndChar
StartChar: Ydieresis
Encoding: 376 376 199
Width: 492
Flags: W
Fore
304 210 m 1,0,-1
 267 0 l 1,1,-1
 211 0 l 1,2,-1
 246 200 l 1,3,-1
 92 467 l 1,4,-1
 151 467 l 1,5,-1
 292 228 l 1,6,-1
 531 467 l 1,7,-1
 563 467 l 1,8,-1
 304 210 l 1,0,-1
246 537 m 0,9,10
 249 552 249 552 262 563 c 128,-1,11
 275 574 275 574 290 574 c 256,12,13
 305 574 305 574 313.5 563 c 128,-1,14
 322 552 322 552 319 537 c 0,15,16
 317 522 317 522 304.5 511.5 c 128,-1,17
 292 501 292 501 277 501 c 256,18,19
 262 501 262 501 253 511.5 c 128,-1,20
 244 522 244 522 246 537 c 0,9,10
371 537 m 0,21,22
 374 552 374 552 386.5 563 c 128,-1,23
 399 574 399 574 415 574 c 0,24,25
 430 574 430 574 438.5 563 c 128,-1,26
 447 552 447 552 444 537 c 0,27,28
 442 522 442 522 429.5 511.5 c 128,-1,29
 417 501 417 501 402 501 c 0,30,31
 386 501 386 501 377.5 511.5 c 128,-1,32
 369 522 369 522 371 537 c 0,21,22
EndSplineSet
EndChar
StartChar: Zcaron
Encoding: 381 381 200
Width: 446
Flags: W
Fore
506 467 m 1,0,-1
 128 467 l 1,1,-1
 115 442 l 1,2,-1
 422 442 l 1,3,-1
 15 0 l 1,4,-1
 407 0 l 1,5,-1
 419 24 l 1,6,-1
 100 24 l 1,7,-1
 506 467 l 1,0,-1
339 500 m 1,8,-1
 296 500 l 1,9,-1
 230 621 l 1,10,-1
 251 621 l 1,11,-1
 325 542 l 1,12,-1
 429 621 l 1,13,-1
 449 621 l 1,14,-1
 339 500 l 1,8,-1
EndSplineSet
EndChar
StartChar: zcaron
Encoding: 382 382 201
Width: 392
Flags: W
Fore
408 348 m 1,0,-1
 113 348 l 1,1,-1
 100 323 l 1,2,-1
 329 323 l 1,3,-1
 12 0 l 1,4,-1
 325 0 l 1,5,-1
 340 26 l 1,6,-1
 91 26 l 1,7,-1
 408 348 l 1,0,-1
293 387 m 1,8,-1
 250 387 l 1,9,-1
 184 508 l 1,10,-1
 205 508 l 1,11,-1
 279 429 l 1,12,-1
 383 508 l 1,13,-1
 403 508 l 1,14,-1
 293 387 l 1,8,-1
EndSplineSet
EndChar
StartChar: florin
Encoding: 402 402 202
Width: 467
Flags: W
Fore
284 323 m 1,0,-1
 288 340 l 2,1,2
 299 375 299 375 317 406.5 c 128,-1,3
 335 438 335 438 360 462 c 128,-1,4
 385 486 385 486 416 500.5 c 128,-1,5
 447 515 447 515 484 515 c 0,6,7
 490 515 490 515 498.5 511 c 128,-1,8
 507 507 507 507 514.5 501.5 c 128,-1,9
 522 496 522 496 528 489 c 128,-1,10
 534 482 534 482 537 476 c 1,11,-1
 482 453 l 1,12,13
 480 465 480 465 468.5 477.5 c 128,-1,14
 457 490 457 490 448 490 c 0,15,16
 430 490 430 490 415 481.5 c 128,-1,17
 400 473 400 473 389 458.5 c 128,-1,18
 378 444 378 444 370 426.5 c 128,-1,19
 362 409 362 409 356 391 c 2,20,-1
 335 323 l 1,21,-1
 404 323 l 1,22,-1
 397 305 l 1,23,-1
 329 305 l 1,24,-1
 244 18 l 2,25,26
 235 -13 235 -13 216.5 -42.5 c 128,-1,27
 198 -72 198 -72 171.5 -94.5 c 128,-1,28
 145 -117 145 -117 111 -131 c 128,-1,29
 77 -145 77 -145 36 -145 c 0,30,31
 23 -145 23 -145 10.5 -134 c 128,-1,32
 -2 -123 -2 -123 -6 -106 c 1,33,-1
 44 -95 l 1,34,35
 50 -104 50 -104 60 -113.5 c 128,-1,36
 70 -123 70 -123 90 -123 c 0,37,38
 116 -123 116 -123 142.5 -93 c 128,-1,39
 169 -63 169 -63 183 -13 c 2,40,-1
 279 305 l 1,41,-1
 213 305 l 1,42,-1
 221 323 l 1,43,-1
 284 323 l 1,0,-1
EndSplineSet
EndChar
StartChar: circumflex
Encoding: 710 710 203
Width: 238
Flags: W
Fore
286 443 m 1,0,-1
 211 522 l 1,1,-1
 109 443 l 1,2,-1
 88 443 l 1,3,-1
 197 564 l 1,4,-1
 240 564 l 1,5,-1
 306 443 l 1,6,-1
 286 443 l 1,0,-1
EndSplineSet
EndChar
StartChar: caron
Encoding: 711 711 204
Width: 224
Flags: W
Fore
205 419 m 1,0,-1
 162 419 l 1,1,-1
 96 540 l 1,2,-1
 117 540 l 1,3,-1
 191 461 l 1,4,-1
 295 540 l 1,5,-1
 315 540 l 1,6,-1
 205 419 l 1,0,-1
EndSplineSet
EndChar
StartChar: breve
Encoding: 728 728 205
Width: 202
Flags: W
Fore
295 533 m 1,0,1
 284 485 284 485 252 451.5 c 128,-1,2
 220 418 220 418 173 418 c 0,3,4
 125 418 125 418 105 451.5 c 128,-1,5
 85 485 85 485 91 533 c 1,6,-1
 107 533 l 1,7,8
 108 501 108 501 123 480 c 128,-1,9
 138 459 138 459 180 459 c 256,10,11
 222 459 222 459 244 480 c 128,-1,12
 266 501 266 501 277 533 c 1,13,-1
 295 533 l 1,0,1
EndSplineSet
EndChar
StartChar: dotaccent
Encoding: 729 729 206
Width: 183
Flags: W
Fore
135 454 m 1,0,1
 137 469 137 469 149.5 480 c 128,-1,2
 162 491 162 491 177 491 c 256,3,4
 192 491 192 491 201 480 c 128,-1,5
 210 469 210 469 208 454 c 0,6,7
 205 440 205 440 192 429.5 c 128,-1,8
 179 419 179 419 164 419 c 256,9,10
 149 419 149 419 141 429.5 c 128,-1,11
 133 440 133 440 136 454 c 1,12,-1
 135 454 l 1,0,1
EndSplineSet
EndChar
StartChar: ring
Encoding: 730 730 207
Width: 183
Flags: W
Fore
191 564 m 0,0,1
 221 564 221 564 237.5 543 c 128,-1,2
 254 522 254 522 249 492 c 256,3,4
 244 462 244 462 220 441 c 128,-1,5
 196 420 196 420 166 420 c 0,6,7
 137 420 137 420 119 441 c 128,-1,8
 101 462 101 462 106 492 c 256,9,10
 111 522 111 522 136.5 543 c 128,-1,11
 162 564 162 564 191 564 c 0,0,1
187 540 m 256,12,13
 167 540 167 540 150.5 526 c 128,-1,14
 134 512 134 512 130 492 c 0,15,16
 127 472 127 472 138.5 458 c 128,-1,17
 150 444 150 444 170 444 c 256,18,19
 190 444 190 444 206 458 c 128,-1,20
 222 472 222 472 225 492 c 0,21,22
 229 512 229 512 218 526 c 128,-1,23
 207 540 207 540 187 540 c 256,12,13
EndSplineSet
EndChar
StartChar: ogonek
Encoding: 731 731 208
Width: 183
Flags: W
Fore
161 7 m 1,0,1
 141 0 141 0 120 -9 c 128,-1,2
 99 -18 99 -18 81 -30 c 128,-1,3
 63 -42 63 -42 50.5 -57 c 128,-1,4
 38 -72 38 -72 35 -90 c 0,5,6
 32 -107 32 -107 38.5 -119 c 128,-1,7
 45 -131 45 -131 68 -131 c 0,8,9
 77 -131 77 -131 87.5 -127.5 c 128,-1,10
 98 -124 98 -124 109 -119.5 c 128,-1,11
 120 -115 120 -115 130 -109.5 c 128,-1,12
 140 -104 140 -104 146 -100 c 1,13,-1
 151 -115 l 1,14,15
 131 -128 131 -128 100.5 -142 c 128,-1,16
 70 -156 70 -156 37 -156 c 0,17,18
 8 -156 8 -156 -5.5 -139 c 128,-1,19
 -19 -122 -19 -122 -14 -96 c 0,20,21
 -10 -74 -10 -74 6.5 -57 c 128,-1,22
 23 -40 23 -40 47 -27.5 c 128,-1,23
 71 -15 71 -15 100.5 -6 c 128,-1,24
 130 3 130 3 159 10 c 1,25,-1
 161 7 l 1,0,1
EndSplineSet
EndChar
StartChar: tilde
Encoding: 732 732 209
Width: 235
Flags: W
Fore
78 444 m 1,0,1
 86 464 86 464 98 480 c 0,2,3
 109 494 109 494 124.5 505 c 128,-1,4
 140 516 140 516 163 516 c 0,5,6
 179 516 179 516 192 510.5 c 128,-1,7
 205 505 205 505 216.5 498.5 c 128,-1,8
 228 492 228 492 238.5 486.5 c 128,-1,9
 249 481 249 481 260 481 c 0,10,11
 272 481 272 481 281 487 c 128,-1,12
 290 493 290 493 297 501 c 0,13,14
 304 510 304 510 310 521 c 1,15,-1
 326 521 l 1,16,17
 319 499 319 499 307 482 c 0,18,19
 296 468 296 468 279.5 456 c 128,-1,20
 263 444 263 444 238 444 c 0,21,22
 221 444 221 444 209 449.5 c 128,-1,23
 197 455 197 455 187 462 c 128,-1,24
 177 469 177 469 167 474.5 c 128,-1,25
 157 480 157 480 144 480 c 0,26,27
 132 480 132 480 122.5 474.5 c 128,-1,28
 113 469 113 469 107 462 c 0,29,30
 100 454 100 454 95 444 c 1,31,-1
 78 444 l 1,0,1
EndSplineSet
EndChar
StartChar: hungarumlaut
Encoding: 733 733 210
Width: 183
Flags: W
Fore
54 425 m 1,0,-1
 160 539 l 2,1,2
 165 544 165 544 170 547 c 128,-1,3
 175 550 175 550 183 550 c 0,4,5
 193 550 193 550 199 543.5 c 128,-1,6
 205 537 205 537 203 527 c 0,7,8
 201 519 201 519 194 512.5 c 128,-1,9
 187 506 187 506 173 495 c 2,10,-1
 75 424 l 1,11,-1
 54 425 l 1,0,-1
153 424 m 1,12,-1
 259 539 l 2,13,14
 270 550 270 550 282 550 c 0,15,16
 292 550 292 550 298 543.5 c 128,-1,17
 304 537 304 537 302 527 c 0,18,19
 300 519 300 519 293 512.5 c 128,-1,20
 286 506 286 506 272 495 c 2,21,-1
 174 424 l 1,22,-1
 153 424 l 1,12,-1
EndSplineSet
EndChar
StartChar: uni0E01
Encoding: 3585 3585 212
Width: 468
Flags: W
Fore
358 0 m 1,0,-1
 406 275 l 2,1,2
 411 303 411 303 404 324 c 128,-1,3
 397 345 397 345 381.5 359 c 128,-1,4
 366 373 366 373 343.5 380 c 128,-1,5
 321 387 321 387 296 387 c 0,6,7
 270 387 270 387 244.5 379.5 c 128,-1,8
 219 372 219 372 197.5 357 c 128,-1,9
 176 342 176 342 160 320.5 c 128,-1,10
 144 299 144 299 137 272 c 1,11,-1
 202 272 l 1,12,-1
 199 252 l 1,13,14
 173 240 173 240 159 218.5 c 128,-1,15
 145 197 145 197 140 171 c 2,16,-1
 110 0 l 1,17,-1
 60 0 l 1,18,-1
 88 161 l 2,19,20
 94 195 94 195 114.5 220.5 c 128,-1,21
 135 246 135 246 170 255 c 1,22,-1
 82 255 l 1,23,24
 92 294 92 294 113.5 322.5 c 128,-1,25
 135 351 135 351 164.5 369.5 c 128,-1,26
 194 388 194 388 228.5 397.5 c 128,-1,27
 263 407 263 407 299 407 c 0,28,29
 332 407 332 407 363.5 399.5 c 128,-1,30
 395 392 395 392 417.5 375.5 c 128,-1,31
 440 359 440 359 451 332.5 c 128,-1,32
 462 306 462 306 455 268 c 2,33,-1
 408 0 l 1,34,-1
 358 0 l 1,0,-1
EndSplineSet
EndChar
StartChar: uni0E02
Encoding: 3586 3586 213
Width: 466
Flags: W
Fore
103 0 m 1,0,-1
 128 144 l 1,1,2
 153 152 153 152 178 163 c 128,-1,3
 203 174 203 174 223 190 c 128,-1,4
 243 206 243 206 257.5 227 c 128,-1,5
 272 248 272 248 277 277 c 0,6,7
 281 298 281 298 278 317.5 c 128,-1,8
 275 337 275 337 265.5 352 c 128,-1,9
 256 367 256 367 239.5 376 c 128,-1,10
 223 385 223 385 201 385 c 0,11,12
 178 385 178 385 154 374.5 c 128,-1,13
 130 364 130 364 117 341 c 1,14,15
 139 355 139 355 164 355 c 0,16,17
 198 355 198 355 218 331 c 128,-1,18
 238 307 238 307 232 273 c 256,19,20
 226 239 226 239 197.5 215 c 128,-1,21
 169 191 169 191 135 191 c 0,22,23
 92 191 92 191 72.5 221 c 128,-1,24
 53 251 53 251 61 292 c 0,25,26
 66 319 66 319 81 340.5 c 128,-1,27
 96 362 96 362 117 376.5 c 128,-1,28
 138 391 138 391 163.5 399 c 128,-1,29
 189 407 189 407 214 407 c 0,30,31
 240 407 240 407 262 398 c 128,-1,32
 284 389 284 389 299 372.5 c 128,-1,33
 314 356 314 356 320.5 333.5 c 128,-1,34
 327 311 327 311 323 284 c 0,35,36
 313 228 313 228 271.5 191 c 128,-1,37
 230 154 230 154 177 137 c 1,38,-1
 157 25 l 1,39,-1
 360 25 l 1,40,-1
 426 400 l 1,41,-1
 476 400 l 1,42,-1
 406 0 l 1,43,-1
 103 0 l 1,0,-1
207 273 m 0,44,45
 211 296 211 296 197 313 c 128,-1,46
 183 330 183 330 160 330 c 256,47,48
 137 330 137 330 117 313 c 128,-1,49
 97 296 97 296 93 273 c 0,50,51
 88 250 88 250 102.5 233 c 128,-1,52
 117 216 117 216 140 216 c 256,53,54
 163 216 163 216 182.5 233 c 128,-1,55
 202 250 202 250 207 273 c 0,44,45
EndSplineSet
EndChar
StartChar: uni0E03
Encoding: 3587 3587 214
Width: 486
Flags: W
Fore
123 0 m 1,0,-1
 148 144 l 1,1,2
 176 154 176 154 203.5 167.5 c 128,-1,3
 231 181 231 181 253.5 199 c 128,-1,4
 276 217 276 217 292 241 c 128,-1,5
 308 265 308 265 314 297 c 0,6,7
 316 309 316 309 316.5 324 c 128,-1,8
 317 339 317 339 313 352.5 c 128,-1,9
 309 366 309 366 300.5 375.5 c 128,-1,10
 292 385 292 385 276 385 c 0,11,12
 262 385 262 385 252 378.5 c 128,-1,13
 242 372 242 372 231 362 c 1,14,15
 222 375 222 375 211.5 380 c 128,-1,16
 201 385 201 385 184 385 c 0,17,18
 164 385 164 385 144 371 c 128,-1,19
 124 357 124 357 116 337 c 1,20,21
 139 351 139 351 163 351 c 0,22,23
 197 351 197 351 217 327 c 128,-1,24
 237 303 237 303 231 269 c 256,25,26
 225 235 225 235 196.5 211 c 128,-1,27
 168 187 168 187 134 187 c 0,28,29
 91 187 91 187 72 217 c 128,-1,30
 53 247 53 247 60 288 c 0,31,32
 64 310 64 310 75 331.5 c 128,-1,33
 86 353 86 353 102.5 370 c 128,-1,34
 119 387 119 387 140 397 c 128,-1,35
 161 407 161 407 185 407 c 0,36,37
 201 407 201 407 213.5 401.5 c 128,-1,38
 226 396 226 396 234 383 c 1,39,40
 245 394 245 394 259.5 400.5 c 128,-1,41
 274 407 274 407 288 407 c 0,42,43
 312 407 312 407 327.5 398 c 128,-1,44
 343 389 343 389 351 373.5 c 128,-1,45
 359 358 359 358 361 338.5 c 128,-1,46
 363 319 363 319 359 298 c 0,47,48
 354 270 354 270 338.5 244.5 c 128,-1,49
 323 219 323 219 300.5 198 c 128,-1,50
 278 177 278 177 251 161.5 c 128,-1,51
 224 146 224 146 197 137 c 1,52,-1
 177 25 l 1,53,-1
 380 25 l 1,54,-1
 446 400 l 1,55,-1
 496 400 l 1,56,-1
 426 0 l 1,57,-1
 123 0 l 1,0,-1
206 269 m 0,58,59
 210 292 210 292 196 309 c 128,-1,60
 182 326 182 326 159 326 c 256,61,62
 136 326 136 326 116 309 c 128,-1,63
 96 292 96 292 92 269 c 0,64,65
 87 246 87 246 101.5 229 c 128,-1,66
 116 212 116 212 139 212 c 256,67,68
 162 212 162 212 181.5 229 c 128,-1,69
 201 246 201 246 206 269 c 0,58,59
EndSplineSet
EndChar
StartChar: uni0E04
Encoding: 3588 3588 215
Width: 495
Flags: W
Fore
385 0 m 1,0,-1
 433 275 l 2,1,2
 438 302 438 302 429 322.5 c 128,-1,3
 420 343 420 343 402.5 357.5 c 128,-1,4
 385 372 385 372 362 379.5 c 128,-1,5
 339 387 339 387 315 387 c 0,6,7
 288 387 288 387 260 378.5 c 128,-1,8
 232 370 232 370 208.5 353.5 c 128,-1,9
 185 337 185 337 168 313.5 c 128,-1,10
 151 290 151 290 146 260 c 0,11,12
 138 213 138 213 135 168 c 128,-1,13
 132 123 132 123 122 76 c 1,14,-1
 197 230 l 2,15,16
 212 261 212 261 237.5 281.5 c 128,-1,17
 263 302 263 302 297 302 c 0,18,19
 332 302 332 302 351 278.5 c 128,-1,20
 370 255 370 255 364 220 c 0,21,22
 358 186 358 186 330 162 c 128,-1,23
 302 138 302 138 268 138 c 0,24,25
 245 138 245 138 225.5 151.5 c 128,-1,26
 206 165 206 165 201 187 c 1,27,-1
 112 0 l 1,28,-1
 62 0 l 1,29,-1
 69 36 l 2,30,31
 80 92 80 92 82.5 147 c 128,-1,32
 85 202 85 202 95 258 c 0,33,34
 102 297 102 297 125 325 c 128,-1,35
 148 353 148 353 180 371 c 128,-1,36
 212 389 212 389 248.5 398 c 128,-1,37
 285 407 285 407 318 407 c 0,38,39
 350 407 350 407 382.5 399.5 c 128,-1,40
 415 392 415 392 439 375.5 c 128,-1,41
 463 359 463 359 476 333 c 128,-1,42
 489 307 489 307 482 269 c 2,43,-1
 435 0 l 1,44,-1
 385 0 l 1,0,-1
339 220 m 0,45,46
 344 243 344 243 329.5 260 c 128,-1,47
 315 277 315 277 292 277 c 256,48,49
 269 277 269 277 249.5 260 c 128,-1,50
 230 243 230 243 225 220 c 0,51,52
 221 197 221 197 235 180 c 128,-1,53
 249 163 249 163 272 163 c 256,54,55
 295 163 295 163 315 180 c 128,-1,56
 335 197 335 197 339 220 c 0,45,46
EndSplineSet
EndChar
StartChar: uni0E05
Encoding: 3589 3589 216
Width: 495
Flags: W
Fore
385 0 m 1,0,-1
 436 292 l 2,1,2
 439 308 439 308 438.5 324.5 c 128,-1,3
 438 341 438 341 432 354 c 128,-1,4
 426 367 426 367 414 375 c 128,-1,5
 402 383 402 383 383 383 c 0,6,7
 363 383 363 383 345 372.5 c 128,-1,8
 327 362 327 362 315 344 c 1,9,-1
 304 344 l 1,10,11
 300 362 300 362 285.5 372.5 c 128,-1,12
 271 383 271 383 252 383 c 0,13,14
 228 383 228 383 209.5 372 c 128,-1,15
 191 361 191 361 177.5 343.5 c 128,-1,16
 164 326 164 326 155.5 304.5 c 128,-1,17
 147 283 147 283 144 263 c 0,18,19
 136 218 136 218 134.5 174 c 128,-1,20
 133 130 133 130 126 85 c 1,21,22
 137 107 137 107 151.5 144 c 128,-1,23
 166 181 166 181 186.5 216 c 128,-1,24
 207 251 207 251 234 276.5 c 128,-1,25
 261 302 261 302 297 302 c 0,26,27
 332 302 332 302 351 278.5 c 128,-1,28
 370 255 370 255 364 220 c 0,29,30
 358 186 358 186 330 162 c 128,-1,31
 302 138 302 138 268 138 c 0,32,33
 245 138 245 138 225.5 151.5 c 128,-1,34
 206 165 206 165 201 187 c 1,35,-1
 112 0 l 1,36,-1
 62 0 l 1,37,38
 64 11 64 11 66.5 22.5 c 128,-1,39
 69 34 69 34 71 45 c 0,40,41
 81 99 81 99 82 153 c 128,-1,42
 83 207 83 207 93 261 c 0,43,44
 98 289 98 289 110.5 315.5 c 128,-1,45
 123 342 123 342 142 362.5 c 128,-1,46
 161 383 161 383 186 395.5 c 128,-1,47
 211 408 211 408 242 408 c 0,48,49
 265 408 265 408 286 400 c 128,-1,50
 307 392 307 392 315 369 c 1,51,52
 334 390 334 390 354.5 399 c 128,-1,53
 375 408 375 408 401 408 c 0,54,55
 450 408 450 408 473 378 c 128,-1,56
 496 348 496 348 487 300 c 2,57,-1
 435 0 l 1,58,-1
 385 0 l 1,0,-1
339 220 m 0,59,60
 344 243 344 243 329.5 260 c 128,-1,61
 315 277 315 277 292 277 c 256,62,63
 269 277 269 277 249.5 260 c 128,-1,64
 230 243 230 243 225 220 c 0,65,66
 221 197 221 197 235 180 c 128,-1,67
 249 163 249 163 272 163 c 256,68,69
 295 163 295 163 315 180 c 128,-1,70
 335 197 335 197 339 220 c 0,59,60
EndSplineSet
EndChar
StartChar: uni0E06
Encoding: 3590 3590 217
Width: 536
Flags: W
Fore
426 0 m 1,0,-1
 262 120 l 1,1,2
 257 93 257 93 250.5 70 c 128,-1,3
 244 47 244 47 231 30.5 c 128,-1,4
 218 14 218 14 197.5 4.5 c 128,-1,5
 177 -5 177 -5 145 -5 c 0,6,7
 107 -5 107 -5 84 18.5 c 128,-1,8
 61 42 61 42 68 82 c 0,9,10
 72 106 72 106 89 125 c 128,-1,11
 106 144 106 144 128.5 155.5 c 128,-1,12
 151 167 151 167 175.5 169.5 c 128,-1,13
 200 172 200 172 219 162 c 1,14,15
 224 190 224 190 238 207 c 128,-1,16
 252 224 252 224 268 239 c 128,-1,17
 284 254 284 254 298 271 c 128,-1,18
 312 288 312 288 317 317 c 0,19,20
 322 341 322 341 313 363 c 128,-1,21
 304 385 304 385 276 385 c 0,22,23
 262 385 262 385 252 378.5 c 128,-1,24
 242 372 242 372 231 362 c 1,25,26
 222 375 222 375 211.5 380 c 128,-1,27
 201 385 201 385 184 385 c 0,28,29
 164 385 164 385 144 371 c 128,-1,30
 124 357 124 357 116 337 c 1,31,32
 139 351 139 351 163 351 c 0,33,34
 197 351 197 351 217 327 c 128,-1,35
 237 303 237 303 231 269 c 256,36,37
 225 235 225 235 196.5 211 c 128,-1,38
 168 187 168 187 134 187 c 0,39,40
 91 187 91 187 72 217 c 128,-1,41
 53 247 53 247 60 288 c 0,42,43
 64 310 64 310 75 331.5 c 128,-1,44
 86 353 86 353 102.5 370 c 128,-1,45
 119 387 119 387 140 397 c 128,-1,46
 161 407 161 407 185 407 c 0,47,48
 201 407 201 407 213.5 401.5 c 128,-1,49
 226 396 226 396 234 383 c 1,50,51
 245 396 245 396 261 401.5 c 128,-1,52
 277 407 277 407 292 407 c 0,53,54
 333 407 333 407 351.5 382.5 c 128,-1,55
 370 358 370 358 363 318 c 0,56,57
 358 290 358 290 345 276 c 128,-1,58
 332 262 332 262 317 247.5 c 128,-1,59
 302 233 302 233 288 212 c 128,-1,60
 274 191 274 191 267 148 c 1,61,-1
 431 30 l 1,62,-1
 496 400 l 1,63,-1
 546 400 l 1,64,-1
 476 0 l 1,65,-1
 426 0 l 1,0,-1
206 269 m 0,66,67
 210 292 210 292 196 309 c 128,-1,68
 182 326 182 326 159 326 c 256,69,70
 136 326 136 326 116 309 c 128,-1,71
 96 292 96 292 92 269 c 0,72,73
 87 246 87 246 101.5 229 c 128,-1,74
 116 212 116 212 139 212 c 256,75,76
 162 212 162 212 181.5 229 c 128,-1,77
 201 246 201 246 206 269 c 0,66,67
215 137 m 1,78,79
 207 141 207 141 197 141.5 c 128,-1,80
 187 142 187 142 177 142 c 0,81,82
 150 142 150 142 125.5 126.5 c 128,-1,83
 101 111 101 111 96 82 c 0,84,85
 91 56 91 56 104.5 39 c 128,-1,86
 118 22 118 22 144 22 c 256,87,88
 170 22 170 22 185.5 41 c 128,-1,89
 201 60 201 60 205 83 c 2,90,-1
 215 137 l 1,78,79
EndSplineSet
EndChar
StartChar: uni0E07
Encoding: 3591 3591 218
Width: 408
Flags: W
Fore
176 0 m 1,0,1
 171 25 171 25 158 61 c 128,-1,2
 145 97 145 97 126 132.5 c 128,-1,3
 107 168 107 168 85 197.5 c 128,-1,4
 63 227 63 227 42 239 c 1,5,-1
 91 270 l 1,6,7
 112 256 112 256 130.5 226 c 128,-1,8
 149 196 149 196 163.5 160 c 128,-1,9
 178 124 178 124 187 87.5 c 128,-1,10
 196 51 196 51 198 25 c 1,11,-1
 301 25 l 1,12,-1
 342 260 l 1,13,14
 330 250 330 250 315 246 c 128,-1,15
 300 242 300 242 286 242 c 0,16,17
 252 242 252 242 233 266 c 128,-1,18
 214 290 214 290 220 324 c 0,19,20
 226 361 226 361 255 384 c 128,-1,21
 284 407 284 407 320 407 c 0,22,23
 367 407 367 407 387.5 378.5 c 128,-1,24
 408 350 408 350 400 305 c 2,25,-1
 347 0 l 1,26,-1
 176 0 l 1,0,1
358 324 m 0,27,28
 362 347 362 347 348 363.5 c 128,-1,29
 334 380 334 380 311 380 c 256,30,31
 288 380 288 380 268.5 363.5 c 128,-1,32
 249 347 249 347 245 324 c 0,33,34
 240 301 240 301 254 284 c 128,-1,35
 268 267 268 267 291 267 c 256,36,37
 314 267 314 267 333.5 284 c 128,-1,38
 353 301 353 301 358 324 c 0,27,28
EndSplineSet
EndChar
StartChar: uni0E08
Encoding: 3592 3592 219
Width: 424
Flags: W
Fore
428 255 m 0,0,1
 422 223 422 223 413.5 191 c 128,-1,2
 405 159 405 159 395.5 127.5 c 128,-1,3
 386 96 386 96 377.5 64 c 128,-1,4
 369 32 369 32 364 0 c 1,5,-1
 314 0 l 1,6,-1
 275 156 l 1,7,8
 262 132 262 132 237.5 117 c 128,-1,9
 213 102 213 102 188 102 c 0,10,11
 153 102 153 102 134 125.5 c 128,-1,12
 115 149 115 149 121 184 c 256,13,14
 127 219 127 219 154.5 242.5 c 128,-1,15
 182 266 182 266 217 266 c 0,16,17
 248 266 248 266 266 250.5 c 128,-1,18
 284 235 284 235 291 207 c 2,19,-1
 329 54 l 1,20,-1
 330 68 l 2,21,22
 338 119 338 119 355 169.5 c 128,-1,23
 372 220 372 220 381 271 c 0,24,25
 386 299 386 299 379.5 321 c 128,-1,26
 373 343 373 343 357 357.5 c 128,-1,27
 341 372 341 372 318.5 379.5 c 128,-1,28
 296 387 296 387 270 387 c 0,29,30
 242 387 242 387 214 378 c 128,-1,31
 186 369 186 369 162.5 352 c 128,-1,32
 139 335 139 335 122 311 c 128,-1,33
 105 287 105 287 100 257 c 1,34,-1
 45 257 l 1,35,36
 57 294 57 294 80.5 322 c 128,-1,37
 104 350 104 350 135 369 c 128,-1,38
 166 388 166 388 202 397 c 128,-1,39
 238 406 238 406 273 406 c 0,40,41
 310 406 310 406 341.5 397.5 c 128,-1,42
 373 389 373 389 394.5 371 c 128,-1,43
 416 353 416 353 425.5 324.5 c 128,-1,44
 435 296 435 296 428 255 c 0,0,1
261 184 m 0,45,46
 265 207 265 207 251 224 c 128,-1,47
 237 241 237 241 214 241 c 256,48,49
 191 241 191 241 171 224 c 128,-1,50
 151 207 151 207 147 184 c 0,51,52
 142 161 142 161 156.5 144 c 128,-1,53
 171 127 171 127 194 127 c 256,54,55
 217 127 217 127 236.5 144 c 128,-1,56
 256 161 256 161 261 184 c 0,45,46
EndSplineSet
EndChar
StartChar: uni0E09
Encoding: 3593 3593 220
Width: 514
Flags: W
Fore
493 78 m 0,0,1
 490 61 490 61 480.5 45.5 c 128,-1,2
 471 30 471 30 457 18 c 128,-1,3
 443 6 443 6 426 -1 c 128,-1,4
 409 -8 409 -8 392 -8 c 0,5,6
 369 -8 369 -8 352.5 2 c 128,-1,7
 336 12 336 12 327.5 28 c 128,-1,8
 319 44 319 44 319 65 c 128,-1,9
 319 86 319 86 330 107 c 1,10,11
 295 84 295 84 260 57 c 128,-1,12
 225 30 225 30 195 0 c 1,13,-1
 144 0 l 1,14,-1
 165 120 l 1,15,16
 152 110 152 110 137 106 c 128,-1,17
 122 102 122 102 108 102 c 0,18,19
 74 102 74 102 55 126 c 128,-1,20
 36 150 36 150 42 184 c 0,21,22
 49 221 49 221 78 244 c 128,-1,23
 107 267 107 267 143 267 c 0,24,25
 190 267 190 267 207 243.5 c 128,-1,26
 224 220 224 220 224.5 186 c 128,-1,27
 225 152 225 152 216 113 c 128,-1,28
 207 74 207 74 201 43 c 1,29,30
 252 89 252 89 312.5 126 c 128,-1,31
 373 163 373 163 435 186 c 1,32,-1
 451 275 l 2,33,34
 457 307 457 307 446.5 328.5 c 128,-1,35
 436 350 436 350 416.5 363 c 128,-1,36
 397 376 397 376 371 381.5 c 128,-1,37
 345 387 345 387 318 387 c 0,38,39
 293 387 293 387 265.5 381.5 c 128,-1,40
 238 376 238 376 213.5 364 c 128,-1,41
 189 352 189 352 169 332.5 c 128,-1,42
 149 313 149 313 139 285 c 1,43,-1
 88 285 l 1,44,45
 100 321 100 321 126.5 344.5 c 128,-1,46
 153 368 153 368 186 382 c 128,-1,47
 219 396 219 396 254.5 401.5 c 128,-1,48
 290 407 290 407 321 407 c 0,49,50
 356 407 356 407 391.5 401 c 128,-1,51
 427 395 427 395 453.5 379.5 c 128,-1,52
 480 364 480 364 493.5 337 c 128,-1,53
 507 310 507 310 500 267 c 2,54,-1
 484 181 l 1,55,56
 471 179 471 179 459 174 c 128,-1,57
 447 169 447 169 434 163 c 1,58,59
 465 158 465 158 482 134 c 128,-1,60
 499 110 499 110 493 78 c 0,0,1
469 76 m 256,61,62
 474 101 474 101 458 120 c 128,-1,63
 442 139 442 139 417 139 c 256,64,65
 392 139 392 139 370 120 c 128,-1,66
 348 101 348 101 343 76 c 256,67,68
 338 51 338 51 354 32 c 128,-1,69
 370 13 370 13 395 13 c 256,70,71
 420 13 420 13 442 32 c 128,-1,72
 464 51 464 51 469 76 c 256,61,62
180 184 m 0,73,74
 184 207 184 207 170 223.5 c 128,-1,75
 156 240 156 240 133 240 c 256,76,77
 110 240 110 240 90.5 223.5 c 128,-1,78
 71 207 71 207 67 184 c 256,79,80
 63 161 63 161 76.5 144 c 128,-1,81
 90 127 90 127 113 127 c 256,82,83
 136 127 136 127 155.5 144 c 128,-1,84
 175 161 175 161 180 184 c 0,73,74
EndSplineSet
EndChar
StartChar: uni0E0A
Encoding: 3594 3594 221
Width: 466
Flags: W
Fore
494 400 m 1,0,1
 491 388 491 388 480 375.5 c 128,-1,2
 469 363 469 363 455.5 352 c 128,-1,3
 442 341 442 341 427 332 c 128,-1,4
 412 323 412 323 401 318 c 1,5,6
 422 309 422 309 438 291.5 c 128,-1,7
 454 274 454 274 449 247 c 2,8,-1
 406 0 l 1,9,-1
 103 0 l 1,10,-1
 128 144 l 1,11,12
 153 152 153 152 178 163 c 128,-1,13
 203 174 203 174 223 190 c 128,-1,14
 243 206 243 206 257.5 227 c 128,-1,15
 272 248 272 248 277 277 c 0,16,17
 281 298 281 298 278 317.5 c 128,-1,18
 275 337 275 337 265.5 352 c 128,-1,19
 256 367 256 367 239.5 376 c 128,-1,20
 223 385 223 385 201 385 c 0,21,22
 178 385 178 385 154 374.5 c 128,-1,23
 130 364 130 364 117 341 c 1,24,25
 139 355 139 355 164 355 c 0,26,27
 198 355 198 355 218 331 c 128,-1,28
 238 307 238 307 232 273 c 256,29,30
 226 239 226 239 197.5 215 c 128,-1,31
 169 191 169 191 135 191 c 0,32,33
 92 191 92 191 72.5 221 c 128,-1,34
 53 251 53 251 61 292 c 0,35,36
 66 319 66 319 81 340.5 c 128,-1,37
 96 362 96 362 117 376.5 c 128,-1,38
 138 391 138 391 163.5 399 c 128,-1,39
 189 407 189 407 214 407 c 0,40,41
 240 407 240 407 262 398 c 128,-1,42
 284 389 284 389 299 372.5 c 128,-1,43
 314 356 314 356 320.5 333.5 c 128,-1,44
 327 311 327 311 323 284 c 0,45,46
 313 228 313 228 271.5 191 c 128,-1,47
 230 154 230 154 177 137 c 1,48,-1
 157 25 l 1,49,-1
 360 25 l 1,50,-1
 399 246 l 2,51,52
 404 275 404 275 393.5 291 c 128,-1,53
 383 307 383 307 360 318 c 1,54,55
 384 330 384 330 404.5 352 c 128,-1,56
 425 374 425 374 433 400 c 1,57,-1
 494 400 l 1,0,1
207 273 m 0,58,59
 211 296 211 296 197 313 c 128,-1,60
 183 330 183 330 160 330 c 256,61,62
 137 330 137 330 117 313 c 128,-1,63
 97 296 97 296 93 273 c 0,64,65
 88 250 88 250 102.5 233 c 128,-1,66
 117 216 117 216 140 216 c 256,67,68
 163 216 163 216 182.5 233 c 128,-1,69
 202 250 202 250 207 273 c 0,58,59
EndSplineSet
EndChar
